<svg width="458" height="42" viewBox="0 0 458 42" fill="none" xmlns="http://www.w3.org/2000/svg">
<path d="M61.673 32.16C61.417 32.16 61.2037 32.1173 61.033 32.032C60.8624 31.968 60.777 31.8613 60.777 31.712C60.777 31.5413 60.8624 31.4027 61.033 31.296C61.2037 31.1893 61.4384 31.0827 61.737 30.976C62.313 30.8053 62.8357 30.5493 63.305 30.208C63.7744 29.8667 64.1584 29.344 64.457 28.64C65.033 27.3387 65.5664 26.1013 66.057 24.928C66.5477 23.7333 67.017 22.56 67.465 21.408C67.913 20.256 68.3717 19.072 68.841 17.856C69.3104 16.6187 69.7904 15.3067 70.281 13.92C70.473 13.4293 70.6117 13.024 70.697 12.704C70.7824 12.3627 70.8357 12.064 70.857 11.808C71.1344 11.744 71.3904 11.68 71.625 11.616C71.8597 11.5307 72.1157 11.4133 72.393 11.264C72.649 11.136 72.841 10.9547 72.969 10.72C73.1184 10.464 73.2357 10.2827 73.321 10.176C73.3637 10.1547 73.4064 10.144 73.449 10.144C73.513 10.1227 73.5664 10.1547 73.609 10.24C73.673 10.3467 73.7157 10.464 73.737 10.592C73.7797 10.72 73.8224 10.8587 73.865 11.008C74.3557 12.5653 74.857 14.1547 75.369 15.776C75.9024 17.376 76.425 18.944 76.937 20.48C77.449 22.016 77.929 23.4453 78.377 24.768C78.825 26.0693 79.209 27.2107 79.529 28.192C79.7637 28.896 80.041 29.44 80.361 29.824C80.681 30.1867 81.0224 30.464 81.385 30.656C81.7477 30.8267 82.1424 30.9547 82.569 31.04C82.889 31.104 83.1237 31.2 83.273 31.328C83.4437 31.456 83.529 31.6053 83.529 31.776C83.529 31.904 83.4437 31.9893 83.273 32.032C83.1237 32.096 82.9317 32.128 82.697 32.128C82.3557 32.128 81.9077 32.1067 81.353 32.064C80.7984 32.0427 80.2224 32.0213 79.625 32C79.0277 31.9787 78.4837 31.968 77.993 31.968C77.5877 31.968 77.1397 31.968 76.649 31.968C76.1584 31.968 75.689 31.9787 75.241 32C74.8144 32.0213 74.441 32.032 74.121 32.032C73.865 32.032 73.6517 32 73.481 31.936C73.3317 31.8507 73.257 31.744 73.257 31.616C73.257 31.4453 73.353 31.3067 73.545 31.2C73.737 31.0933 73.961 31.0187 74.217 30.976C74.9424 30.848 75.465 30.656 75.785 30.4C76.1264 30.144 76.265 29.8027 76.201 29.376C76.1797 29.0133 76.105 28.5653 75.977 28.032C75.849 27.4773 75.6997 26.9013 75.529 26.304C75.3584 25.6853 75.1984 25.12 75.049 24.608C75.0064 24.4373 74.9317 24.3307 74.825 24.288C74.7184 24.2453 74.537 24.224 74.281 24.224H68.361C68.2544 24.224 68.1584 24.2667 68.073 24.352C67.9877 24.416 67.9024 24.5547 67.817 24.768C67.753 25.024 67.6464 25.3547 67.497 25.76C67.369 26.144 67.241 26.56 67.113 27.008C66.985 27.4347 66.8677 27.84 66.761 28.224C66.6757 28.5867 66.6224 28.8533 66.601 29.024C66.537 29.5573 66.665 29.984 66.985 30.304C67.3264 30.6027 67.8277 30.8373 68.489 31.008C69.129 31.1787 69.449 31.392 69.449 31.648C69.449 31.7973 69.3637 31.904 69.193 31.968C69.0437 32.0107 68.841 32.032 68.585 32.032C68.1797 32.032 67.7104 32.0213 67.177 32C66.6437 31.9787 66.0784 31.968 65.481 31.968C64.7984 31.968 64.137 32 63.497 32.064C62.857 32.128 62.249 32.16 61.673 32.16ZM69.257 22.912H73.929C74.2277 22.912 74.377 22.8587 74.377 22.752C74.377 22.688 74.3664 22.6347 74.345 22.592C74.345 22.5493 74.3344 22.4853 74.313 22.4L71.945 14.816C71.8384 14.4747 71.753 14.304 71.689 14.304C71.6464 14.304 71.5717 14.464 71.465 14.784L68.681 22.4C68.6384 22.528 68.617 22.6133 68.617 22.656C68.617 22.7627 68.6704 22.8373 68.777 22.88C68.905 22.9013 69.065 22.912 69.257 22.912ZM84.5898 40.864C84.4618 40.864 84.3125 40.832 84.1418 40.768C83.9925 40.7253 83.9178 40.64 83.9178 40.512C83.9178 40.3413 83.9925 40.2133 84.1418 40.128C84.2911 40.0427 84.4618 39.968 84.6538 39.904C85.0165 39.7973 85.3258 39.6693 85.5818 39.52C85.8378 39.3707 85.9658 39.0933 85.9658 38.688V22.784C85.9658 22.592 85.9125 22.336 85.8058 22.016C85.7205 21.696 85.5711 21.3973 85.3578 21.12C85.1445 20.8427 84.8778 20.6827 84.5578 20.64C84.4511 20.5973 84.3658 20.544 84.3018 20.48C84.2591 20.3947 84.2378 20.288 84.2378 20.16C84.2378 20.032 84.2591 19.936 84.3018 19.872C84.3658 19.7867 84.4405 19.7333 84.5258 19.712C85.2938 19.52 86.0191 19.3067 86.7018 19.072C87.3845 18.8373 87.9925 18.592 88.5258 18.336C88.5898 18.336 88.6325 18.3253 88.6538 18.304C88.6965 18.2613 88.7391 18.24 88.7818 18.24C88.8458 18.24 88.8991 18.2827 88.9418 18.368C88.9845 18.432 89.0058 18.496 89.0058 18.56C89.0058 18.752 88.9738 19.0507 88.9098 19.456C88.8671 19.8613 88.8458 20.2027 88.8458 20.48C88.8458 20.6507 88.8565 20.7467 88.8778 20.768C89.0911 20.5547 89.4751 20.288 90.0298 19.968C90.5845 19.6267 91.2245 19.3173 91.9498 19.04C92.6751 18.7627 93.3685 18.624 94.0298 18.624C95.1391 18.624 96.0885 18.9227 96.8778 19.52C97.6671 20.1173 98.2751 20.8853 98.7018 21.824C99.1285 22.7627 99.3418 23.7333 99.3418 24.736C99.3418 25.7173 99.1498 26.6667 98.7658 27.584C98.4031 28.5013 97.8805 29.3333 97.1978 30.08C96.5365 30.8053 95.7685 31.392 94.8938 31.84C94.0191 32.2667 93.0698 32.48 92.0458 32.48C91.7685 32.48 91.4378 32.4373 91.0538 32.352C90.6698 32.288 90.2858 32.1813 89.9018 32.032C89.5391 31.904 89.2511 31.7547 89.0378 31.584C89.0165 31.584 88.9951 31.68 88.9738 31.872C88.9525 32.0427 88.9311 32.224 88.9098 32.416C88.9098 32.6293 88.9098 32.7787 88.9098 32.864V38.592C88.9098 38.8693 89.0058 39.0933 89.1978 39.264C89.3898 39.4347 89.6138 39.5627 89.8698 39.648C90.1471 39.7547 90.4245 39.8507 90.7018 39.936C90.8938 40 91.0645 40.064 91.2138 40.128C91.3631 40.2133 91.4378 40.3413 91.4378 40.512C91.4378 40.64 91.3631 40.7253 91.2138 40.768C91.0645 40.832 90.9151 40.864 90.7658 40.864C90.1471 40.864 89.5818 40.832 89.0698 40.768C88.5578 40.7253 88.0245 40.704 87.4698 40.704C87.1071 40.704 86.7871 40.7147 86.5098 40.736C86.2325 40.7573 85.9445 40.7787 85.6458 40.8C85.3685 40.8427 85.0165 40.864 84.5898 40.864ZM92.3338 31.328C92.6325 31.328 92.9845 31.2427 93.3898 31.072C93.7951 30.88 94.2005 30.5707 94.6058 30.144C95.0325 29.7173 95.3845 29.152 95.6618 28.448C95.9391 27.744 96.0778 26.8693 96.0778 25.824C96.0778 24.608 95.9285 23.6373 95.6298 22.912C95.3525 22.1867 95.0005 21.6427 94.5738 21.28C94.1471 20.896 93.7098 20.64 93.2618 20.512C92.8351 20.384 92.4725 20.32 92.1738 20.32C91.7045 20.32 91.2138 20.4267 90.7018 20.64C90.2111 20.832 89.7951 21.056 89.4538 21.312C89.1338 21.568 88.9738 21.7707 88.9738 21.92C88.9738 22.304 88.9631 22.7413 88.9418 23.232C88.9418 23.7013 88.9311 24.192 88.9098 24.704C88.9098 25.1947 88.9098 25.6427 88.9098 26.048C88.9098 26.4533 88.9098 26.7413 88.9098 26.912C88.9098 27.6373 89.0698 28.3413 89.3898 29.024C89.7311 29.7067 90.1578 30.2613 90.6698 30.688C91.2031 31.1147 91.7578 31.328 92.3338 31.328ZM101.559 40.864C101.431 40.864 101.281 40.832 101.111 40.768C100.961 40.7253 100.887 40.64 100.887 40.512C100.887 40.3413 100.961 40.2133 101.111 40.128C101.26 40.0427 101.431 39.968 101.623 39.904C101.985 39.7973 102.295 39.6693 102.551 39.52C102.807 39.3707 102.935 39.0933 102.935 38.688V22.784C102.935 22.592 102.881 22.336 102.775 22.016C102.689 21.696 102.54 21.3973 102.327 21.12C102.113 20.8427 101.847 20.6827 101.527 20.64C101.42 20.5973 101.335 20.544 101.271 20.48C101.228 20.3947 101.207 20.288 101.207 20.16C101.207 20.032 101.228 19.936 101.271 19.872C101.335 19.7867 101.409 19.7333 101.495 19.712C102.263 19.52 102.988 19.3067 103.671 19.072C104.353 18.8373 104.961 18.592 105.495 18.336C105.559 18.336 105.601 18.3253 105.623 18.304C105.665 18.2613 105.708 18.24 105.751 18.24C105.815 18.24 105.868 18.2827 105.911 18.368C105.953 18.432 105.975 18.496 105.975 18.56C105.975 18.752 105.943 19.0507 105.879 19.456C105.836 19.8613 105.815 20.2027 105.815 20.48C105.815 20.6507 105.825 20.7467 105.847 20.768C106.06 20.5547 106.444 20.288 106.999 19.968C107.553 19.6267 108.193 19.3173 108.919 19.04C109.644 18.7627 110.337 18.624 110.999 18.624C112.108 18.624 113.057 18.9227 113.847 19.52C114.636 20.1173 115.244 20.8853 115.671 21.824C116.097 22.7627 116.311 23.7333 116.311 24.736C116.311 25.7173 116.119 26.6667 115.735 27.584C115.372 28.5013 114.849 29.3333 114.167 30.08C113.505 30.8053 112.737 31.392 111.863 31.84C110.988 32.2667 110.039 32.48 109.015 32.48C108.737 32.48 108.407 32.4373 108.023 32.352C107.639 32.288 107.255 32.1813 106.871 32.032C106.508 31.904 106.22 31.7547 106.007 31.584C105.985 31.584 105.964 31.68 105.943 31.872C105.921 32.0427 105.9 32.224 105.879 32.416C105.879 32.6293 105.879 32.7787 105.879 32.864V38.592C105.879 38.8693 105.975 39.0933 106.167 39.264C106.359 39.4347 106.583 39.5627 106.839 39.648C107.116 39.7547 107.393 39.8507 107.671 39.936C107.863 40 108.033 40.064 108.183 40.128C108.332 40.2133 108.407 40.3413 108.407 40.512C108.407 40.64 108.332 40.7253 108.183 40.768C108.033 40.832 107.884 40.864 107.735 40.864C107.116 40.864 106.551 40.832 106.039 40.768C105.527 40.7253 104.993 40.704 104.439 40.704C104.076 40.704 103.756 40.7147 103.479 40.736C103.201 40.7573 102.913 40.7787 102.615 40.8C102.337 40.8427 101.985 40.864 101.559 40.864ZM109.303 31.328C109.601 31.328 109.953 31.2427 110.359 31.072C110.764 30.88 111.169 30.5707 111.575 30.144C112.001 29.7173 112.353 29.152 112.631 28.448C112.908 27.744 113.047 26.8693 113.047 25.824C113.047 24.608 112.897 23.6373 112.599 22.912C112.321 22.1867 111.969 21.6427 111.543 21.28C111.116 20.896 110.679 20.64 110.231 20.512C109.804 20.384 109.441 20.32 109.143 20.32C108.673 20.32 108.183 20.4267 107.671 20.64C107.18 20.832 106.764 21.056 106.423 21.312C106.103 21.568 105.943 21.7707 105.943 21.92C105.943 22.304 105.932 22.7413 105.911 23.232C105.911 23.7013 105.9 24.192 105.879 24.704C105.879 25.1947 105.879 25.6427 105.879 26.048C105.879 26.4533 105.879 26.7413 105.879 26.912C105.879 27.6373 106.039 28.3413 106.359 29.024C106.7 29.7067 107.127 30.2613 107.639 30.688C108.172 31.1147 108.727 31.328 109.303 31.328ZM118.751 32.096C118.559 32.096 118.399 32.064 118.271 32C118.165 31.936 118.111 31.84 118.111 31.712C118.111 31.5413 118.175 31.424 118.303 31.36C118.453 31.2747 118.634 31.2 118.847 31.136C119.295 31.0293 119.605 30.88 119.775 30.688C119.967 30.496 120.063 30.24 120.063 29.92V22.88C120.063 22.3467 119.989 21.8987 119.839 21.536C119.69 21.152 119.37 20.9067 118.879 20.8C118.794 20.7787 118.709 20.7253 118.623 20.64C118.559 20.5547 118.527 20.448 118.527 20.32C118.527 20.0853 118.634 19.936 118.847 19.872C119.445 19.7013 120.085 19.4667 120.767 19.168C121.45 18.848 122.005 18.5707 122.431 18.336C122.559 18.2507 122.677 18.1867 122.783 18.144C122.89 18.1013 122.965 18.08 123.007 18.08C123.157 18.08 123.231 18.1653 123.231 18.336C123.231 18.4213 123.221 18.6027 123.199 18.88C123.199 19.1573 123.189 19.4667 123.167 19.808C123.146 20.1493 123.135 20.48 123.135 20.8C123.135 20.8853 123.157 20.928 123.199 20.928C123.541 20.5013 123.914 20.1067 124.319 19.744C124.746 19.3813 125.194 19.0933 125.663 18.88C126.133 18.6453 126.581 18.528 127.007 18.528C127.562 18.528 127.989 18.6453 128.287 18.88C128.586 19.0933 128.735 19.3813 128.735 19.744C128.735 19.9787 128.661 20.256 128.511 20.576C128.383 20.8747 128.202 21.1413 127.967 21.376C127.754 21.5893 127.519 21.696 127.263 21.696C127.114 21.696 126.954 21.664 126.783 21.6C126.613 21.5147 126.431 21.4293 126.239 21.344C126.069 21.2587 125.887 21.184 125.695 21.12C125.525 21.0347 125.354 20.992 125.183 20.992C124.65 20.992 124.159 21.184 123.711 21.568C123.263 21.952 123.039 22.6987 123.039 23.808V29.824C123.039 30.1653 123.178 30.432 123.455 30.624C123.733 30.816 124.149 30.9973 124.703 31.168C124.938 31.232 125.119 31.3067 125.247 31.392C125.375 31.456 125.439 31.5627 125.439 31.712C125.439 31.968 125.237 32.096 124.831 32.096C124.191 32.096 123.637 32.064 123.167 32C122.719 31.9573 122.218 31.936 121.663 31.936C121.301 31.936 120.981 31.9467 120.703 31.968C120.426 31.9893 120.138 32.0107 119.839 32.032C119.541 32.0747 119.178 32.096 118.751 32.096ZM136.268 32.448C135.052 32.448 133.943 32.1707 132.94 31.616C131.959 31.04 131.18 30.2613 130.604 29.28C130.028 28.2987 129.74 27.1787 129.74 25.92C129.74 24.9813 129.921 24.0747 130.284 23.2C130.647 22.3253 131.159 21.536 131.82 20.832C132.481 20.128 133.249 19.5733 134.124 19.168C134.999 18.7413 135.937 18.528 136.94 18.528C138.199 18.528 139.34 18.8373 140.364 19.456C141.388 20.0533 142.199 20.8427 142.796 21.824C143.393 22.8053 143.692 23.8827 143.692 25.056C143.692 26.336 143.415 27.5413 142.86 28.672C142.305 29.8027 141.473 30.72 140.364 31.424C139.276 32.1067 137.911 32.448 136.268 32.448ZM136.94 31.328C137.559 31.328 138.113 31.2107 138.604 30.976C139.095 30.72 139.479 30.336 139.756 29.824C140.012 29.3333 140.183 28.736 140.268 28.032C140.375 27.3067 140.428 26.5707 140.428 25.824C140.428 24.7573 140.257 23.7547 139.916 22.816C139.575 21.8773 139.105 21.12 138.508 20.544C137.911 19.968 137.207 19.68 136.396 19.68C135.905 19.68 135.457 19.7653 135.052 19.936C134.668 20.0853 134.316 20.352 133.996 20.736C133.591 21.2267 133.324 21.8667 133.196 22.656C133.068 23.424 133.004 24.2667 133.004 25.184C133.004 26.208 133.175 27.1893 133.516 28.128C133.857 29.0667 134.316 29.8347 134.892 30.432C135.489 31.0293 136.172 31.328 136.94 31.328ZM151.353 32.672C151.246 32.672 151.129 32.512 151.001 32.192C150.873 31.8933 150.766 31.6267 150.681 31.392C150.531 31.0293 150.371 30.6347 150.201 30.208C150.051 29.7813 149.913 29.3867 149.785 29.024C149.294 27.7227 148.771 26.4533 148.217 25.216C147.662 23.9787 147.118 22.72 146.585 21.44C146.414 21.0133 146.179 20.6507 145.881 20.352C145.603 20.032 145.294 19.8187 144.953 19.712C144.761 19.6267 144.611 19.552 144.505 19.488C144.419 19.4027 144.377 19.2853 144.377 19.136C144.377 18.9867 144.462 18.9013 144.633 18.88C144.803 18.8373 144.942 18.816 145.049 18.816C145.518 18.816 145.859 18.8267 146.073 18.848C146.307 18.8693 146.531 18.9013 146.745 18.944C146.979 18.9653 147.289 18.976 147.673 18.976C148.099 18.976 148.43 18.9653 148.665 18.944C148.921 18.9013 149.177 18.8693 149.433 18.848C149.71 18.8267 150.073 18.816 150.521 18.816C150.627 18.816 150.766 18.8373 150.937 18.88C151.107 18.9227 151.193 19.008 151.193 19.136C151.193 19.3067 151.118 19.4347 150.969 19.52C150.819 19.584 150.649 19.6587 150.457 19.744C150.243 19.8293 150.073 19.9893 149.945 20.224C149.838 20.4587 149.785 20.736 149.785 21.056C149.785 21.2267 149.785 21.3973 149.785 21.568C149.806 21.7173 149.849 21.856 149.913 21.984L152.313 28.192C152.334 28.2133 152.345 28.224 152.345 28.224C152.366 28.224 152.387 28.2133 152.409 28.192L154.649 22.368C154.734 22.176 154.787 21.9733 154.809 21.76C154.851 21.5253 154.873 21.3227 154.873 21.152C154.873 20.7467 154.798 20.4373 154.649 20.224C154.521 20.0107 154.297 19.8507 153.977 19.744C153.721 19.6587 153.529 19.584 153.401 19.52C153.294 19.4347 153.241 19.3173 153.241 19.168C153.241 19.0187 153.315 18.9227 153.465 18.88C153.614 18.8373 153.763 18.816 153.913 18.816C154.275 18.8373 154.627 18.8693 154.969 18.912C155.331 18.9333 155.747 18.944 156.217 18.944C156.686 18.944 157.038 18.9333 157.273 18.912C157.507 18.8693 157.817 18.8373 158.201 18.816C158.371 18.816 158.531 18.8373 158.681 18.88C158.83 18.9227 158.905 19.008 158.905 19.136C158.905 19.392 158.67 19.5947 158.201 19.744C157.859 19.8507 157.507 20.096 157.145 20.48C156.782 20.864 156.494 21.3227 156.281 21.856L153.785 27.968C153.721 28.0747 153.625 28.2773 153.497 28.576C153.39 28.8533 153.273 29.1627 153.145 29.504C153.017 29.824 152.899 30.112 152.793 30.368C152.707 30.624 152.654 30.7733 152.633 30.816C152.59 30.88 152.515 31.04 152.409 31.296C152.302 31.5307 152.185 31.776 152.057 32.032C151.95 32.3093 151.843 32.5227 151.737 32.672H151.353ZM162.058 32.448C161.61 32.448 161.172 32.2987 160.746 32C160.319 31.7227 159.967 31.3707 159.69 30.944C159.412 30.496 159.274 30.0587 159.274 29.632C159.274 28.928 159.466 28.3627 159.85 27.936C160.255 27.5093 160.874 27.1253 161.706 26.784L164.81 25.472C165.236 25.3013 165.492 25.152 165.578 25.024C165.663 24.8747 165.716 24.5867 165.738 24.16L165.802 22.208C165.823 21.632 165.684 21.152 165.386 20.768C165.087 20.384 164.65 20.192 164.074 20.192C163.775 20.192 163.466 20.256 163.146 20.384C162.847 20.4907 162.602 20.6187 162.41 20.768C162.303 20.8533 162.228 20.9707 162.186 21.12C162.164 21.2693 162.154 21.4293 162.154 21.6C162.154 21.7067 162.154 21.8347 162.154 21.984C162.175 22.112 162.186 22.2187 162.186 22.304C162.186 22.432 162.036 22.592 161.738 22.784C161.46 22.9547 161.13 23.1147 160.746 23.264C160.383 23.4133 160.074 23.488 159.818 23.488C159.69 23.488 159.583 23.456 159.498 23.392C159.434 23.3067 159.402 23.2 159.402 23.072C159.402 22.7307 159.508 22.3787 159.722 22.016C159.956 21.632 160.298 21.248 160.746 20.864C161.258 20.416 161.812 20.0213 162.41 19.68C163.028 19.3173 163.626 19.04 164.202 18.848C164.799 18.656 165.322 18.56 165.77 18.56C166.666 18.56 167.391 18.8693 167.946 19.488C168.522 20.0853 168.788 20.864 168.746 21.824L168.586 29.056C168.564 29.5253 168.66 29.9093 168.874 30.208C169.087 30.5067 169.354 30.656 169.674 30.656C170.164 30.656 170.548 30.528 170.826 30.272C170.911 30.1867 170.986 30.144 171.05 30.144C171.156 30.144 171.242 30.176 171.306 30.24C171.391 30.304 171.434 30.3893 171.434 30.496C171.434 30.752 171.284 31.0187 170.986 31.296C170.623 31.6587 170.228 31.936 169.802 32.128C169.396 32.3413 169.002 32.448 168.618 32.448C167.551 32.448 166.698 31.872 166.058 30.72H165.962C165.258 31.3173 164.596 31.7547 163.978 32.032C163.359 32.3093 162.719 32.448 162.058 32.448ZM163.722 30.72C164.084 30.72 164.383 30.6667 164.618 30.56C164.874 30.432 165.098 30.2613 165.29 30.048C165.396 29.9413 165.471 29.8133 165.514 29.664C165.578 29.4933 165.62 29.2373 165.642 28.896L165.706 27.072C165.727 26.8587 165.716 26.7093 165.674 26.624C165.631 26.5173 165.546 26.464 165.418 26.464C165.375 26.464 165.311 26.4747 165.226 26.496C165.14 26.5173 165.023 26.56 164.874 26.624C163.914 26.9867 163.242 27.3707 162.858 27.776C162.474 28.16 162.282 28.5867 162.282 29.056C162.282 29.632 162.431 30.0587 162.73 30.336C163.05 30.592 163.38 30.72 163.722 30.72ZM172.62 32.096C172.471 32.096 172.322 32.0747 172.172 32.032C172.044 31.9893 171.98 31.8933 171.98 31.744C171.98 31.5733 172.055 31.456 172.204 31.392C172.354 31.3067 172.524 31.2213 172.716 31.136C173.036 31.0293 173.335 30.912 173.612 30.784C173.89 30.656 174.028 30.368 174.028 29.92V14.08C174.028 13.4613 173.922 12.9493 173.708 12.544C173.516 12.1173 173.154 11.8507 172.62 11.744C172.45 11.7013 172.364 11.552 172.364 11.296C172.364 11.0613 172.439 10.9227 172.588 10.88C173.143 10.7733 173.666 10.6347 174.156 10.464C174.647 10.2933 175.106 10.1227 175.532 9.952C175.959 9.78133 176.343 9.632 176.684 9.504C176.812 9.46133 176.908 9.44 176.972 9.44C177.036 9.44 177.079 9.472 177.1 9.536C177.143 9.6 177.164 9.664 177.164 9.728C177.164 9.89867 177.132 10.2613 177.068 10.816C177.004 11.3707 176.972 12.2027 176.972 13.312V29.92C176.972 30.3467 177.111 30.6347 177.388 30.784C177.666 30.912 177.964 31.0293 178.284 31.136C178.476 31.2 178.647 31.2747 178.796 31.36C178.946 31.4453 179.02 31.5733 179.02 31.744C179.02 31.872 178.946 31.9573 178.796 32C178.668 32.0427 178.53 32.064 178.38 32.064C177.975 32.064 177.623 32.0533 177.324 32.032C177.026 32.0107 176.738 31.9893 176.46 31.968C176.183 31.9467 175.852 31.936 175.468 31.936C175.106 31.936 174.786 31.9467 174.508 31.968C174.231 31.9893 173.954 32.0107 173.676 32.032C173.399 32.0747 173.047 32.096 172.62 32.096ZM184.456 32.448C183.773 32.448 183.122 32.352 182.504 32.16C181.906 31.968 181.384 31.6907 180.936 31.328C180.786 31.0507 180.68 30.6133 180.616 30.016C180.552 29.4187 180.52 28.8747 180.52 28.384C180.52 28.1707 180.68 28.064 181 28.064C181.128 28.064 181.234 28.096 181.32 28.16C181.426 28.2027 181.49 28.2667 181.512 28.352C181.832 29.3547 182.28 30.112 182.856 30.624C183.432 31.136 184.061 31.392 184.744 31.392C185.341 31.392 185.832 31.2 186.216 30.816C186.6 30.4107 186.792 29.9307 186.792 29.376C186.792 28.8 186.589 28.32 186.184 27.936C185.778 27.5307 185.16 27.072 184.328 26.56C183.645 26.1547 183.058 25.76 182.568 25.376C182.077 24.9707 181.704 24.5333 181.448 24.064C181.192 23.5733 181.064 23.0187 181.064 22.4C181.064 21.6533 181.245 20.992 181.608 20.416C181.992 19.84 182.525 19.3813 183.208 19.04C183.89 18.6987 184.712 18.528 185.672 18.528C186.354 18.528 186.93 18.6027 187.4 18.752C187.89 18.88 188.242 19.0187 188.456 19.168C188.626 19.4027 188.765 19.7867 188.872 20.32C189 20.8533 189.064 21.3867 189.064 21.92C189.064 22.0907 188.925 22.176 188.648 22.176C188.52 22.176 188.381 22.144 188.232 22.08C188.104 22.016 188.018 21.9307 187.976 21.824C187.698 21.0773 187.346 20.512 186.92 20.128C186.514 19.744 186.013 19.552 185.416 19.552C184.904 19.552 184.445 19.712 184.04 20.032C183.634 20.3307 183.432 20.768 183.432 21.344C183.432 21.8347 183.602 22.272 183.944 22.656C184.306 23.0187 184.872 23.4133 185.64 23.84C186.92 24.544 187.858 25.216 188.456 25.856C189.074 26.4747 189.384 27.3067 189.384 28.352C189.384 29.5893 188.936 30.5813 188.04 31.328C187.165 32.0747 185.97 32.448 184.456 32.448ZM203.906 32.48C202.882 32.48 201.944 32.2987 201.09 31.936C200.237 31.552 199.554 31.0187 199.042 30.336C198.552 29.632 198.306 28.8213 198.306 27.904C198.306 26.3467 198.786 25.0133 199.746 23.904C200.706 22.7733 201.965 21.8453 203.522 21.12L204.162 20.832L203.778 20.384C203.586 20.1493 203.32 19.8613 202.978 19.52C202.637 19.1573 202.328 18.7413 202.05 18.272C201.794 17.7813 201.666 17.2267 201.666 16.608C201.666 15.8613 201.89 15.2 202.338 14.624C202.808 14.048 203.416 13.6107 204.162 13.312C204.909 12.992 205.72 12.832 206.594 12.832C207.533 12.832 208.322 13.024 208.962 13.408C209.624 13.7707 210.125 14.24 210.466 14.816C210.808 15.392 210.978 15.9787 210.978 16.576C211 17.4507 210.701 18.176 210.082 18.752C209.485 19.328 208.664 19.808 207.618 20.192L207.074 20.384L207.554 20.928C208.301 21.696 208.994 22.4 209.634 23.04C210.274 23.68 210.904 24.416 211.522 25.248L211.97 25.824L212.482 25.28C212.973 24.7893 213.442 24.2453 213.89 23.648C214.36 23.0507 214.744 22.5067 215.042 22.016C215.341 21.504 215.49 21.152 215.49 20.96C215.49 20.768 215.405 20.576 215.234 20.384C215.064 20.192 214.85 20.064 214.594 20C214.509 19.9573 214.402 19.904 214.274 19.84C214.168 19.7547 214.114 19.6693 214.114 19.584C214.114 19.392 214.21 19.2747 214.402 19.232C214.616 19.1893 214.786 19.168 214.914 19.168C215.042 19.168 215.266 19.1893 215.586 19.232C215.906 19.2533 216.237 19.2853 216.578 19.328C216.941 19.3493 217.229 19.36 217.442 19.36C217.805 19.36 218.2 19.3173 218.626 19.232C219.053 19.1467 219.469 19.0613 219.874 18.976C220.28 18.8693 220.621 18.816 220.898 18.816C220.984 18.816 221.08 18.8587 221.186 18.944C221.293 19.008 221.346 19.072 221.346 19.136C221.346 19.2853 221.25 19.4347 221.058 19.584C220.866 19.7333 220.664 19.8187 220.45 19.84C219.896 19.904 219.405 20.064 218.978 20.32C218.552 20.5547 218.189 20.8107 217.89 21.088C217.741 21.1947 217.474 21.44 217.09 21.824C216.728 22.208 216.301 22.656 215.81 23.168C215.32 23.6587 214.84 24.1493 214.37 24.64C213.901 25.1307 213.485 25.5467 213.122 25.888C212.781 26.2293 212.568 26.4427 212.482 26.528L213.026 27.296C213.709 28.2133 214.37 28.96 215.01 29.536C215.65 30.112 216.354 30.4 217.122 30.4C217.528 30.4 217.944 30.368 218.37 30.304C218.797 30.2187 219.213 30.08 219.618 29.888C219.704 29.8453 219.8 29.8027 219.906 29.76C220.013 29.7173 220.12 29.696 220.226 29.696C220.376 29.696 220.482 29.728 220.546 29.792C220.632 29.8347 220.674 29.9413 220.674 30.112C220.674 30.3253 220.44 30.624 219.97 31.008C219.522 31.392 218.957 31.7333 218.274 32.032C217.592 32.3307 216.888 32.48 216.162 32.48C215.352 32.48 214.658 32.352 214.082 32.096C213.528 31.8613 213.016 31.4987 212.546 31.008C212.098 30.496 211.597 29.8453 211.042 29.056L210.594 28.384L210.402 28.576C209.741 29.3013 209.09 29.9627 208.45 30.56C207.81 31.1573 207.128 31.6267 206.402 31.968C205.677 32.3093 204.845 32.48 203.906 32.48ZM205.25 30.08C206.125 30.08 206.914 29.9093 207.618 29.568C208.344 29.2267 209.058 28.6933 209.762 27.968L210.018 27.712L209.602 27.104C209.026 26.272 208.344 25.44 207.554 24.608C206.786 23.776 205.976 22.8907 205.122 21.952L204.738 21.504L204.098 21.792C203.33 22.112 202.744 22.528 202.338 23.04C201.954 23.5307 201.698 24.064 201.57 24.64C201.442 25.216 201.378 25.792 201.378 26.368C201.378 27.4347 201.73 28.32 202.434 29.024C203.16 29.728 204.098 30.08 205.25 30.08ZM206.562 19.776L206.946 19.552C207.458 19.296 207.832 18.88 208.066 18.304C208.301 17.728 208.418 17.1307 208.418 16.512C208.418 15.808 208.258 15.1787 207.938 14.624C207.618 14.048 207.117 13.76 206.434 13.76C205.88 13.76 205.389 13.952 204.962 14.336C204.536 14.6987 204.322 15.1467 204.322 15.68C204.322 16.1707 204.365 16.5973 204.45 16.96C204.557 17.3227 204.738 17.6747 204.994 18.016C205.25 18.3573 205.592 18.752 206.018 19.2L206.562 19.776ZM249.134 32.672C248.366 32.672 247.673 32.5867 247.054 32.416C246.457 32.2667 245.913 32.032 245.422 31.712C244.953 31.392 244.526 30.9973 244.142 30.528C243.652 29.888 243.172 29.2693 242.702 28.672C242.254 28.0747 241.785 27.4027 241.294 26.656C240.804 25.888 240.228 24.96 239.566 23.872C239.289 23.3387 238.894 22.944 238.382 22.688C238.02 22.496 237.646 22.368 237.262 22.304C236.9 22.2187 236.601 22.1653 236.366 22.144C236.217 22.144 236.1 22.208 236.014 22.336C235.95 22.4427 235.918 22.592 235.918 22.784V28.576C235.918 29.2587 236.089 29.824 236.43 30.272C236.772 30.6987 237.358 30.9867 238.19 31.136C238.489 31.2 238.713 31.2747 238.862 31.36C239.033 31.4453 239.118 31.5733 239.118 31.744C239.118 31.872 239.044 31.968 238.894 32.032C238.745 32.096 238.542 32.128 238.286 32.128C237.753 32.128 237.273 32.1067 236.846 32.064C236.441 32.0427 236.046 32.0213 235.662 32C235.3 31.9573 234.916 31.936 234.51 31.936C233.998 31.936 233.508 31.9573 233.038 32C232.59 32.0213 232.132 32.0427 231.662 32.064C231.214 32.1067 230.713 32.128 230.158 32.128C229.924 32.128 229.721 32.096 229.55 32.032C229.401 31.9893 229.326 31.8933 229.326 31.744C229.326 31.4667 229.636 31.264 230.254 31.136C231.065 30.9867 231.641 30.752 231.982 30.432C232.345 30.112 232.526 29.5787 232.526 28.832V14.944C232.526 14.2187 232.484 13.6747 232.398 13.312C232.313 12.928 232.132 12.6613 231.854 12.512C231.598 12.3413 231.182 12.2133 230.606 12.128C230.265 12.0853 230.02 12.0107 229.87 11.904C229.721 11.776 229.646 11.6373 229.646 11.488C229.646 11.36 229.721 11.264 229.87 11.2C230.041 11.1147 230.244 11.072 230.478 11.072C231.097 11.072 231.577 11.0827 231.918 11.104C232.26 11.1253 232.58 11.1467 232.878 11.168C233.198 11.168 233.593 11.168 234.062 11.168C234.489 11.168 234.873 11.1573 235.214 11.136C235.556 11.0933 235.94 11.0613 236.366 11.04C236.793 10.9973 237.337 10.976 237.998 10.976C240.388 10.976 242.212 11.4133 243.47 12.288C244.75 13.1413 245.39 14.4427 245.39 16.192C245.39 17.152 245.188 17.9733 244.782 18.656C244.398 19.3387 243.908 19.904 243.31 20.352C242.713 20.8 242.116 21.152 241.518 21.408C241.433 21.4293 241.39 21.4827 241.39 21.568C241.412 21.632 241.444 21.7173 241.486 21.824C242.148 22.8053 242.777 23.744 243.374 24.64C243.993 25.5147 244.644 26.368 245.326 27.2C246.03 28.0107 246.83 28.832 247.726 29.664C248.324 30.2187 248.942 30.5493 249.582 30.656C250.244 30.7627 250.948 30.816 251.694 30.816C252.014 30.816 252.174 30.9653 252.174 31.264C252.174 31.6267 252.004 31.904 251.662 32.096C251.342 32.3093 250.948 32.4587 250.478 32.544C250.009 32.6293 249.561 32.672 249.134 32.672ZM237.454 21.312C238.372 21.312 239.15 21.1093 239.79 20.704C240.452 20.2773 240.953 19.7227 241.294 19.04C241.657 18.336 241.838 17.5787 241.838 16.768C241.838 15.8507 241.721 15.04 241.486 14.336C241.252 13.632 240.825 13.088 240.206 12.704C239.588 12.2987 238.702 12.096 237.55 12.096C236.953 12.096 236.548 12.3093 236.334 12.736C236.121 13.1413 236.004 13.92 235.982 15.072C235.961 15.584 235.94 16.2667 235.918 17.12C235.918 17.9733 235.918 18.9867 235.918 20.16C235.918 20.672 236.057 20.992 236.334 21.12C236.612 21.248 236.985 21.312 237.454 21.312ZM258.813 32.48C257.661 32.48 256.637 32.192 255.741 31.616C254.867 31.0187 254.173 30.1973 253.661 29.152C253.149 28.0853 252.893 26.8587 252.893 25.472C252.893 24.2133 253.181 23.0613 253.757 22.016C254.355 20.9707 255.144 20.1387 256.125 19.52C257.107 18.88 258.184 18.56 259.357 18.56C260.232 18.56 261.011 18.7413 261.693 19.104C262.397 19.4453 262.941 19.936 263.325 20.576C263.731 21.1947 263.933 21.9093 263.933 22.72C263.933 23.424 263.603 23.776 262.941 23.776H256.317C256.019 23.776 255.805 23.8613 255.677 24.032C255.549 24.2027 255.485 24.512 255.485 24.96C255.485 25.8987 255.699 26.7627 256.125 27.552C256.552 28.32 257.117 28.9387 257.821 29.408C258.525 29.8773 259.304 30.112 260.157 30.112C260.797 30.112 261.373 29.9947 261.885 29.76C262.419 29.504 262.909 29.152 263.357 28.704C263.421 28.6187 263.475 28.5547 263.517 28.512C263.581 28.4693 263.645 28.448 263.709 28.448C263.901 28.448 263.997 28.5653 263.997 28.8C263.997 29.1413 263.848 29.5467 263.549 30.016C263.251 30.464 262.867 30.88 262.397 31.264C261.949 31.6267 261.416 31.9147 260.797 32.128C260.2 32.3627 259.539 32.48 258.813 32.48ZM256.349 22.688H258.909C259.464 22.688 259.901 22.6773 260.221 22.656C260.541 22.6347 260.84 22.592 261.117 22.528C261.224 22.4853 261.299 22.4 261.341 22.272C261.384 22.1227 261.405 21.9413 261.405 21.728C261.405 21.1307 261.16 20.6293 260.669 20.224C260.179 19.7973 259.592 19.584 258.909 19.584C258.44 19.584 257.971 19.7227 257.501 20C257.053 20.2773 256.68 20.6293 256.381 21.056C256.083 21.4613 255.944 21.8773 255.965 22.304C255.965 22.56 256.093 22.688 256.349 22.688ZM271.407 32.48C270.319 32.48 269.338 32.2027 268.463 31.648C267.588 31.072 266.895 30.2933 266.383 29.312C265.871 28.3307 265.615 27.232 265.615 26.016C265.615 24.6293 265.924 23.3707 266.543 22.24C267.162 21.1093 267.994 20.2133 269.039 19.552C270.084 18.8907 271.236 18.56 272.495 18.56C274.01 18.56 275.311 18.9973 276.399 19.872C276.634 20.0853 276.751 20.288 276.751 20.48C276.751 20.6293 276.666 20.8213 276.495 21.056C276.346 21.2693 276.154 21.4613 275.919 21.632C275.706 21.7813 275.503 21.856 275.311 21.856C275.183 21.856 275.044 21.8133 274.895 21.728C274.767 21.6427 274.639 21.5467 274.511 21.44C273.999 21.0347 273.455 20.6827 272.879 20.384C272.324 20.064 271.844 19.904 271.439 19.904C270.479 19.904 269.711 20.3413 269.135 21.216C268.58 22.0693 268.303 23.2747 268.303 24.832C268.303 25.856 268.495 26.7627 268.879 27.552C269.284 28.3413 269.828 28.96 270.511 29.408C271.215 29.856 272.015 30.08 272.911 30.08C273.53 30.08 274.063 29.984 274.511 29.792C274.98 29.5787 275.471 29.2267 275.983 28.736C276.047 28.6933 276.111 28.6507 276.175 28.608C276.26 28.5653 276.335 28.544 276.399 28.544C276.634 28.544 276.751 28.704 276.751 29.024C276.751 29.1307 276.719 29.2693 276.655 29.44C276.591 29.5893 276.495 29.76 276.367 29.952C276.068 30.3787 275.674 30.7947 275.183 31.2C274.692 31.584 274.127 31.8933 273.487 32.128C272.847 32.3627 272.154 32.48 271.407 32.48ZM284.768 32.448C283.552 32.448 282.443 32.1707 281.44 31.616C280.459 31.04 279.68 30.2613 279.104 29.28C278.528 28.2987 278.24 27.1787 278.24 25.92C278.24 24.9813 278.421 24.0747 278.784 23.2C279.147 22.3253 279.659 21.536 280.32 20.832C280.981 20.128 281.749 19.5733 282.624 19.168C283.499 18.7413 284.437 18.528 285.44 18.528C286.699 18.528 287.84 18.8373 288.864 19.456C289.888 20.0533 290.699 20.8427 291.296 21.824C291.893 22.8053 292.192 23.8827 292.192 25.056C292.192 26.336 291.915 27.5413 291.36 28.672C290.805 29.8027 289.973 30.72 288.864 31.424C287.776 32.1067 286.411 32.448 284.768 32.448ZM285.44 31.328C286.059 31.328 286.613 31.2107 287.104 30.976C287.595 30.72 287.979 30.336 288.256 29.824C288.512 29.3333 288.683 28.736 288.768 28.032C288.875 27.3067 288.928 26.5707 288.928 25.824C288.928 24.7573 288.757 23.7547 288.416 22.816C288.075 21.8773 287.605 21.12 287.008 20.544C286.411 19.968 285.707 19.68 284.896 19.68C284.405 19.68 283.957 19.7653 283.552 19.936C283.168 20.0853 282.816 20.352 282.496 20.736C282.091 21.2267 281.824 21.8667 281.696 22.656C281.568 23.424 281.504 24.2667 281.504 25.184C281.504 26.208 281.675 27.1893 282.016 28.128C282.357 29.0667 282.816 29.8347 283.392 30.432C283.989 31.0293 284.672 31.328 285.44 31.328ZM299.65 41.28C297.751 41.28 296.247 40.9387 295.138 40.256C294.05 39.5733 293.506 38.656 293.506 37.504C293.506 36.9067 293.591 36.416 293.762 36.032C293.932 35.648 294.22 35.296 294.626 34.976C294.967 34.72 295.362 34.4107 295.81 34.048C296.279 33.6853 296.738 33.3333 297.186 32.992L298.626 33.216C297.708 33.7707 297.058 34.3147 296.674 34.848C296.29 35.4027 296.098 36.064 296.098 36.832C296.098 37.7067 296.471 38.432 297.218 39.008C297.964 39.584 298.892 39.872 300.002 39.872C301.346 39.872 302.37 39.584 303.074 39.008C303.564 38.624 303.938 38.1333 304.194 37.536C304.471 36.9387 304.61 36.32 304.61 35.68C304.61 35.2533 304.46 34.9013 304.162 34.624C303.863 34.3467 303.383 34.1227 302.722 33.952C302.06 33.7813 301.164 33.6533 300.034 33.568C297.964 33.3973 296.514 33.0773 295.682 32.608C294.85 32.1387 294.434 31.4667 294.434 30.592C294.434 30.3787 294.487 30.176 294.594 29.984C294.722 29.792 294.924 29.5893 295.202 29.376C295.628 29.0347 295.97 28.768 296.226 28.576C296.482 28.384 296.674 28.224 296.802 28.096C296.951 27.9467 297.079 27.776 297.186 27.584L298.434 28.128C297.986 28.2987 297.612 28.5227 297.314 28.8C297.015 29.0773 296.866 29.3227 296.866 29.536C296.866 29.8133 297.015 30.0587 297.314 30.272C297.612 30.464 298.082 30.6133 298.722 30.72C299.362 30.8267 300.172 30.9227 301.154 31.008C303.244 31.136 304.78 31.4667 305.762 32C306.743 32.5333 307.234 33.2907 307.234 34.272C307.234 35.1253 307.01 35.9573 306.562 36.768C306.135 37.6 305.559 38.3573 304.834 39.04C304.108 39.7227 303.298 40.2667 302.402 40.672C301.506 41.0773 300.588 41.28 299.65 41.28ZM300.066 27.488C300.834 27.488 301.452 27.0933 301.922 26.304C302.412 25.5147 302.658 24.5013 302.658 23.264C302.658 22.5813 302.53 21.9627 302.274 21.408C302.018 20.8533 301.676 20.416 301.25 20.096C300.844 19.7547 300.386 19.584 299.874 19.584C299.404 19.584 298.967 19.7547 298.562 20.096C298.156 20.4373 297.836 20.896 297.602 21.472C297.367 22.0267 297.25 22.6453 297.25 23.328C297.25 24.096 297.367 24.8 297.602 25.44C297.858 26.0587 298.199 26.56 298.626 26.944C299.074 27.3067 299.554 27.488 300.066 27.488ZM299.81 28.704C298.914 28.704 298.05 28.48 297.218 28.032C296.386 27.584 295.703 26.9867 295.17 26.24C294.636 25.472 294.37 24.6293 294.37 23.712C294.37 22.6667 294.647 21.76 295.202 20.992C295.756 20.2027 296.482 19.5947 297.378 19.168C298.295 18.72 299.255 18.496 300.258 18.496C300.898 18.496 301.463 18.5813 301.954 18.752C302.466 18.9013 302.988 19.0293 303.522 19.136C304.012 19.264 304.418 19.3493 304.738 19.392C305.079 19.4133 305.442 19.424 305.826 19.424C306.103 19.424 306.423 19.4133 306.786 19.392C307.148 19.3493 307.415 19.328 307.586 19.328C307.884 19.328 308.034 19.52 308.034 19.904C308.034 20.1813 307.916 20.448 307.682 20.704C307.554 20.832 307.447 20.896 307.362 20.896H306.498C305.943 20.896 305.612 20.9813 305.506 21.152C305.463 21.216 305.42 21.312 305.378 21.44C305.356 21.5467 305.335 21.696 305.314 21.888C305.314 22.08 305.314 22.3253 305.314 22.624C305.314 23.7333 305.058 24.7467 304.546 25.664C304.034 26.5813 303.362 27.3173 302.53 27.872C301.719 28.4267 300.812 28.704 299.81 28.704ZM309.218 32.096C309.047 32.096 308.898 32.064 308.77 32C308.642 31.936 308.578 31.84 308.578 31.712C308.578 31.5413 308.642 31.424 308.77 31.36C308.919 31.2747 309.1 31.2 309.314 31.136C309.634 31.0507 309.932 30.9333 310.21 30.784C310.487 30.6347 310.626 30.3467 310.626 29.92V22.88C310.626 22.3467 310.562 21.8987 310.434 21.536C310.327 21.152 310.018 20.896 309.506 20.768C309.42 20.7467 309.346 20.704 309.282 20.64C309.218 20.5547 309.186 20.448 309.186 20.32C309.186 20.0427 309.282 19.8933 309.474 19.872C310.22 19.68 310.892 19.4453 311.49 19.168C312.108 18.8907 312.674 18.5813 313.186 18.24C313.25 18.1973 313.314 18.1547 313.378 18.112C313.463 18.0693 313.538 18.048 313.602 18.048C313.687 18.048 313.74 18.08 313.762 18.144C313.804 18.1867 313.826 18.2507 313.826 18.336C313.826 18.4853 313.794 18.7733 313.73 19.2C313.687 19.6267 313.666 19.9893 313.666 20.288C313.666 20.3733 313.666 20.4587 313.666 20.544C313.687 20.6293 313.708 20.6827 313.73 20.704C314.476 20 315.244 19.4667 316.034 19.104C316.844 18.7413 317.751 18.56 318.754 18.56C319.82 18.56 320.706 18.976 321.41 19.808C322.114 20.64 322.466 21.7173 322.466 23.04V29.952C322.466 30.3787 322.604 30.656 322.882 30.784C323.18 30.912 323.49 31.0293 323.81 31.136C323.98 31.2 324.14 31.2747 324.29 31.36C324.439 31.4453 324.514 31.5733 324.514 31.744C324.514 31.8933 324.439 31.9893 324.29 32.032C324.162 32.0747 324.034 32.096 323.906 32.096C323.479 32.096 323.116 32.0747 322.818 32.032C322.54 32.0107 322.263 31.9893 321.986 31.968C321.73 31.9467 321.41 31.936 321.026 31.936C320.663 31.936 320.343 31.9467 320.066 31.968C319.788 31.9893 319.5 32.0107 319.202 32.032C318.924 32.0747 318.572 32.096 318.146 32.096C318.039 32.096 317.911 32.0747 317.762 32.032C317.612 31.9893 317.538 31.8933 317.538 31.744C317.538 31.5733 317.612 31.4453 317.762 31.36C317.911 31.2747 318.071 31.2 318.242 31.136C318.562 31.0293 318.86 30.912 319.138 30.784C319.415 30.656 319.554 30.3787 319.554 29.952V23.328C319.554 22.432 319.308 21.7387 318.818 21.248C318.348 20.7573 317.73 20.5013 316.962 20.48C316.3 20.48 315.714 20.5867 315.202 20.8C314.711 20.992 314.252 21.2587 313.826 21.6C313.74 21.6853 313.676 21.792 313.634 21.92C313.591 22.048 313.57 22.1653 313.57 22.272V29.952C313.57 30.3787 313.708 30.6667 313.986 30.816C314.263 30.944 314.551 31.0507 314.85 31.136C315.319 31.2853 315.554 31.4773 315.554 31.712C315.554 31.84 315.5 31.936 315.394 32C315.287 32.064 315.138 32.096 314.946 32.096C314.519 32.096 314.156 32.0747 313.858 32.032C313.58 32.0107 313.314 31.9893 313.058 31.968C312.823 31.9467 312.514 31.936 312.13 31.936C311.767 31.936 311.447 31.9467 311.17 31.968C310.892 31.9893 310.604 32.0107 310.306 32.032C310.007 32.0747 309.644 32.096 309.218 32.096ZM326.498 32.096C326.328 32.096 326.178 32.064 326.05 32C325.944 31.936 325.89 31.84 325.89 31.712C325.89 31.5413 325.954 31.424 326.082 31.36C326.232 31.2747 326.392 31.2107 326.562 31.168C327.053 31.04 327.416 30.9013 327.65 30.752C327.885 30.6027 328.002 30.336 328.002 29.952V23.04C328.002 22.4 327.896 21.888 327.682 21.504C327.469 21.0987 327.096 20.8533 326.562 20.768C326.456 20.7467 326.37 20.704 326.306 20.64C326.264 20.5547 326.242 20.4373 326.242 20.288C326.242 20.032 326.338 19.8933 326.53 19.872C327.469 19.6587 328.269 19.3813 328.93 19.04C329.613 18.6773 330.125 18.3893 330.466 18.176C330.701 18.0267 330.872 17.952 330.978 17.952C331.149 17.952 331.234 18.0373 331.234 18.208C331.234 18.4427 331.202 18.816 331.138 19.328C331.096 19.84 331.042 20.3947 330.978 20.992C330.936 21.5893 330.914 22.144 330.914 22.656V29.952C330.914 30.2933 331.032 30.5493 331.266 30.72C331.501 30.8907 331.864 31.04 332.354 31.168C332.525 31.2107 332.674 31.2747 332.802 31.36C332.952 31.424 333.026 31.5413 333.026 31.712C333.026 31.968 332.834 32.096 332.45 32.096C332.045 32.096 331.682 32.0747 331.362 32.032C331.042 32.0107 330.733 31.9893 330.434 31.968C330.157 31.9467 329.826 31.936 329.442 31.936C329.08 31.936 328.749 31.9467 328.45 31.968C328.152 31.9893 327.853 32.0107 327.554 32.032C327.277 32.0747 326.925 32.096 326.498 32.096ZM329.378 15.744C328.845 15.744 328.386 15.5627 328.002 15.2C327.64 14.816 327.458 14.3573 327.458 13.824C327.458 13.2693 327.64 12.8107 328.002 12.448C328.386 12.064 328.845 11.872 329.378 11.872C329.933 11.872 330.402 12.064 330.786 12.448C331.17 12.8107 331.362 13.2693 331.362 13.824C331.362 14.3573 331.17 14.816 330.786 15.2C330.402 15.5627 329.933 15.744 329.378 15.744ZM339.961 32.448C338.787 32.448 337.881 32.1173 337.241 31.456C336.622 30.7947 336.313 29.824 336.313 28.544V21.12C336.313 20.9493 336.238 20.832 336.089 20.768C335.961 20.6827 335.694 20.64 335.289 20.64H335.033C334.905 20.64 334.798 20.5547 334.713 20.384C334.627 20.192 334.585 20.0107 334.585 19.84C334.585 19.7973 334.606 19.744 334.649 19.68C334.713 19.5947 334.766 19.5413 334.809 19.52C335.257 19.2427 335.694 18.944 336.121 18.624C336.569 18.2827 336.974 17.9413 337.337 17.6C337.721 17.2587 338.041 16.96 338.297 16.704C338.425 16.5973 338.531 16.5013 338.617 16.416C338.702 16.3307 338.809 16.288 338.937 16.288C339.065 16.288 339.171 16.32 339.257 16.384C339.363 16.448 339.406 16.576 339.385 16.768L339.193 18.336C339.171 18.592 339.225 18.7627 339.353 18.848C339.502 18.9333 339.705 18.976 339.961 18.976H343.673C343.737 18.976 343.801 19.0507 343.865 19.2C343.929 19.3493 343.961 19.4987 343.961 19.648C343.961 19.8827 343.929 20.1067 343.865 20.32C343.801 20.5333 343.726 20.64 343.641 20.64H340.537C340.003 20.64 339.651 20.6933 339.481 20.8C339.331 20.9067 339.257 21.152 339.257 21.536V27.744C339.257 28.64 339.438 29.3333 339.801 29.824C340.163 30.2933 340.675 30.528 341.337 30.528C341.955 30.528 342.425 30.4747 342.745 30.368C343.065 30.2613 343.353 30.1333 343.609 29.984C343.673 29.9413 343.726 29.92 343.769 29.92C343.875 29.92 343.939 29.9733 343.961 30.08C344.003 30.1867 344.025 30.304 344.025 30.432C344.025 30.56 343.833 30.784 343.449 31.104C343.065 31.424 342.563 31.7227 341.945 32C341.326 32.2987 340.665 32.448 339.961 32.448ZM345.623 32.096C345.453 32.096 345.303 32.064 345.175 32C345.069 31.936 345.015 31.84 345.015 31.712C345.015 31.5413 345.079 31.424 345.207 31.36C345.357 31.2747 345.517 31.2107 345.687 31.168C346.178 31.04 346.541 30.9013 346.775 30.752C347.01 30.6027 347.127 30.336 347.127 29.952V23.04C347.127 22.4 347.021 21.888 346.807 21.504C346.594 21.0987 346.221 20.8533 345.687 20.768C345.581 20.7467 345.495 20.704 345.431 20.64C345.389 20.5547 345.367 20.4373 345.367 20.288C345.367 20.032 345.463 19.8933 345.655 19.872C346.594 19.6587 347.394 19.3813 348.055 19.04C348.738 18.6773 349.25 18.3893 349.591 18.176C349.826 18.0267 349.997 17.952 350.103 17.952C350.274 17.952 350.359 18.0373 350.359 18.208C350.359 18.4427 350.327 18.816 350.263 19.328C350.221 19.84 350.167 20.3947 350.103 20.992C350.061 21.5893 350.039 22.144 350.039 22.656V29.952C350.039 30.2933 350.157 30.5493 350.391 30.72C350.626 30.8907 350.989 31.04 351.479 31.168C351.65 31.2107 351.799 31.2747 351.927 31.36C352.077 31.424 352.151 31.5413 352.151 31.712C352.151 31.968 351.959 32.096 351.575 32.096C351.17 32.096 350.807 32.0747 350.487 32.032C350.167 32.0107 349.858 31.9893 349.559 31.968C349.282 31.9467 348.951 31.936 348.567 31.936C348.205 31.936 347.874 31.9467 347.575 31.968C347.277 31.9893 346.978 32.0107 346.679 32.032C346.402 32.0747 346.05 32.096 345.623 32.096ZM348.503 15.744C347.97 15.744 347.511 15.5627 347.127 15.2C346.765 14.816 346.583 14.3573 346.583 13.824C346.583 13.2693 346.765 12.8107 347.127 12.448C347.511 12.064 347.97 11.872 348.503 11.872C349.058 11.872 349.527 12.064 349.911 12.448C350.295 12.8107 350.487 13.2693 350.487 13.824C350.487 14.3573 350.295 14.816 349.911 15.2C349.527 15.5627 349.058 15.744 348.503 15.744ZM360.206 32.448C358.99 32.448 357.88 32.1707 356.878 31.616C355.896 31.04 355.118 30.2613 354.542 29.28C353.966 28.2987 353.678 27.1787 353.678 25.92C353.678 24.9813 353.859 24.0747 354.222 23.2C354.584 22.3253 355.096 21.536 355.758 20.832C356.419 20.128 357.187 19.5733 358.062 19.168C358.936 18.7413 359.875 18.528 360.878 18.528C362.136 18.528 363.278 18.8373 364.302 19.456C365.326 20.0533 366.136 20.8427 366.734 21.824C367.331 22.8053 367.63 23.8827 367.63 25.056C367.63 26.336 367.352 27.5413 366.798 28.672C366.243 29.8027 365.411 30.72 364.302 31.424C363.214 32.1067 361.848 32.448 360.206 32.448ZM360.878 31.328C361.496 31.328 362.051 31.2107 362.542 30.976C363.032 30.72 363.416 30.336 363.694 29.824C363.95 29.3333 364.12 28.736 364.206 28.032C364.312 27.3067 364.366 26.5707 364.366 25.824C364.366 24.7573 364.195 23.7547 363.854 22.816C363.512 21.8773 363.043 21.12 362.446 20.544C361.848 19.968 361.144 19.68 360.334 19.68C359.843 19.68 359.395 19.7653 358.99 19.936C358.606 20.0853 358.254 20.352 357.934 20.736C357.528 21.2267 357.262 21.8667 357.134 22.656C357.006 23.424 356.942 24.2667 356.942 25.184C356.942 26.208 357.112 27.1893 357.454 28.128C357.795 29.0667 358.254 29.8347 358.83 30.432C359.427 31.0293 360.11 31.328 360.878 31.328ZM369.999 32.096C369.828 32.096 369.679 32.064 369.551 32C369.423 31.936 369.359 31.84 369.359 31.712C369.359 31.5413 369.423 31.424 369.551 31.36C369.7 31.2747 369.882 31.2 370.095 31.136C370.415 31.0507 370.714 30.9333 370.991 30.784C371.268 30.6347 371.407 30.3467 371.407 29.92V22.88C371.407 22.3467 371.343 21.8987 371.215 21.536C371.108 21.152 370.799 20.896 370.287 20.768C370.202 20.7467 370.127 20.704 370.063 20.64C369.999 20.5547 369.967 20.448 369.967 20.32C369.967 20.0427 370.063 19.8933 370.255 19.872C371.002 19.68 371.674 19.4453 372.271 19.168C372.89 18.8907 373.455 18.5813 373.967 18.24C374.031 18.1973 374.095 18.1547 374.159 18.112C374.244 18.0693 374.319 18.048 374.383 18.048C374.468 18.048 374.522 18.08 374.543 18.144C374.586 18.1867 374.607 18.2507 374.607 18.336C374.607 18.4853 374.575 18.7733 374.511 19.2C374.468 19.6267 374.447 19.9893 374.447 20.288C374.447 20.3733 374.447 20.4587 374.447 20.544C374.468 20.6293 374.49 20.6827 374.511 20.704C375.258 20 376.026 19.4667 376.815 19.104C377.626 18.7413 378.532 18.56 379.535 18.56C380.602 18.56 381.487 18.976 382.191 19.808C382.895 20.64 383.247 21.7173 383.247 23.04V29.952C383.247 30.3787 383.386 30.656 383.663 30.784C383.962 30.912 384.271 31.0293 384.591 31.136C384.762 31.2 384.922 31.2747 385.071 31.36C385.22 31.4453 385.295 31.5733 385.295 31.744C385.295 31.8933 385.22 31.9893 385.071 32.032C384.943 32.0747 384.815 32.096 384.687 32.096C384.26 32.096 383.898 32.0747 383.599 32.032C383.322 32.0107 383.044 31.9893 382.767 31.968C382.511 31.9467 382.191 31.936 381.807 31.936C381.444 31.936 381.124 31.9467 380.847 31.968C380.57 31.9893 380.282 32.0107 379.983 32.032C379.706 32.0747 379.354 32.096 378.927 32.096C378.82 32.096 378.692 32.0747 378.543 32.032C378.394 31.9893 378.319 31.8933 378.319 31.744C378.319 31.5733 378.394 31.4453 378.543 31.36C378.692 31.2747 378.852 31.2 379.023 31.136C379.343 31.0293 379.642 30.912 379.919 30.784C380.196 30.656 380.335 30.3787 380.335 29.952V23.328C380.335 22.432 380.09 21.7387 379.599 21.248C379.13 20.7573 378.511 20.5013 377.743 20.48C377.082 20.48 376.495 20.5867 375.983 20.8C375.492 20.992 375.034 21.2587 374.607 21.6C374.522 21.6853 374.458 21.792 374.415 21.92C374.372 22.048 374.351 22.1653 374.351 22.272V29.952C374.351 30.3787 374.49 30.6667 374.767 30.816C375.044 30.944 375.332 31.0507 375.631 31.136C376.1 31.2853 376.335 31.4773 376.335 31.712C376.335 31.84 376.282 31.936 376.175 32C376.068 32.064 375.919 32.096 375.727 32.096C375.3 32.096 374.938 32.0747 374.639 32.032C374.362 32.0107 374.095 31.9893 373.839 31.968C373.604 31.9467 373.295 31.936 372.911 31.936C372.548 31.936 372.228 31.9467 371.951 31.968C371.674 31.9893 371.386 32.0107 371.087 32.032C370.788 32.0747 370.426 32.096 369.999 32.096ZM390.8 32.448C390.117 32.448 389.466 32.352 388.848 32.16C388.25 31.968 387.728 31.6907 387.28 31.328C387.13 31.0507 387.024 30.6133 386.96 30.016C386.896 29.4187 386.864 28.8747 386.864 28.384C386.864 28.1707 387.024 28.064 387.344 28.064C387.472 28.064 387.578 28.096 387.664 28.16C387.77 28.2027 387.834 28.2667 387.856 28.352C388.176 29.3547 388.624 30.112 389.2 30.624C389.776 31.136 390.405 31.392 391.088 31.392C391.685 31.392 392.176 31.2 392.56 30.816C392.944 30.4107 393.136 29.9307 393.136 29.376C393.136 28.8 392.933 28.32 392.528 27.936C392.122 27.5307 391.504 27.072 390.672 26.56C389.989 26.1547 389.402 25.76 388.912 25.376C388.421 24.9707 388.048 24.5333 387.792 24.064C387.536 23.5733 387.408 23.0187 387.408 22.4C387.408 21.6533 387.589 20.992 387.952 20.416C388.336 19.84 388.869 19.3813 389.552 19.04C390.234 18.6987 391.056 18.528 392.016 18.528C392.698 18.528 393.274 18.6027 393.744 18.752C394.234 18.88 394.586 19.0187 394.8 19.168C394.97 19.4027 395.109 19.7867 395.216 20.32C395.344 20.8533 395.408 21.3867 395.408 21.92C395.408 22.0907 395.269 22.176 394.992 22.176C394.864 22.176 394.725 22.144 394.576 22.08C394.448 22.016 394.362 21.9307 394.32 21.824C394.042 21.0773 393.69 20.512 393.264 20.128C392.858 19.744 392.357 19.552 391.76 19.552C391.248 19.552 390.789 19.712 390.384 20.032C389.978 20.3307 389.776 20.768 389.776 21.344C389.776 21.8347 389.946 22.272 390.288 22.656C390.65 23.0187 391.216 23.4133 391.984 23.84C393.264 24.544 394.202 25.216 394.8 25.856C395.418 26.4747 395.728 27.3067 395.728 28.352C395.728 29.5893 395.28 30.5813 394.384 31.328C393.509 32.0747 392.314 32.448 390.8 32.448Z" fill="black"/>
<mask id="mask0_244_13219" style="mask-type:luminance" maskUnits="userSpaceOnUse" x="416" y="15" width="42" height="17">
<path d="M457.627 15H416.627V32H457.627V15Z" fill="white"/>
</mask>
<g mask="url(#mask0_244_13219)">
<path d="M445.711 26.6171C445.978 27.1831 446.288 27.7411 446.689 28.2201C447.094 28.6921 447.543 29.1361 448.061 29.4701C449.083 30.1679 450.28 30.5653 451.516 30.6171C452.742 30.6491 454.012 30.3301 455.066 29.5641C456.128 28.8141 456.902 27.6311 457.296 26.3381C458.095 23.7251 457.42 20.7781 455.84 18.6781C455.044 17.6261 454.023 16.7651 452.866 16.2081C452.282 15.9401 451.677 15.7111 451.047 15.6101C450.733 15.5391 450.427 15.5271 450.117 15.4841C449.806 15.4721 449.496 15.4441 449.186 15.4531C446.701 15.4881 444.311 16.3091 442.162 17.5031C440.009 18.7231 438.108 20.3961 436.437 22.2161C434.744 24.0191 433.194 25.9371 431.453 27.6261C429.735 29.3401 427.753 30.7471 425.692 31.9961C426.787 31.4896 427.846 30.9069 428.859 30.2521C429.891 29.595 430.875 28.8648 431.803 28.0671C433.661 26.4471 435.313 24.6011 437.032 22.8801C437.88 22.0256 438.771 21.2149 439.702 20.4511C440.62 19.7112 441.604 19.0561 442.64 18.4941C444.69 17.3861 446.938 16.6391 449.197 16.6281C449.477 16.6161 449.758 16.6431 450.039 16.6511C450.317 16.6911 450.605 16.6981 450.868 16.7571C451.408 16.8401 451.929 17.0321 452.433 17.2571C452.937 17.4881 453.403 17.8071 453.849 18.1571C454.286 18.5252 454.686 18.9355 455.042 19.3821C456.476 21.1901 457.089 23.7721 456.483 26.0621C456.18 27.2021 455.545 28.2281 454.659 28.9321C454.217 29.2821 453.717 29.5601 453.185 29.7411C452.647 29.9174 452.087 30.018 451.521 30.0401C450.361 30.0747 449.214 29.7833 448.211 29.1991C447.19 28.6091 446.329 27.7011 445.716 26.6131L445.711 26.6171ZM442.507 15.0871C441.975 14.9371 441.387 14.9931 440.847 15.1621C440.304 15.3271 439.793 15.5901 439.304 15.8621C438.315 16.4221 437.379 17.07 436.506 17.7981C435.619 18.5181 434.798 19.3151 433.985 20.1171C433.182 20.9271 432.408 21.7601 431.624 22.5731C430.854 23.4031 430.077 24.2081 429.27 24.9741C428.477 25.7469 427.643 26.4763 426.771 27.1591C425.031 28.4991 423.108 29.5761 420.959 30.0871C423.17 30.0711 425.352 29.1791 427.242 27.9251C428.202 27.3081 429.084 26.5731 429.946 25.8191C430.796 25.0531 431.598 24.2311 432.386 23.4101L434.7 20.9151C435.459 20.0903 436.24 19.2857 437.042 18.5021C437.838 17.7299 438.684 17.0104 439.574 16.3481C440.004 16.009 440.465 15.7104 440.95 15.4561C441.432 15.2161 441.953 15.0521 442.504 15.0761L442.508 15.0861L442.507 15.0871ZM437.147 15.0551C436.191 15.0941 435.22 15.2591 434.297 15.6451C433.37 16.0331 432.538 16.6381 431.776 17.2631C430.995 17.8681 430.258 18.5801 429.561 19.2871C428.864 20.0021 428.207 20.7371 427.521 21.4251C426.186 22.8321 424.701 24.0071 423.048 24.9301C421.398 25.8581 419.611 26.5061 417.736 26.9381C419.655 26.9981 421.606 26.5811 423.406 25.7631C424.314 25.3661 425.176 24.8521 425.996 24.2701C426.814 23.6771 427.569 22.9891 428.273 22.2741C429.67 20.8201 430.893 19.2911 432.313 17.9711C433.02 17.2951 433.713 16.6421 434.523 16.1631C435.323 15.6631 436.227 15.3491 437.146 15.0511V15.0551H437.147ZM430.981 15.0541C430.28 15.0151 429.561 15.1921 428.897 15.4981C428.569 15.6551 428.253 15.8338 427.949 16.0331L427.059 16.6071C426.449 16.9961 425.891 17.4591 425.329 17.9111C424.778 18.3711 424.252 18.8541 423.716 19.3111C422.658 20.2411 421.618 21.1451 420.45 21.8291C419.29 22.5211 418.024 23.0161 416.623 23.0991C417.984 23.5151 419.502 23.2521 420.815 22.6591C422.151 22.0771 423.337 21.1731 424.409 20.2181C425.482 19.2551 426.485 18.2611 427.539 17.3581C427.799 17.1371 428.099 16.8931 428.349 16.6621C428.613 16.4261 428.875 16.2061 429.149 16.0021C429.699 15.5849 430.316 15.2643 430.973 15.0541H430.981Z" fill="#202860"/>
<path d="M915.127 56H557.101C552.244 56 547.553 54.2327 543.904 51.028L517.648 27.972C513.999 24.7673 509.308 23 504.451 23H456.627" stroke="url(#paint0_linear_244_13219)"/>
<mask id="mask1_244_13219" style="mask-type:luminance" maskUnits="userSpaceOnUse" x="416" y="15" width="42" height="17">
<path d="M457.627 15H416.627V32H457.627V15Z" fill="white"/>
</mask>
<g mask="url(#mask1_244_13219)">
<path d="M445.711 26.6171C445.978 27.1831 446.288 27.7411 446.689 28.2201C447.094 28.6921 447.543 29.1361 448.061 29.4701C449.083 30.1679 450.28 30.5653 451.516 30.6171C452.742 30.6491 454.012 30.3301 455.066 29.5641C456.128 28.8141 456.902 27.6311 457.296 26.3381C458.095 23.7251 457.42 20.7781 455.84 18.6781C455.044 17.6261 454.023 16.7651 452.866 16.2081C452.282 15.9401 451.677 15.7111 451.047 15.6101C450.733 15.5391 450.427 15.5271 450.117 15.4841C449.806 15.4721 449.496 15.4441 449.186 15.4531C446.701 15.4881 444.311 16.3091 442.162 17.5031C440.009 18.7231 438.108 20.3961 436.437 22.2161C434.744 24.0191 433.194 25.9371 431.453 27.6261C429.735 29.3401 427.753 30.7471 425.692 31.9961C426.787 31.4896 427.846 30.9069 428.859 30.2521C429.891 29.595 430.875 28.8648 431.803 28.0671C433.661 26.4471 435.313 24.6011 437.032 22.8801C437.88 22.0256 438.771 21.2149 439.702 20.4511C440.62 19.7112 441.604 19.0561 442.64 18.4941C444.69 17.3861 446.938 16.6391 449.197 16.6281C449.477 16.6161 449.758 16.6431 450.039 16.6511C450.317 16.6911 450.605 16.6981 450.868 16.7571C451.408 16.8401 451.929 17.0321 452.433 17.2571C452.937 17.4881 453.403 17.8071 453.849 18.1571C454.286 18.5252 454.686 18.9355 455.042 19.3821C456.476 21.1901 457.089 23.7721 456.483 26.0621C456.18 27.2021 455.545 28.2281 454.659 28.9321C454.217 29.2821 453.717 29.5601 453.185 29.7411C452.647 29.9174 452.087 30.018 451.521 30.0401C450.361 30.0747 449.214 29.7833 448.211 29.1991C447.19 28.6091 446.329 27.7011 445.716 26.6131L445.711 26.6171ZM442.507 15.0871C441.975 14.9371 441.387 14.9931 440.847 15.1621C440.304 15.3271 439.793 15.5901 439.304 15.8621C438.315 16.4221 437.379 17.07 436.506 17.7981C435.619 18.5181 434.798 19.3151 433.985 20.1171C433.182 20.9271 432.408 21.7601 431.624 22.5731C430.854 23.4031 430.077 24.2081 429.27 24.9741C428.477 25.7469 427.643 26.4763 426.771 27.1591C425.031 28.4991 423.108 29.5761 420.959 30.0871C423.17 30.0711 425.352 29.1791 427.242 27.9251C428.202 27.3081 429.084 26.5731 429.946 25.8191C430.796 25.0531 431.598 24.2311 432.386 23.4101L434.7 20.9151C435.459 20.0903 436.24 19.2857 437.042 18.5021C437.838 17.7299 438.684 17.0104 439.574 16.3481C440.004 16.009 440.465 15.7104 440.95 15.4561C441.432 15.2161 441.953 15.0521 442.504 15.0761L442.508 15.0861L442.507 15.0871ZM437.147 15.0551C436.191 15.0941 435.22 15.2591 434.297 15.6451C433.37 16.0331 432.538 16.6381 431.776 17.2631C430.995 17.8681 430.258 18.5801 429.561 19.2871C428.864 20.0021 428.207 20.7371 427.521 21.4251C426.186 22.8321 424.701 24.0071 423.048 24.9301C421.398 25.8581 419.611 26.5061 417.736 26.9381C419.655 26.9981 421.606 26.5811 423.406 25.7631C424.314 25.3661 425.176 24.8521 425.996 24.2701C426.814 23.6771 427.569 22.9891 428.273 22.2741C429.67 20.8201 430.893 19.2911 432.313 17.9711C433.02 17.2951 433.713 16.6421 434.523 16.1631C435.323 15.6631 436.227 15.3491 437.146 15.0511V15.0551H437.147ZM430.981 15.0541C430.28 15.0151 429.561 15.1921 428.897 15.4981C428.569 15.6551 428.253 15.8338 427.949 16.0331L427.059 16.6071C426.449 16.9961 425.891 17.4591 425.329 17.9111C424.778 18.3711 424.252 18.8541 423.716 19.3111C422.658 20.2411 421.618 21.1451 420.45 21.8291C419.29 22.5211 418.024 23.0161 416.623 23.0991C417.984 23.5151 419.502 23.2521 420.815 22.6591C422.151 22.0771 423.337 21.1731 424.409 20.2181C425.482 19.2551 426.485 18.2611 427.539 17.3581C427.799 17.1371 428.099 16.8931 428.349 16.6621C428.613 16.4261 428.875 16.2061 429.149 16.0021C429.699 15.5849 430.316 15.2643 430.973 15.0541H430.981Z" fill="#202860"/>
</g>
</g>
<mask id="mask2_244_13219" style="mask-type:luminance" maskUnits="userSpaceOnUse" x="0" y="15" width="42" height="17">
<path d="M0.373047 15H41.373V32H0.373047V15Z" fill="white"/>
</mask>
<g mask="url(#mask2_244_13219)">
<path d="M12.289 26.6171C12.022 27.1831 11.712 27.7411 11.311 28.2201C10.906 28.6921 10.457 29.1361 9.93896 29.4701C8.91718 30.1679 7.72021 30.5653 6.48395 30.6171C5.25795 30.6491 3.98795 30.3301 2.93395 29.5641C1.87195 28.8141 1.09795 27.6311 0.703953 26.3381C-0.095047 23.7251 0.579948 20.7781 2.15995 18.6781C2.95595 17.6261 3.97695 16.7651 5.13395 16.2081C5.71795 15.9401 6.32295 15.7111 6.95295 15.6101C7.26695 15.5391 7.57295 15.5271 7.88295 15.4841C8.19395 15.4721 8.50395 15.4441 8.81395 15.4531C11.299 15.4881 13.689 16.3091 15.838 17.5031C17.991 18.7231 19.892 20.3961 21.563 22.2161C23.256 24.0191 24.806 25.9371 26.547 27.6261C28.265 29.3401 30.247 30.7471 32.308 31.9961C31.2127 31.4896 30.1545 30.9069 29.141 30.2521C28.1087 29.595 27.1248 28.8648 26.197 28.0671C24.339 26.4471 22.687 24.6011 20.968 22.8801C20.1198 22.0256 19.2286 21.2149 18.298 20.4511C17.3799 19.7112 16.3965 19.0561 15.36 18.4941C13.31 17.3861 11.062 16.6391 8.80295 16.6281C8.52295 16.6161 8.24195 16.6431 7.96095 16.6511C7.68295 16.6911 7.39495 16.6981 7.13195 16.7571C6.59195 16.8401 6.07095 17.0321 5.56695 17.2571C5.06295 17.4881 4.59695 17.8071 4.15095 18.1571C3.71398 18.5252 3.31438 18.9355 2.95795 19.3821C1.52395 21.1901 0.910954 23.7721 1.51695 26.0621C1.81995 27.2021 2.45495 28.2281 3.34095 28.9321C3.78295 29.2821 4.28295 29.5601 4.81495 29.7411C5.35308 29.9174 5.91311 30.018 6.47895 30.0401C7.63921 30.0747 8.78592 29.7833 9.78895 29.1991C10.81 28.6091 11.671 27.7011 12.284 26.6131L12.289 26.6171ZM15.493 15.0871C16.025 14.9371 16.613 14.9931 17.153 15.1621C17.696 15.3271 18.207 15.5901 18.696 15.8621C19.6849 16.4221 20.6213 17.07 21.494 17.7981C22.381 18.5181 23.202 19.3151 24.015 20.1171C24.818 20.9271 25.592 21.7601 26.376 22.5731C27.146 23.4031 27.923 24.2081 28.73 24.9741C29.523 25.7469 30.3572 26.4763 31.229 27.1591C32.969 28.4991 34.892 29.5761 37.041 30.0871C34.83 30.0711 32.648 29.1791 30.758 27.9251C29.798 27.3081 28.916 26.5731 28.054 25.8191C27.204 25.0531 26.402 24.2311 25.614 23.4101L23.3 20.9151C22.5406 20.0903 21.7597 19.2857 20.958 18.5021C20.1616 17.7299 19.3158 17.0104 18.426 16.3481C17.9957 16.009 17.5351 15.7104 17.05 15.4561C16.568 15.2161 16.047 15.0521 15.496 15.0761L15.492 15.0861L15.493 15.0871ZM20.853 15.0551C21.809 15.0941 22.78 15.2591 23.703 15.6451C24.63 16.0331 25.462 16.6381 26.224 17.2631C27.005 17.8681 27.742 18.5801 28.439 19.2871C29.136 20.0021 29.793 20.7371 30.479 21.4251C31.814 22.8321 33.299 24.0071 34.952 24.9301C36.602 25.8581 38.389 26.5061 40.264 26.9381C38.345 26.9981 36.394 26.5811 34.594 25.7631C33.686 25.3661 32.824 24.8521 32.004 24.2701C31.186 23.6771 30.431 22.9891 29.727 22.2741C28.33 20.8201 27.107 19.2911 25.687 17.9711C24.98 17.2951 24.287 16.6421 23.477 16.1631C22.677 15.6631 21.773 15.3491 20.854 15.0511V15.0551H20.853ZM27.019 15.0541C27.72 15.0151 28.439 15.1921 29.103 15.4981C29.4305 15.6551 29.7472 15.8338 30.051 16.0331L30.941 16.6071C31.551 16.9961 32.109 17.4591 32.671 17.9111C33.222 18.3711 33.748 18.8541 34.284 19.3111C35.342 20.2411 36.382 21.1451 37.55 21.8291C38.71 22.5211 39.976 23.0161 41.377 23.0991C40.016 23.5151 38.498 23.2521 37.185 22.6591C35.849 22.0771 34.663 21.1731 33.591 20.2181C32.518 19.2551 31.515 18.2611 30.461 17.3581C30.201 17.1371 29.901 16.8931 29.651 16.6621C29.387 16.4261 29.125 16.2061 28.851 16.0021C28.3011 15.5849 27.6843 15.2643 27.027 15.0541H27.019Z" fill="#202860"/>
<path d="M-457.127 56H-99.101C-94.2442 56 -89.5533 54.2327 -85.9039 51.028L-59.648 27.972C-55.9986 24.7673 -51.3077 23 -46.451 23H1.37305" stroke="url(#paint1_linear_244_13219)"/>
<mask id="mask3_244_13219" style="mask-type:luminance" maskUnits="userSpaceOnUse" x="0" y="15" width="42" height="17">
<path d="M0.373047 15H41.373V32H0.373047V15Z" fill="white"/>
</mask>
<g mask="url(#mask3_244_13219)">
<path d="M12.289 26.6171C12.022 27.1831 11.712 27.7411 11.311 28.2201C10.906 28.6921 10.457 29.1361 9.93896 29.4701C8.91718 30.1679 7.72021 30.5653 6.48395 30.6171C5.25795 30.6491 3.98795 30.3301 2.93395 29.5641C1.87195 28.8141 1.09795 27.6311 0.703953 26.3381C-0.095047 23.7251 0.579948 20.7781 2.15995 18.6781C2.95595 17.6261 3.97695 16.7651 5.13395 16.2081C5.71795 15.9401 6.32295 15.7111 6.95295 15.6101C7.26695 15.5391 7.57295 15.5271 7.88295 15.4841C8.19395 15.4721 8.50395 15.4441 8.81395 15.4531C11.299 15.4881 13.689 16.3091 15.838 17.5031C17.991 18.7231 19.892 20.3961 21.563 22.2161C23.256 24.0191 24.806 25.9371 26.547 27.6261C28.265 29.3401 30.247 30.7471 32.308 31.9961C31.2127 31.4896 30.1545 30.9069 29.141 30.2521C28.1087 29.595 27.1248 28.8648 26.197 28.0671C24.339 26.4471 22.687 24.6011 20.968 22.8801C20.1198 22.0256 19.2286 21.2149 18.298 20.4511C17.3799 19.7112 16.3965 19.0561 15.36 18.4941C13.31 17.3861 11.062 16.6391 8.80295 16.6281C8.52295 16.6161 8.24195 16.6431 7.96095 16.6511C7.68295 16.6911 7.39495 16.6981 7.13195 16.7571C6.59195 16.8401 6.07095 17.0321 5.56695 17.2571C5.06295 17.4881 4.59695 17.8071 4.15095 18.1571C3.71398 18.5252 3.31438 18.9355 2.95795 19.3821C1.52395 21.1901 0.910954 23.7721 1.51695 26.0621C1.81995 27.2021 2.45495 28.2281 3.34095 28.9321C3.78295 29.2821 4.28295 29.5601 4.81495 29.7411C5.35308 29.9174 5.91311 30.018 6.47895 30.0401C7.63921 30.0747 8.78592 29.7833 9.78895 29.1991C10.81 28.6091 11.671 27.7011 12.284 26.6131L12.289 26.6171ZM15.493 15.0871C16.025 14.9371 16.613 14.9931 17.153 15.1621C17.696 15.3271 18.207 15.5901 18.696 15.8621C19.6849 16.4221 20.6213 17.07 21.494 17.7981C22.381 18.5181 23.202 19.3151 24.015 20.1171C24.818 20.9271 25.592 21.7601 26.376 22.5731C27.146 23.4031 27.923 24.2081 28.73 24.9741C29.523 25.7469 30.3572 26.4763 31.229 27.1591C32.969 28.4991 34.892 29.5761 37.041 30.0871C34.83 30.0711 32.648 29.1791 30.758 27.9251C29.798 27.3081 28.916 26.5731 28.054 25.8191C27.204 25.0531 26.402 24.2311 25.614 23.4101L23.3 20.9151C22.5406 20.0903 21.7597 19.2857 20.958 18.5021C20.1616 17.7299 19.3158 17.0104 18.426 16.3481C17.9957 16.009 17.5351 15.7104 17.05 15.4561C16.568 15.2161 16.047 15.0521 15.496 15.0761L15.492 15.0861L15.493 15.0871ZM20.853 15.0551C21.809 15.0941 22.78 15.2591 23.703 15.6451C24.63 16.0331 25.462 16.6381 26.224 17.2631C27.005 17.8681 27.742 18.5801 28.439 19.2871C29.136 20.0021 29.793 20.7371 30.479 21.4251C31.814 22.8321 33.299 24.0071 34.952 24.9301C36.602 25.8581 38.389 26.5061 40.264 26.9381C38.345 26.9981 36.394 26.5811 34.594 25.7631C33.686 25.3661 32.824 24.8521 32.004 24.2701C31.186 23.6771 30.431 22.9891 29.727 22.2741C28.33 20.8201 27.107 19.2911 25.687 17.9711C24.98 17.2951 24.287 16.6421 23.477 16.1631C22.677 15.6631 21.773 15.3491 20.854 15.0511V15.0551H20.853ZM27.019 15.0541C27.72 15.0151 28.439 15.1921 29.103 15.4981C29.4305 15.6551 29.7472 15.8338 30.051 16.0331L30.941 16.6071C31.551 16.9961 32.109 17.4591 32.671 17.9111C33.222 18.3711 33.748 18.8541 34.284 19.3111C35.342 20.2411 36.382 21.1451 37.55 21.8291C38.71 22.5211 39.976 23.0161 41.377 23.0991C40.016 23.5151 38.498 23.2521 37.185 22.6591C35.849 22.0771 34.663 21.1731 33.591 20.2181C32.518 19.2551 31.515 18.2611 30.461 17.3581C30.201 17.1371 29.901 16.8931 29.651 16.6621C29.387 16.4261 29.125 16.2061 28.851 16.0021C28.3011 15.5849 27.6843 15.2643 27.027 15.0541H27.019Z" fill="#202860"/>
</g>
</g>
<defs>
<linearGradient id="paint0_linear_244_13219" x1="852.627" y1="43.5" x2="456.627" y2="43.5" gradientUnits="userSpaceOnUse">
<stop stop-color="#12173B" stop-opacity="0"/>
<stop offset="0.65" stop-color="#12183B"/>
</linearGradient>
<linearGradient id="paint1_linear_244_13219" x1="-394.627" y1="43.5" x2="1.37305" y2="43.5" gradientUnits="userSpaceOnUse">
<stop stop-color="#12173B" stop-opacity="0"/>
<stop offset="0.65" stop-color="#12183B"/>
</linearGradient>
</defs>
</svg>
