<svg width="92" height="75" viewBox="0 0 92 75" fill="none" xmlns="http://www.w3.org/2000/svg">
<g clip-path="url(#clip0_774_2851)">
<path d="M30.6363 63.0033C30.8227 63.6461 30.8655 64.3221 30.7617 64.9833C30.6553 65.635 30.4541 66.2676 30.1644 66.861C29.8586 67.4994 29.5033 68.1129 29.1018 68.6958C28.7059 69.266 28.3593 69.8687 28.0656 70.4976C27.7519 71.1251 27.5212 71.7907 27.3792 72.4777C27.2306 73.1548 27.274 73.86 27.5046 74.5138C27.4451 74.4974 27.3893 74.4695 27.3406 74.4316C27.2919 74.3936 27.2512 74.3464 27.2208 74.2927C27.09 74.2125 26.9776 74.1057 26.8908 73.9792C26.6598 73.7515 26.4354 73.5205 26.2308 73.2895C26.0262 73.0585 25.7985 72.8308 25.5708 72.6031C25.3431 72.3754 25.122 72.1048 24.9108 71.8671C24.6996 71.6295 24.4917 71.3787 24.2838 71.1279C24.2134 71.0127 24.1351 70.9024 24.0495 70.7979C23.9647 70.6991 23.8957 70.5878 23.8449 70.4679C23.6804 70.0228 23.6064 69.5494 23.627 69.0753C23.6468 68.6008 23.7311 68.1311 23.8779 67.6794C24.144 66.8531 24.5239 66.0679 25.0065 65.3463C25.4839 64.6247 25.9239 63.8888 26.3265 63.1386C26.5146 62.7624 26.6829 62.3862 26.8281 62.0099C26.9755 61.6273 27.071 61.2266 27.1119 60.8186C27.1855 60.0204 27.0725 59.2161 26.7819 58.469C26.6763 58.2182 26.5674 57.9773 26.4519 57.7496C26.333 57.5131 26.2019 57.2829 26.0592 57.0599C26.0295 57.0317 26.004 56.9995 25.9833 56.9642C25.9598 56.931 25.9333 56.9001 25.9041 56.8718C25.8589 56.8257 25.8221 56.7721 25.7952 56.7134C25.766 56.6562 25.7281 56.6039 25.683 56.5583H25.6533V56.5253C25.6392 56.495 25.6176 56.4689 25.5906 56.4494C25.5562 56.4261 25.5242 56.3995 25.4949 56.3702C25.3695 56.2019 25.2441 56.0402 25.1187 55.9016C24.9933 55.763 24.858 55.598 24.7128 55.4297C24.6564 55.3605 24.6046 55.2877 24.5577 55.2119C24.3696 54.9809 24.1848 54.7598 24.0066 54.5519C23.8284 54.344 23.6567 54.1262 23.4917 53.8919C23.198 53.5157 22.901 53.1427 22.5974 52.7797C22.2938 52.4167 21.9968 52.0438 21.7064 51.6676L19.3898 48.7471C18.9509 48.2026 18.512 47.6515 18.0698 47.0971C17.6276 46.5427 17.1821 45.9784 16.7234 45.4471C16.2647 44.9158 15.7763 44.2822 15.3275 43.7079C14.8787 43.1337 14.4133 42.5529 13.9348 41.9688C13.4563 41.3847 13.0207 40.8072 12.5719 40.2462C12.1231 39.6852 11.6677 39.1176 11.209 38.5533C10.7503 37.989 10.384 37.5204 9.988 37.0188C9.592 36.5172 9.18609 35.9859 8.76369 35.481L8.43368 35.0883C8.31818 34.953 8.20598 34.8111 8.10368 34.6658C7.9317 34.6685 7.761 34.6359 7.60207 34.5701C7.33983 34.5177 7.09348 34.4047 6.88267 34.2401C6.74268 34.1414 6.61131 34.031 6.48996 33.9101C6.37446 33.7946 6.25566 33.6857 6.13026 33.5801C5.73095 33.161 5.34155 32.7452 4.95545 32.3261C4.56934 31.907 4.19314 31.4846 3.81363 31.0457C3.52323 30.6893 3.23943 30.3263 2.96882 29.9501C2.7 29.5658 2.58249 29.0957 2.63882 28.6301C2.65973 28.4601 2.71234 28.2956 2.79392 28.145C2.87114 27.9899 3.00627 27.8713 3.17013 27.815C3.30251 27.7753 3.44364 27.7753 3.57603 27.815C3.66439 27.8598 3.74836 27.9129 3.82683 27.9734C3.94512 28.0382 4.05211 28.1218 4.14364 28.2209C4.35154 28.4057 4.55284 28.6004 4.74094 28.7984C4.92905 28.9964 5.11715 29.201 5.30195 29.4089C5.48675 29.6168 5.59565 29.7389 5.74085 29.894C5.88606 30.0491 6.04446 30.224 6.21276 30.3824C6.701 30.2524 7.16944 30.057 7.60537 29.8016C8.0451 29.5452 8.45182 29.236 8.81649 28.8809C9.17626 28.5324 9.47224 28.1236 9.691 27.6731C9.91199 27.2185 10.0356 26.7228 10.054 26.2178L10.0837 26.2409V21.898H3.84993C3.72822 21.8524 3.62027 21.7762 3.53643 21.6769L3.25263 21.3964C3.02492 21.1654 2.80052 20.9311 2.59262 20.6902C2.38472 20.4493 2.15042 20.215 1.93261 19.9873C1.71481 19.7596 1.50361 19.5154 1.27921 19.2646L0.652199 18.5122C0.589452 18.4536 0.532026 18.3895 0.480597 18.3208L0.308995 18.0865C0.273383 18.0586 0.243875 18.0237 0.222303 17.984C0.200731 17.9443 0.187556 17.9005 0.183594 17.8555H8.45348C8.58077 17.9135 8.69351 17.9992 8.78349 18.1063C8.88085 18.2075 8.98565 18.3012 9.09699 18.3868L10.417 19.7992C10.4551 19.8351 10.4864 19.8776 10.5094 19.9246C10.578 19.9931 10.6519 20.056 10.7305 20.1127L12.0505 21.5218C12.277 21.7497 12.4907 21.9898 12.6907 22.2412C12.8887 22.492 13.0933 22.7428 13.3012 22.9936C13.4266 23.1388 13.5421 23.2873 13.6312 23.4325C13.6708 23.4952 13.7137 23.5678 13.7566 23.6503V30.2933C14.1255 30.4479 14.5164 30.5437 14.915 30.5771C15.3468 30.5742 15.7735 30.4833 16.169 30.3098C16.5727 30.1403 16.9435 29.9013 17.2646 29.6036C17.5864 29.3248 17.8804 29.0153 18.1424 28.6796C18.3932 28.3496 18.6341 28.0196 18.8618 27.6632C18.8816 27.6401 18.9839 27.716 19.1588 27.881C19.2605 27.9848 19.3709 28.0797 19.4888 28.1648L20.8088 29.5739C21.0167 29.8016 21.2246 30.0425 21.4358 30.2933L22.0628 31.0457C22.0397 31.0259 22.0628 31.0457 22.109 31.1084L22.2806 31.313C22.3433 31.3869 22.4007 31.4652 22.4522 31.5473C22.4878 31.5938 22.5146 31.6464 22.5314 31.7024C22.3433 31.9532 22.1552 32.2172 21.9671 32.4878C21.7859 32.7504 21.5874 33.0006 21.3731 33.2369C20.9869 33.6638 20.5248 34.0151 20.0102 34.2731C19.4927 34.5361 18.9124 34.6503 18.3338 34.6031C17.7543 34.5432 17.2021 34.3265 16.7366 33.9761C16.2548 33.623 15.7862 33.2765 15.3242 32.9432C15.1564 32.8158 14.9997 32.6745 14.8556 32.5208C14.7104 32.3624 14.5619 32.2139 14.4166 32.0654C14.2714 31.9169 14.1295 31.7354 13.9942 31.5968C13.8589 31.4582 13.7071 31.2932 13.5388 31.1249C13.417 31.5576 13.2216 31.9662 12.9613 32.3327C12.6967 32.7007 12.3861 33.0333 12.0373 33.3227C11.1887 33.9876 10.1868 34.429 9.12339 34.6064C9.0549 34.6074 8.98655 34.6129 8.91879 34.6229C8.84078 34.6282 8.7625 34.6282 8.68449 34.6229C8.71285 34.652 8.73931 34.6829 8.76369 34.7154C8.78437 34.7507 8.80992 34.7829 8.83959 34.8111C8.90229 34.8936 8.96499 34.9728 9.02769 35.0454C9.08941 35.117 9.14257 35.1957 9.18609 35.2797C9.25533 35.3475 9.31829 35.4215 9.37419 35.5008C9.5392 35.7285 9.7042 35.9529 9.9055 36.1608C10.1068 36.3687 10.2718 36.603 10.4368 36.8208C10.8768 37.3862 11.3168 37.9494 11.7568 38.5104C12.1968 39.0714 12.6511 39.6357 13.1197 40.2033C13.6411 40.8633 14.1636 41.5233 14.6873 42.1833C15.2087 42.8433 15.74 43.5033 16.2845 44.1634C16.829 44.8234 17.3735 45.5428 17.9345 46.2325C18.4955 46.9222 19.0466 47.6119 19.6109 48.2983C20.1752 48.9847 20.6504 49.6183 21.1619 50.2585L22.7129 52.1857C23.1287 52.7269 23.5577 53.2616 23.9967 53.783C24.4356 54.3044 24.8646 54.8357 25.2804 55.3802C25.5741 55.7366 25.8612 56.0897 26.145 56.4461C26.4288 56.8025 26.7126 57.1556 27.0063 57.512C27.0499 57.5582 27.0865 57.6104 27.1152 57.6671C27.1421 57.7258 27.1789 57.7794 27.2241 57.8255L27.7719 58.436C27.9501 58.634 28.1217 58.8353 28.29 59.0465C28.7685 59.6306 29.2305 60.2477 29.6694 60.8945C30.1033 61.5407 30.4298 62.2528 30.6363 63.0033ZM22.1156 21.7099C22.1654 21.7669 22.2075 21.8302 22.241 21.898H13.7137C13.5925 21.8515 13.4848 21.7755 13.4002 21.6769C13.2975 21.5752 13.1872 21.4814 13.0702 21.3964L11.7502 19.9873C11.5161 19.7597 11.2957 19.5183 11.0902 19.2646C10.8922 19.0138 10.6876 18.763 10.4797 18.5122C10.3434 18.389 10.2314 18.2412 10.1497 18.0766C10.1158 18.0495 10.0876 18.0161 10.0667 17.9782C10.0457 17.9402 10.0324 17.8985 10.0276 17.8555H18.5747C18.7012 17.9148 18.8136 18.0003 18.9047 18.1063C19.0065 18.209 19.1169 18.3028 19.2347 18.3868L20.5547 19.7992C20.7659 20.0269 20.9738 20.2678 21.1817 20.5186L21.8087 21.271C21.8712 21.3346 21.9286 21.403 21.9803 21.4756L22.1156 21.7099Z" fill="white"/>
<path d="M25.7151 21.9904C25.7151 22.0135 25.7349 22.0432 25.7778 22.0861C25.7225 22.1048 25.6646 22.1148 25.6062 22.1158C25.5571 22.1161 25.5086 22.1274 25.4643 22.1488C25.0554 22.2491 24.6684 22.4236 24.3225 22.6636C23.9786 22.9013 23.6858 23.2053 23.4612 23.5579C23.2535 23.8847 23.1049 24.2455 23.0223 24.6238C22.9388 24.9951 22.8859 25.3726 22.8639 25.7525C22.8441 26.1881 22.8342 26.6336 22.8342 27.0725V41.7807C22.72 41.7147 22.6098 41.642 22.5042 41.5629L22.2864 41.4045C22.2237 41.3649 22.2039 41.355 22.2237 41.3748L21.4713 40.8105C21.2205 40.6224 20.9796 40.4244 20.7519 40.2165L20.0457 39.6357C19.8048 39.4377 19.5705 39.2331 19.3395 39.0252C19.257 38.9625 19.1745 38.8932 19.092 38.8206C18.9994 38.7403 18.9154 38.6507 18.8412 38.5533C18.8412 38.5335 18.8412 38.5236 18.8247 38.5236C18.8082 38.5236 18.8247 38.5236 18.8247 38.4906V24.7492C18.8247 24.3301 18.8247 23.9011 18.8247 23.4622C18.8145 23.0337 18.831 22.605 18.8742 22.1785C18.8697 22.1324 18.8697 22.086 18.8742 22.0399C18.8785 21.9927 18.8785 21.9452 18.8742 21.898H18.0393C17.9121 21.8539 17.7984 21.7778 17.7092 21.6769L17.4287 21.3964C17.1977 21.1654 16.9733 20.9311 16.7687 20.6902C16.5641 20.4493 16.3232 20.215 16.1087 19.9873C15.8942 19.7596 15.6896 19.5154 15.4817 19.2646L14.8547 18.5122L14.6336 18.2317C14.5709 18.1492 14.5082 18.0535 14.4455 17.9512C14.4257 17.9281 14.4158 17.9149 14.4158 17.9017C14.4158 17.8885 14.4158 17.8786 14.3828 17.8555H21.3294C21.4567 17.9135 21.5694 17.9992 21.6594 18.1063C21.762 18.2081 21.8724 18.3019 21.9894 18.3868L23.3094 19.7992C23.4117 19.9312 23.5219 20.0568 23.6394 20.1754C23.694 20.2362 23.7574 20.2885 23.8275 20.3305L24.5469 20.9278C24.7779 21.1126 25.0089 21.3139 25.2366 21.5218C25.3304 21.5944 25.4197 21.6727 25.5039 21.7561L25.7151 21.9904Z" fill="white"/>
<path d="M48.8349 18.6523L49.0857 18.9526C49.1484 19.0252 49.2078 19.0978 49.2606 19.1704C49.3134 19.243 49.3266 19.2925 49.3068 19.3123C49.287 19.3321 49.2441 19.2859 49.1814 19.2331C49.1187 19.1803 49.0494 19.1176 48.9768 19.045L48.7095 18.7777C47.9175 17.9857 47.1761 17.1816 46.4853 16.3654C46.3599 16.24 46.2312 16.1179 46.0959 15.9925C45.9606 15.8671 45.8187 15.7417 45.6735 15.6163C45.6278 15.5662 45.5743 15.5239 45.5151 15.4909L45.393 15.3523C45.36 15.3237 45.3237 15.2874 45.284 15.2434C45.1784 15.162 45.0893 15.0894 45.0167 15.0256L44.7494 14.8045C44.5844 14.6593 44.4194 14.5141 44.2181 14.3656C44.0168 14.2171 43.8518 14.0752 43.6835 13.9267C43.3304 13.6363 42.9707 13.3525 42.6044 13.0819L41.4923 12.2668C41.1623 12.016 40.8323 11.7784 40.4726 11.5474C40.1342 11.3198 39.7839 11.1105 39.4232 10.9203C38.5415 10.4587 37.6044 10.1116 36.6347 9.88744C35.9538 9.76066 35.26 9.71854 34.5688 9.76203C33.8786 9.79676 33.2037 9.97787 32.5888 10.2933C32.1771 10.5189 31.7976 10.7986 31.4602 11.1249C31.1258 11.4494 30.8598 11.8377 30.6781 12.2668C30.261 13.1765 30.1001 14.1829 30.2128 15.1774C30.3099 16.1604 30.542 17.1254 30.9025 18.0451C31.0081 18.3157 31.1203 18.583 31.2325 18.8437C31.3616 19.1095 31.5082 19.3664 31.6714 19.6126C31.7718 19.7175 31.8666 19.8276 31.9552 19.9426C32.0377 20.0449 32.1334 20.1505 32.2357 20.2726C32.3322 20.3648 32.4215 20.464 32.503 20.5696C32.5862 20.6738 32.6754 20.773 32.7703 20.8667C32.8957 20.9921 33.0244 21.1142 33.1597 21.2264C33.295 21.3386 33.4369 21.4508 33.5821 21.5564L34.054 22.025C34.0738 22.0481 34.0837 22.0613 34.0837 22.0745C34.0837 22.0877 34.0837 22.1009 34.1167 22.1207C34.0613 22.139 34.0035 22.149 33.9451 22.1504C33.896 22.1507 33.8475 22.1619 33.8032 22.1834C33.3933 22.2837 33.0052 22.4581 32.6581 22.6982C32.3158 22.9377 32.0233 23.2414 31.7968 23.5925C31.5918 23.9207 31.4434 24.281 31.3579 24.6584C31.2755 25.0297 31.2236 25.4072 31.2028 25.787C31.183 26.2226 31.1764 26.6681 31.2028 27.107C31.2292 27.5459 31.2028 28.0013 31.2028 28.427V41.8054C31.0884 41.7396 30.9782 41.6669 30.8728 41.5876C30.787 41.526 30.7078 41.4732 30.6352 41.4292C30.5626 41.3896 30.5362 41.3797 30.5593 41.3995L29.8069 40.8352C29.5561 40.646 29.3152 40.448 29.0842 40.2412L28.3813 39.6604C28.1404 39.4624 27.9061 39.2577 27.6751 39.0498C27.5926 38.9871 27.5068 38.9178 27.4243 38.8452C27.3381 38.7681 27.2646 38.6779 27.2065 38.5779L27.1438 38.5152V24.7508C27.1438 24.3317 27.1438 23.9027 27.1438 23.4638C27.1341 23.0353 27.1496 22.6067 27.19 22.1801C27.1857 22.134 27.1857 22.0876 27.19 22.0415C27.1998 21.9948 27.2053 21.9473 27.2065 21.8996H26.4045C26.2833 21.853 26.1756 21.777 26.091 21.6785L25.8105 21.398C25.343 20.9548 24.9023 20.4843 24.4905 19.9888C24.0329 19.507 23.605 19.0153 23.2068 18.5137C23.121 18.4114 23.0484 18.3157 22.9857 18.2332C22.923 18.1507 22.8603 18.055 22.7976 17.9527C22.7761 17.9256 22.7655 17.8915 22.7679 17.857H29.698C29.5495 17.692 29.4142 17.527 29.2888 17.3554C29.1634 17.1838 29.0281 17.0254 28.8829 16.8538C28.2278 15.9876 27.6897 15.039 27.2824 14.0323C26.8649 13.0279 26.6281 11.9576 26.5827 10.8708C26.5628 10.3942 26.5894 9.91674 26.6619 9.44523C26.7338 8.98607 26.8763 8.5408 27.0844 8.12522C27.5005 7.26807 28.2116 6.58968 29.0875 6.2145C29.8129 5.88445 30.6005 5.71342 31.3975 5.71289C32.1791 5.71486 32.9566 5.82594 33.7075 6.04289C34.4806 6.26837 35.2265 6.57824 35.9317 6.9669C36.6216 7.34807 37.2834 7.77817 37.9118 8.25392C38.684 8.81492 39.4408 9.39353 40.1822 9.98974C40.9214 10.587 41.6606 11.1975 42.3899 11.8246C43.2875 12.6386 44.1675 13.4845 45.0299 14.3623C45.69 15.0223 46.3368 15.7164 46.9704 16.4446C47.6139 17.1508 48.231 17.89 48.8349 18.6523ZM40.2944 21.9524C40.3392 22.0128 40.3748 22.0795 40.4 22.1504H33.1828C33.0763 22.0975 32.9853 22.0179 32.9188 21.9194C32.838 21.8122 32.7486 21.7117 32.6515 21.6191L31.5328 20.1142C31.3372 19.8694 31.1554 19.6138 30.9883 19.3486C30.82 19.0846 30.6583 18.8206 30.4702 18.5533C30.3449 18.4179 30.2464 18.2601 30.1798 18.088C30.1172 18.0268 30.0795 17.9445 30.0742 17.857H37.298C37.4055 17.9244 37.4959 18.016 37.562 18.1243C37.6435 18.2299 37.7329 18.3292 37.8293 18.4213L38.9414 19.9129C39.1196 20.1571 39.2978 20.4112 39.4727 20.6785C39.6476 20.9459 39.8291 21.2066 40.004 21.4739C40.058 21.5421 40.1076 21.6138 40.1525 21.6884C40.1921 21.7676 40.2416 21.8501 40.2944 21.9524Z" fill="white"/>
<path d="M61.2729 61.1231C61.4608 61.7657 61.5036 62.442 61.3983 63.1031C61.2941 63.756 61.0939 64.3898 60.8043 64.9841C60.4961 65.6209 60.1398 66.2332 59.7384 66.8157C59.3435 67.3858 58.998 67.9886 58.7055 68.6175C58.3912 69.245 58.1594 69.9105 58.0158 70.5975C57.8687 71.2748 57.9121 71.9795 58.1412 72.6336C58.0245 72.5971 57.9249 72.5198 57.8607 72.4158C57.7366 72.3329 57.63 72.2264 57.5472 72.1023C57.3162 71.8713 57.0951 71.6403 56.8872 71.4126C56.6793 71.1849 56.4614 70.9539 56.2271 70.7229C55.9928 70.4919 55.7783 70.2279 55.5671 69.987C55.3559 69.7461 55.1579 69.5019 54.9698 69.2511C54.8873 69.1455 54.7982 69.0366 54.7025 68.9211C54.6187 68.8222 54.5508 68.7108 54.5012 68.5911C54.3358 68.1462 54.2606 67.6727 54.2801 67.1985C54.3034 66.7254 54.3877 66.2573 54.5309 65.8058C54.7971 64.9785 55.1769 64.1922 55.6595 63.4694C56.1413 62.75 56.5901 62.0141 57.006 61.2617C57.1898 60.8954 57.3518 60.5185 57.4911 60.1331C57.6301 59.7468 57.7307 59.3478 57.7914 58.9418C57.8648 58.1436 57.7519 57.3392 57.4614 56.5921C57.3558 56.3413 57.2403 56.1037 57.1314 55.8727C57.0225 55.6417 56.8706 55.414 56.7254 55.183C56.6735 55.1277 56.6312 55.0641 56.6 54.9949C56.5042 54.8948 56.4201 54.7841 56.3492 54.6649L56.3162 54.6352C56.3052 54.6023 56.2831 54.5743 56.2535 54.556C56.2257 54.536 56.204 54.5085 56.1908 54.4768L55.7849 54.0082C55.6595 53.863 55.5341 53.7046 55.4087 53.5363C55.3396 53.4695 55.2767 53.3966 55.2206 53.3185C55.0554 53.0892 54.878 52.8689 54.6893 52.6585C54.5012 52.4473 54.323 52.2295 54.1547 51.9985C53.8643 51.6223 53.564 51.2527 53.2637 50.8864C52.9634 50.5201 52.6631 50.1505 52.3694 49.7743C51.9734 49.2925 51.5818 48.8074 51.1946 48.319L50.0528 46.8603C49.5908 46.3191 49.1409 45.7691 48.7031 45.2103C48.2675 44.646 47.8154 44.0916 47.3566 43.5603C46.8979 43.029 46.4392 42.3954 45.9772 41.8212C45.5152 41.247 45.0499 40.6662 44.5681 40.0821C44.0863 39.498 43.654 38.9238 43.2052 38.3594C42.7564 37.7951 42.301 37.2308 41.8423 36.6665C41.3836 36.1022 41.0173 35.6336 40.6213 35.132C40.2253 34.6304 39.8161 34.1189 39.4003 33.5975H38.9779C38.8353 33.5976 38.693 33.5866 38.5522 33.5645C38.4431 33.5432 38.3329 33.5278 38.2221 33.5183C38.1092 33.5083 37.9981 33.4828 37.8921 33.4424C37.7068 33.3432 37.5377 33.2163 37.3905 33.0662C37.1001 32.7923 36.8163 32.5118 36.5457 32.2181L35.7306 31.3403C35.46 31.0499 35.1927 30.7529 34.932 30.4493C34.6713 30.1457 34.4139 29.8289 34.1631 29.4923C33.95 29.1961 33.8005 28.859 33.7242 28.5022C33.6827 28.2338 33.7266 27.959 33.8496 27.7168C33.9742 27.4675 34.1577 27.2523 34.3842 27.0898C34.4838 27.0204 34.5998 26.9781 34.7208 26.9671C34.8417 26.9562 34.9634 26.9768 35.0739 27.0271C35.2273 27.1128 35.3647 27.2244 35.4798 27.3571C35.625 27.4825 35.7636 27.6079 35.889 27.7333L36.2619 28.1095L37.4862 29.4296L37.9086 29.3669C38.0515 29.3449 38.1927 29.3129 38.3311 29.2712C38.6611 29.1887 38.9515 29.0995 39.2551 29.0071C39.5665 28.9089 39.8663 28.7772 40.1494 28.6144C40.5418 28.4101 40.9002 28.1463 41.212 27.8323C41.2904 27.7754 41.3644 27.7126 41.4331 27.6442L41.6212 27.4561C41.5966 27.4092 41.5642 27.3668 41.5255 27.3307C41.4232 27.2251 41.311 27.1096 41.1955 27.0007C41.08 26.8918 40.9711 26.7631 40.8655 26.6707C40.1571 25.9381 39.4784 25.1967 38.8294 24.4465C38.5357 24.1165 38.2552 23.7865 37.9845 23.4763C37.7103 23.1648 37.4588 22.8339 37.2321 22.4863C37.0023 22.1699 36.7929 21.8392 36.6051 21.4963C36.4144 21.1537 36.2764 20.7844 36.1959 20.4007C36.138 20.0588 36.138 19.7096 36.1959 19.3677C36.243 19.0262 36.355 18.6969 36.5259 18.3975C36.817 17.9191 37.2758 17.5662 37.8129 17.4075C38.3602 17.24 38.9399 17.2072 39.5026 17.3118C40.0687 17.4113 40.6177 17.5913 41.1328 17.8464C41.7188 18.1391 42.2572 18.5184 42.73 18.9717C43.06 19.2654 43.39 19.5723 43.687 19.8991C43.984 20.2258 44.2876 20.5591 44.578 20.8891C44.809 21.1597 45.0499 21.4369 45.3007 21.7174C45.5515 21.9979 45.7891 22.2883 46.0201 22.5787C46.1653 22.7668 46.3138 22.9516 46.459 23.1265C46.6094 23.3135 46.7358 23.5186 46.8352 23.737C47.0889 24.2006 47.2703 24.7003 47.3731 25.2187C47.4659 25.7572 47.4815 26.3061 47.4193 26.8489C47.3535 27.4044 47.2273 27.951 47.0431 28.4791C46.6779 29.5152 46.1266 30.4759 45.4162 31.3139C45.055 31.7235 44.6437 32.0861 44.1919 32.393C43.9115 32.5752 43.6129 32.7278 43.3009 32.8484C42.9973 32.9639 42.6673 33.0728 42.3109 33.1784C41.9282 33.2817 41.5405 33.3654 41.1493 33.4292C40.7533 33.4886 40.3474 33.5414 39.9283 33.5843L39.991 33.647L40.5388 34.307C40.717 34.5281 40.8886 34.7525 41.0569 34.967C41.5145 35.5324 41.9633 36.0967 42.4033 36.6599C42.8433 37.2231 43.2921 37.7874 43.7497 38.3528C44.2931 39.0129 44.8211 39.6729 45.3337 40.3329C45.8463 40.9929 46.3732 41.6529 46.9144 42.3129C47.4589 43.0026 48.0134 43.689 48.5645 44.3787C49.1156 45.0684 49.6832 45.7581 50.2145 46.4478C50.7458 47.1375 51.2507 47.7679 51.7655 48.4048L53.3462 50.332C53.7851 50.8765 54.2207 51.4078 54.6464 51.9292C55.0721 52.4506 55.4978 52.9852 55.9169 53.5264C56.2106 53.8828 56.4977 54.2392 56.7782 54.5923C57.0588 54.9454 57.3459 55.3018 57.6396 55.6582C57.6847 55.7044 57.7215 55.758 57.7485 55.8166C57.7777 55.8738 57.8155 55.9261 57.8607 55.9717L58.4085 56.5822C58.5834 56.7803 58.7583 56.9848 58.9233 57.1928C59.4051 57.7758 59.8649 58.3918 60.3027 59.0408C60.7364 59.6779 61.0641 60.3811 61.2729 61.1231ZM40.3474 25.5817L41.0833 26.3803C41.3209 26.641 41.5585 26.9182 41.7862 27.2119C42.2485 26.726 42.6296 26.1689 42.9148 25.5619C43.2505 24.9281 43.5034 24.2538 43.6672 23.5555C43.8341 22.8573 43.8655 22.1336 43.7596 21.4237C43.5957 21.3736 43.4294 21.3317 43.2613 21.2983C42.7948 21.2156 42.3184 21.2056 41.8489 21.2686C41.3789 21.3266 40.9402 21.535 40.5982 21.8626C40.1864 22.2472 39.9205 22.7627 39.8458 23.3212C39.7565 23.878 39.8216 24.4487 40.0339 24.9712C40.1212 25.1831 40.2261 25.3873 40.3474 25.5817ZM43.0831 19.4865L43.1128 19.5162C43.1133 19.5122 43.113 19.5081 43.1117 19.5043C43.1104 19.5004 43.1082 19.4969 43.1053 19.494C43.1024 19.4912 43.0989 19.489 43.0951 19.4877C43.0912 19.4864 43.0871 19.486 43.0831 19.4865Z" fill="white"/>
<path d="M56.1068 21.9904C56.1068 22.0135 56.1266 22.0432 56.1695 22.0861C56.1141 22.1045 56.0563 22.1145 55.9979 22.1158C55.9488 22.1161 55.9003 22.1274 55.856 22.1488C55.4461 22.2491 55.058 22.4236 54.7109 22.6636C54.3686 22.9031 54.0761 23.2068 53.8496 23.5579C53.6446 23.8861 53.4962 24.2464 53.4107 24.6238C53.3283 24.9952 53.2765 25.3726 53.2556 25.7525C53.2325 26.1881 53.2226 26.6336 53.2226 27.0725V41.7807C53.1083 41.715 52.998 41.6422 52.8926 41.5629L52.655 41.421C52.5923 41.3814 52.5692 41.3715 52.5923 41.3913L51.8399 40.827C51.5891 40.6378 51.3482 40.4398 51.1172 40.233L50.4143 39.6522C50.1734 39.4542 49.9391 39.2496 49.7081 39.0417C49.6256 38.979 49.5398 38.9097 49.4573 38.8371C49.3656 38.7559 49.2816 38.6665 49.2065 38.5698C49.2065 38.55 49.2065 38.5401 49.2065 38.5401C49.2065 38.5401 49.2065 38.5401 49.2065 38.5071V24.7492C49.2065 24.3301 49.2065 23.9011 49.2065 23.4622C49.1968 23.0338 49.2123 22.6052 49.2527 22.1785C49.2538 22.1319 49.2594 22.0855 49.2692 22.0399C49.2735 21.9927 49.2735 21.9452 49.2692 21.898H48.431C48.3097 21.8515 48.202 21.7755 48.1175 21.6769L47.8336 21.3964C47.6059 21.1654 47.3815 20.9311 47.1736 20.6902C46.9657 20.4493 46.7314 20.215 46.5136 19.9873C46.2958 19.7596 46.0978 19.5154 45.8866 19.2646L45.2629 18.5122C45.1771 18.4099 45.1045 18.3142 45.0418 18.2317C44.9791 18.1492 44.9164 18.0535 44.8537 17.9512C44.8339 17.9281 44.824 17.9149 44.824 17.9017C44.824 17.8885 44.824 17.8786 44.791 17.8555H51.7475C51.874 17.9148 51.9864 18.0003 52.0775 18.1063C52.1741 18.2082 52.279 18.3021 52.391 18.3868L53.711 19.7992C53.8136 19.9309 53.9238 20.0565 54.041 20.1754C54.0956 20.2362 54.159 20.2885 54.2291 20.3305C54.4799 20.5384 54.7175 20.7397 54.9485 20.9278C55.1795 21.1159 55.4072 21.3139 55.6382 21.5218C55.7405 21.6043 55.8296 21.6835 55.9055 21.7561L56.1068 21.9904Z" fill="white"/>
<path d="M79.4759 27.7278C79.5584 27.8301 79.6376 27.9258 79.7102 28.0083C79.7862 28.0958 79.8546 28.1897 79.9148 28.2888C79.911 28.2965 79.909 28.305 79.909 28.3136C79.909 28.3221 79.911 28.3306 79.9148 28.3383C79.9203 28.3532 79.9203 28.3696 79.9148 28.3845C79.8944 28.7773 79.8268 29.1662 79.7135 29.5428C79.5973 29.9125 79.3987 30.251 79.1327 30.5328C78.9248 30.7842 78.669 30.9917 78.3802 31.1433C78.0962 31.2987 77.7902 31.41 77.4727 31.4733C76.972 31.579 76.4559 31.589 75.9514 31.503C75.4423 31.421 74.9434 31.2849 74.4631 31.0971C73.9473 30.8823 73.4632 30.5981 73.0243 30.2523C72.8362 30.1038 72.6514 29.952 72.4765 29.7969C72.3016 29.6418 72.1267 29.4669 71.9584 29.3118C71.5382 28.8916 71.1312 28.4681 70.7374 28.0413C70.3381 27.6156 69.9619 27.18 69.6088 26.7411C69.4404 26.8269 69.3282 26.8896 69.2787 26.9292C68.6024 27.2898 67.9061 27.6115 67.1931 27.8928C66.4825 28.1634 65.7829 28.456 65.0943 28.7706C64.4026 29.0614 63.7282 29.392 63.0747 29.7606C62.4162 30.1363 61.8368 30.6362 61.3686 31.2324C61.136 31.527 60.9358 31.8456 60.7713 32.1828C60.6101 32.512 60.5041 32.8654 60.4577 33.229C60.4379 33.3973 60.4214 33.559 60.4115 33.6844C60.4024 33.8254 60.4079 33.9669 60.428 34.1068C60.636 34.1497 60.8439 34.186 61.0551 34.219C61.2632 34.2454 61.4739 34.2454 61.6821 34.219C62.4938 34.1985 63.2948 34.0285 64.0449 33.7174C64.7959 33.4159 65.5128 33.0353 66.1833 32.5821C66.0808 32.4007 65.9915 32.2121 65.916 32.0178C65.8432 31.8288 65.8161 31.6253 65.8368 31.4238C65.8607 31.0553 65.9802 30.6993 66.1833 30.3909C66.3764 30.0774 66.6118 29.792 66.8829 29.5428C66.9869 29.4566 67.0972 29.3783 67.2129 29.3085C67.336 29.2365 67.4762 29.1989 67.6188 29.1996C67.7973 29.203 67.9712 29.2568 68.1204 29.3547C68.1435 29.3151 68.2557 29.3877 68.4669 29.5758C68.6781 29.7639 68.9322 30.0081 69.2325 30.3117C69.5328 30.6153 69.8563 30.942 70.1896 31.3017C70.5229 31.6614 70.8199 31.9914 71.0806 32.2917C71.2939 32.5413 71.4933 32.8024 71.6779 33.0739C71.8132 33.2818 71.8297 33.3775 71.7241 33.3544C71.8115 33.4483 71.8759 33.5613 71.9122 33.6844C71.9652 33.8195 71.9857 33.9651 71.9719 34.1096C71.9582 34.2541 71.9106 34.3933 71.833 34.516C71.6779 34.7767 71.503 35.0209 71.3479 35.2519C70.9602 35.7024 70.5166 36.1016 70.0279 36.4399C70.0081 36.463 69.9916 36.4729 69.9817 36.4729C69.9634 36.4775 69.9472 36.4879 69.9355 36.5026C70.1445 36.7226 70.3425 36.9426 70.5295 37.1626C70.7176 37.3837 70.8958 37.6081 71.0641 37.8391C71.3902 38.2441 71.6932 38.6672 71.9716 39.1063C72.2434 39.5336 72.4649 39.991 72.6316 40.4692C72.7382 40.8312 72.8014 41.2045 72.8197 41.5813C72.8434 41.9565 72.8009 42.333 72.6943 42.6935C72.5891 43.01 72.4414 43.3109 72.2554 43.5878C72.0708 43.8613 71.8243 44.0874 71.536 44.2478C71.4836 44.2316 71.4353 44.2047 71.3941 44.1686C71.3225 44.1168 71.2552 44.0594 71.1928 43.997C71.1301 43.9343 71.0443 43.8386 70.942 43.7132C70.4737 43.2708 70.0328 42.8002 69.6219 42.3041C69.3909 42.073 69.1731 41.8354 68.9619 41.5846C68.7507 41.3338 68.5428 41.0929 68.3349 40.8619C68.2491 40.7365 68.1765 40.6342 68.1138 40.5517L67.9422 40.3141C67.8894 40.2415 67.8729 40.2052 67.896 40.2052C68.2006 40.0046 68.461 39.7441 68.6616 39.4396C68.8594 39.1365 69.0034 38.8016 69.0873 38.4496C69.2131 37.9794 69.2232 37.4858 69.117 37.0108L68.457 37.3705C68.2392 37.486 68.0115 37.5949 67.797 37.7005C67.3973 37.8678 66.983 37.9981 66.5595 38.0899C66.1425 38.1838 65.7164 38.2314 65.289 38.2318C64.8627 38.254 64.4355 38.2117 64.0218 38.1064C63.6063 37.9985 63.2019 37.8515 62.814 37.6675C62.5054 37.4959 62.2127 37.2971 61.9395 37.0735C61.5212 36.6981 61.1235 36.3004 60.7482 35.8822C60.3917 35.506 60.0419 35.1298 59.6987 34.7536C59.3555 34.3774 59.0156 33.9913 58.679 33.5953C58.3248 33.1751 57.986 32.7416 57.6626 32.295C57.3393 31.8644 57.0957 31.3793 56.9432 30.8628C56.8402 30.5215 56.7771 30.1693 56.7551 29.8134C56.7344 29.4687 56.7769 29.1231 56.8805 28.7937C57.0733 28.0563 57.4635 27.3854 58.0091 26.8533C58.5314 26.3082 59.1402 25.8532 59.8109 25.5069C60.4864 25.1505 61.1596 24.8205 61.8306 24.5169C62.4774 24.2463 63.0835 24.0054 63.6489 23.7942C63.4806 23.5665 63.3189 23.3519 63.1308 23.1539C62.9467 22.9431 62.7737 22.7228 62.6127 22.4939C62.1534 21.8983 61.8169 21.2174 61.6227 20.4908C61.4751 19.8807 61.4426 19.2483 61.527 18.6263C61.5656 18.3153 61.6658 18.0151 61.8216 17.7431C61.9774 17.4712 62.1857 17.2329 62.4345 17.0423C62.9206 16.6385 63.543 16.4365 64.1736 16.478C64.8028 16.518 65.4022 16.7599 65.883 17.1677C66.1338 17.3987 66.3846 17.633 66.6354 17.8739C66.8862 18.1148 67.1238 18.359 67.3548 18.6098C67.8762 19.1543 68.3844 19.7021 68.8728 20.2598C69.3612 20.8175 69.8398 21.3851 70.2985 21.9692C70.5362 22.2708 70.7513 22.5896 70.942 22.9229C71.1334 23.2542 71.2862 23.6063 71.3974 23.9724C71.4795 24.2686 71.5009 24.5784 71.4601 24.8832C71.4193 25.1932 71.2751 25.4804 71.0509 25.6983C70.7343 26.0473 70.3632 26.3427 69.952 26.5728L70.4206 26.8566C70.6917 27.0022 70.9756 27.1226 71.2687 27.2163C71.5591 27.3087 71.8528 27.3879 72.1432 27.4506C72.6133 27.5362 73.0929 27.5573 73.5688 27.5133C74.0553 27.4745 74.5242 27.3133 74.9317 27.0447C75.3717 26.7681 75.7171 26.3641 75.9217 25.8864C76.1313 25.3981 76.2585 24.8784 76.2979 24.3486C76.3407 24.3913 76.3884 24.4289 76.4398 24.4608C76.4918 24.4905 76.5396 24.5271 76.5817 24.5697C76.6243 24.6345 76.6766 24.6924 76.7368 24.7413C76.7995 24.7941 76.8523 24.8403 76.8952 24.8832C77.1229 25.1109 77.344 25.3485 77.5552 25.5861C77.7664 25.8237 77.9842 26.0613 78.2152 26.2923C78.6409 26.7444 79.0535 27.2328 79.4759 27.7278ZM67.632 21.2927C67.7625 21.0651 67.8276 20.8059 67.8201 20.5436C67.4249 20.5204 67.0294 20.5846 66.6618 20.7317C66.2862 20.8771 65.9599 21.1267 65.7213 21.4511C65.5178 21.6753 65.3677 21.9427 65.2824 22.2332C65.1987 22.5305 65.1467 22.8358 65.1273 23.144L65.5959 22.9064C65.7444 22.8338 65.8896 22.7579 66.0348 22.6721C66.3285 22.484 66.6321 22.2761 66.9456 22.0451C67.0677 21.9428 67.1931 21.8306 67.3185 21.7151C67.4483 21.595 67.5546 21.4518 67.632 21.2927ZM83.0795 21.7943C83.0993 21.8174 83.1092 21.8306 83.1092 21.8438C83.1092 21.857 83.1092 21.8702 83.1422 21.89H74.6182C74.498 21.8433 74.3914 21.7673 74.308 21.6689C74.2045 21.5681 74.0942 21.4744 73.978 21.3884L72.658 19.9793C72.4239 19.7517 72.2035 19.5104 71.998 19.2566C71.8 19.0058 71.5954 18.755 71.3875 18.5042C71.305 18.4019 71.2324 18.3062 71.1697 18.2237L70.9486 17.9432C70.9509 17.9087 70.9404 17.8746 70.9189 17.8475H79.4396C79.5609 17.9076 79.6678 17.9931 79.7531 18.0983C79.8549 18.201 79.9653 18.2948 80.0831 18.3788L81.4031 19.7912C81.611 20.0189 81.8189 20.2598 82.0268 20.5106L82.6538 21.263C82.7339 21.3408 82.8078 21.4246 82.8749 21.5138C82.9541 21.6227 83.0135 21.7019 83.0795 21.8042V21.7943Z" fill="white"/>
<path d="M83.2353 21.9904C83.2353 22.0135 83.2551 22.0432 83.298 22.0861C83.2426 22.1048 83.1848 22.1148 83.1264 22.1158C83.0772 22.1161 83.0287 22.1274 82.9845 22.1488C82.5756 22.2491 82.1886 22.4236 81.8427 22.6636C81.4987 22.9013 81.2059 23.2053 80.9813 23.5579C80.7736 23.8847 80.6251 24.2455 80.5424 24.6238C80.4574 24.9948 80.4044 25.3724 80.384 25.7525C80.3642 26.1881 80.3543 26.6336 80.3543 27.0725V41.7807C80.2345 41.7153 80.1188 41.6426 80.0078 41.5629L79.79 41.4045C79.7273 41.3649 79.7042 41.355 79.7273 41.3748L78.9749 40.8105C78.7241 40.6224 78.4832 40.4244 78.2555 40.2165L77.5493 39.6357C77.3084 39.4377 77.0741 39.2331 76.8431 39.0252C76.7606 38.9625 76.6781 38.8932 76.5923 38.8206C76.5018 38.7393 76.4189 38.6498 76.3448 38.5533C76.3448 38.5335 76.3448 38.5236 76.3448 38.5236C76.3448 38.5236 76.3283 38.5236 76.3283 38.4906V24.7492C76.3283 24.3301 76.3283 23.9011 76.3118 23.4622C76.3016 23.0337 76.3181 22.605 76.3613 22.1785C76.3569 22.1324 76.3569 22.086 76.3613 22.0399C76.3656 21.9927 76.3656 21.9452 76.3613 21.898H75.5462C75.425 21.8515 75.3172 21.7755 75.2327 21.6769L74.9522 21.3964C74.7212 21.1654 74.4968 20.9311 74.2922 20.6902C74.0876 20.4493 73.8467 20.215 73.6322 19.9873C73.4177 19.7596 73.2131 19.5154 73.0052 19.2646L72.3782 18.5122L72.1571 18.2317C72.0944 18.1492 72.0317 18.0535 71.969 17.9512C71.9492 17.9281 71.9393 17.9149 71.9393 17.9017C71.9393 17.8885 71.9393 17.8786 71.9062 17.8555H78.8627C78.99 17.9135 79.1027 17.9992 79.1927 18.1063C79.2901 18.2075 79.3949 18.3012 79.5062 18.3868L80.8262 19.7992C80.9285 19.9312 81.0387 20.0568 81.1562 20.1754C81.2109 20.2362 81.2743 20.2885 81.3444 20.3305L82.0638 20.9278C82.2948 21.1126 82.5258 21.3139 82.7535 21.5218C82.8472 21.5944 82.9365 21.6727 83.0208 21.7561L83.2353 21.9904Z" fill="white"/>
<path d="M91.6304 21.9904C91.6304 22.0135 91.6535 22.0432 91.6931 22.0861C91.6378 22.1048 91.5799 22.1148 91.5215 22.1158C91.4723 22.1161 91.4239 22.1274 91.3796 22.1488C90.9707 22.2491 90.5837 22.4236 90.2378 22.6636C89.8939 22.9013 89.601 23.2053 89.3765 23.5579C89.1746 23.8859 89.0316 24.2466 88.9541 24.6238C88.8722 24.9954 88.8193 25.3727 88.7957 25.7525C88.7759 26.1881 88.766 26.6336 88.766 27.0725V41.7807C88.6466 41.7145 88.5309 41.6418 88.4195 41.5629L88.2017 41.4045C88.139 41.3649 88.1192 41.355 88.139 41.3748L87.3866 40.8105C87.1358 40.6224 86.8949 40.4244 86.6672 40.2165L85.9609 39.6357C85.72 39.4377 85.4857 39.2331 85.258 39.0252C85.1722 38.9625 85.0897 38.8932 85.0072 38.8206C84.9147 38.7403 84.8307 38.6507 84.7564 38.5533C84.7564 38.5335 84.7564 38.5236 84.7399 38.5236C84.7234 38.5236 84.7234 38.5236 84.7234 38.4906V24.7492C84.7234 24.3301 84.7234 23.9011 84.7069 23.4622C84.6967 23.0337 84.7133 22.605 84.7564 22.1785C84.7505 22.1325 84.7505 22.0859 84.7564 22.0399C84.7609 21.9927 84.7609 21.9452 84.7564 21.898H83.9413C83.8212 21.8512 83.7145 21.7753 83.6311 21.6769L83.3473 21.3964C83.1163 21.1654 82.8919 20.9311 82.6873 20.6902C82.4827 20.4493 82.2451 20.215 82.0273 19.9873C81.8095 19.7596 81.6082 19.5154 81.4003 19.2646L80.7733 18.5122C80.6908 18.4099 80.6182 18.3142 80.5555 18.2317C80.4928 18.1492 80.4301 18.0535 80.3674 17.9512C80.3443 17.9281 80.3344 17.9149 80.3344 17.9017C80.3344 17.8885 80.3344 17.8786 80.3047 17.8555H87.2579C87.3792 17.9155 87.4861 18.0011 87.5714 18.1063C87.674 18.2081 87.7843 18.3019 87.9014 18.3868L89.2214 19.7992C89.3246 19.9304 89.4348 20.056 89.5514 20.1754C89.6067 20.2354 89.67 20.2876 89.7395 20.3305L90.4622 20.9278C90.6899 21.1126 90.9209 21.3139 91.1486 21.5218C91.2424 21.5944 91.3316 21.6727 91.4159 21.7561L91.6304 21.9904Z" fill="white"/>
<path d="M24.0082 5.1215C23.9451 3.8746 23.3993 2.70117 22.4865 1.8494C21.5737 0.997629 20.3654 0.53432 19.1171 0.557468C17.8688 0.580616 16.6785 1.08841 15.7979 1.97343C14.9173 2.85846 14.4154 4.05132 14.3985 5.2997C14.3945 5.94931 14.5237 6.59285 14.778 7.19062C15.8307 10.0485 18.7645 13.4607 19.1605 13.8468C19.1728 13.8589 19.1894 13.8657 19.2067 13.8657C19.224 13.8657 19.2405 13.8589 19.2529 13.8468C19.6885 13.4442 23.0842 9.72505 23.8729 6.54051L23.8927 6.45141C23.8927 6.42171 23.8927 6.38871 23.9158 6.35901C23.9656 6.13629 23.9987 5.91016 24.0148 5.6825V5.6495C24.0148 5.5373 24.0148 5.4218 24.0148 5.3195C24.0148 5.2172 24.0115 5.1743 24.0082 5.1215ZM19.2067 7.80113C18.7139 7.80113 18.2322 7.655 17.8225 7.38123C17.4127 7.10746 17.0934 6.71833 16.9048 6.26307C16.7162 5.8078 16.6669 5.30684 16.763 4.82353C16.8592 4.34022 17.0965 3.89627 17.4449 3.54782C17.7933 3.19938 18.2373 2.96208 18.7206 2.86595C19.2039 2.76981 19.7049 2.81915 20.1601 3.00773C20.6154 3.19631 21.0045 3.51565 21.2783 3.92538C21.5521 4.33511 21.6982 4.81682 21.6982 5.3096C21.6982 5.97039 21.4357 6.60412 20.9685 7.07138C20.5012 7.53863 19.8675 7.80113 19.2067 7.80113Z" fill="url(#paint0_linear_774_2851)"/>
<path style="mix-blend-mode:screen" opacity="0.3" d="M15.168 5.28583C15.1441 4.75171 15.2294 4.21832 15.4188 3.71831C15.6102 3.21211 15.9033 2.7505 16.2801 2.362C16.6537 1.97029 17.1027 1.65823 17.6001 1.44459C18.1032 1.23111 18.6442 1.12109 19.1907 1.12109C19.7373 1.12109 20.2782 1.23111 20.7813 1.44459C21.2813 1.65647 21.7333 1.96706 22.1104 2.35774C22.4875 2.74843 22.7818 3.21119 22.9759 3.71831C23.1642 4.21853 23.2484 4.75193 23.2234 5.28583C23.224 5.29105 23.2234 5.29634 23.2216 5.30127C23.2198 5.3062 23.2168 5.31063 23.2129 5.31418C23.209 5.31773 23.2044 5.3203 23.1993 5.32169C23.1942 5.32307 23.1889 5.32322 23.1838 5.32213C23.1741 5.32213 23.1649 5.31831 23.1581 5.3115C23.1513 5.30469 23.1475 5.29546 23.1475 5.28583C23.1009 4.25591 22.6658 3.28189 21.9298 2.56C21.1974 1.85501 20.2204 1.46117 19.2039 1.46117C18.1874 1.46117 17.2104 1.85501 16.4781 2.56C15.7358 3.27882 15.2956 4.25367 15.2472 5.28583C15.2472 5.30893 15.2274 5.32543 15.2076 5.32213C15.1978 5.32149 15.1886 5.31755 15.1814 5.31095C15.1742 5.30435 15.1695 5.29549 15.168 5.28583Z" fill="url(#paint1_linear_774_2851)"/>
<path d="M19.2051 2.09961C18.57 2.09961 17.9492 2.28793 17.4212 2.64075C16.8931 2.99357 16.4816 3.49505 16.2386 4.08177C15.9955 4.66849 15.9319 5.31411 16.0558 5.93697C16.1797 6.55983 16.4855 7.13196 16.9346 7.58102C17.3837 8.03008 17.9558 8.33589 18.5787 8.45978C19.2015 8.58368 19.8471 8.52009 20.4338 8.27706C21.0206 8.03403 21.522 7.62248 21.8749 7.09444C22.2277 6.56641 22.416 5.94561 22.416 5.31054C22.416 4.45895 22.0777 3.64224 21.4756 3.04007C20.8734 2.4379 20.0567 2.09961 19.2051 2.09961ZM19.2051 7.80207C18.7123 7.80207 18.2306 7.65595 17.8209 7.38217C17.4111 7.1084 17.0918 6.71928 16.9032 6.26401C16.7146 5.80874 16.6653 5.30778 16.7614 4.82447C16.8576 4.34116 17.0949 3.89722 17.4433 3.54877C17.7917 3.20032 18.2357 2.96303 18.719 2.86689C19.2023 2.77075 19.7033 2.8201 20.1585 3.00867C20.6138 3.19725 21.0029 3.5166 21.2767 3.92633C21.5505 4.33606 21.6966 4.81777 21.6966 5.31054C21.6966 5.97134 21.4341 6.60507 20.9669 7.07232C20.4996 7.53957 19.8659 7.80207 19.2051 7.80207Z" fill="url(#paint2_linear_774_2851)"/>
<path style="mix-blend-mode:multiply" opacity="0.2" d="M19.1875 9.94635C18.4514 9.94742 17.7227 9.79811 17.0463 9.50757C16.3699 9.21703 15.76 8.79138 15.2539 8.25673C16.3485 10.2533 17.6575 12.1244 19.1578 13.8371C19.1702 13.8492 19.1868 13.856 19.204 13.856C19.2213 13.856 19.2379 13.8492 19.2502 13.8371C19.6133 13.5071 22.0685 10.6691 23.3027 8.04883C22.7948 8.64391 22.1639 9.12173 21.4534 9.44933C20.743 9.77693 19.9699 9.9465 19.1875 9.94635Z" fill="url(#paint3_linear_774_2851)"/>
<path style="mix-blend-mode:screen" opacity="0.3" d="M22.0033 9.18437C21.9941 9.18091 21.9839 9.18103 21.9747 9.18469C21.9656 9.18835 21.9581 9.1953 21.9538 9.20417C21.7861 9.54763 21.585 9.87371 21.3532 10.1777C21.1255 10.4879 20.8912 10.7915 20.647 11.0885C20.1828 11.6561 19.7021 12.2061 19.2049 12.7385C18.7099 12.1995 18.2292 11.6495 17.7628 11.0885C17.5186 10.7915 17.2843 10.4879 17.0566 10.1777C16.8248 9.87371 16.6237 9.54763 16.456 9.20417C16.451 9.19504 16.443 9.18801 16.4333 9.18437C16.4236 9.18073 16.4129 9.18073 16.4032 9.18437C16.3943 9.18867 16.3874 9.19613 16.3837 9.20529C16.38 9.21444 16.3799 9.22463 16.3834 9.23387C16.5472 9.58701 16.7439 9.92399 16.9708 10.2404C17.1919 10.5704 17.4196 10.8674 17.6572 11.171C18.1324 11.7815 18.6241 12.3722 19.1323 12.953L19.1587 12.9695H19.1851H19.2115H19.2346L19.261 12.953C19.7692 12.3722 20.251 11.7815 20.7361 11.171C20.9704 10.8674 21.2014 10.5572 21.4225 10.2404C21.6495 9.92469 21.8452 9.58758 22.0066 9.23387C22.0125 9.22674 22.0154 9.21766 22.0148 9.20847C22.0141 9.19927 22.0101 9.19066 22.0033 9.18437Z" fill="url(#paint4_linear_774_2851)"/>
<path style="mix-blend-mode:multiply" opacity="0.2" d="M20.2152 2.35938C20.3983 2.41096 20.572 2.49115 20.7301 2.59698L20.3538 3.07218L20.0898 2.95338L20.2152 2.35938Z" fill="url(#paint5_linear_774_2851)"/>
<path style="mix-blend-mode:multiply" opacity="0.2" d="M16.9417 4.1484C17.1694 3.7623 17.4631 3.3069 17.8426 3.15839C17.6842 2.85479 17.5489 2.61719 17.5489 2.61719C17.0408 2.91673 16.6365 3.36473 16.3906 3.9009C16.6546 4.0065 16.9417 4.1484 16.9417 4.1484Z" fill="url(#paint6_linear_774_2851)"/>
<path style="mix-blend-mode:screen" opacity="0.3" d="M20.2152 8.31046C20.3974 8.26588 20.5712 8.19234 20.7301 8.09266L20.3538 7.59766L20.0898 7.71646L20.2152 8.31046Z" fill="url(#paint7_linear_774_2851)"/>
<path style="mix-blend-mode:screen" opacity="0.2" d="M16.9417 6.47266C17.1694 6.85876 17.4631 7.31417 17.8426 7.46267C17.6842 7.76627 17.5489 8.00387 17.5489 8.00387C17.0408 7.70433 16.6365 7.25633 16.3906 6.72016C16.6546 6.61456 16.9417 6.47266 16.9417 6.47266Z" fill="url(#paint8_linear_774_2851)"/>
<path style="mix-blend-mode:screen" opacity="0.1" d="M19.2061 0.782504C20.3987 0.783954 21.5616 1.15394 22.5358 1.84181C21.6399 0.98204 20.4462 0.501953 19.2044 0.501953C17.9627 0.501953 16.769 0.98204 15.873 1.84181C16.8482 1.15329 18.0124 0.783274 19.2061 0.782504Z" fill="url(#paint9_linear_774_2851)"/>
<g style="mix-blend-mode:screen" opacity="0.4">
<path d="M22.3656 5.87695C22.3072 6.24178 22.1855 6.59359 22.0059 6.91646C21.8213 7.23596 21.5836 7.52165 21.303 7.76127C21.0221 8.00591 20.7004 8.19916 20.3525 8.33218C20.0032 8.46464 19.6338 8.53608 19.2602 8.54338C18.5092 8.55671 17.7772 8.30687 17.1911 7.83717C16.9032 7.60397 16.6567 7.32395 16.4618 7.00886C16.2694 6.69288 16.1343 6.34546 16.0625 5.98255C16.1478 6.34036 16.2941 6.68083 16.4948 6.98906C16.6906 7.29688 16.9385 7.56823 17.2274 7.79097C17.5163 8.01533 17.841 8.18937 18.1877 8.30578C18.8845 8.53496 19.6384 8.521 20.3261 8.26618C20.6666 8.13656 20.9833 7.95146 21.2634 7.71837C21.5409 7.4868 21.7774 7.21013 21.963 6.89996C22.1539 6.58412 22.2901 6.23823 22.3656 5.87695Z" fill="white"/>
</g>
<g style="mix-blend-mode:screen" opacity="0.3">
<path d="M16.0039 5.0519C16.0413 4.44459 16.2512 3.86056 16.6089 3.36837C16.9667 2.87619 17.4574 2.49628 18.0235 2.27327C18.4015 2.12313 18.8048 2.04695 19.2115 2.04886C19.8232 2.04951 20.422 2.22468 20.9375 2.55378C21.4531 2.88288 21.8641 3.35225 22.1222 3.90678C22.2898 4.27241 22.3861 4.66666 22.406 5.0684V4.91989L22.3631 4.79119C22.3631 4.74169 22.3433 4.69219 22.3301 4.64269C22.3169 4.59319 22.307 4.54699 22.2938 4.50079C22.1752 4.07003 21.9677 3.66887 21.6847 3.32313C21.4017 2.97738 21.0495 2.6947 20.6507 2.49327C20.2519 2.29185 19.8153 2.17614 19.3691 2.1536C18.9229 2.13105 18.4769 2.20217 18.0598 2.36237C17.6948 2.50409 17.3591 2.7122 17.0698 2.97617C16.4701 3.51251 16.0904 4.252 16.0039 5.0519Z" fill="white"/>
</g>
<path d="M20.7826 3.75491C20.7832 3.75603 20.7836 3.75718 20.7839 3.75836C20.7915 3.76109 20.7999 3.76597 20.8057 3.77471L20.8816 3.81431C20.9014 3.81431 20.9344 3.81431 20.8816 3.79121C20.8354 3.76481 20.7793 3.71531 20.7397 3.69551C20.7001 3.67571 20.6968 3.65921 20.6803 3.65921L20.644 3.60311C20.6267 3.58903 20.6079 3.57685 20.5879 3.56681H20.5648C20.5384 3.53711 20.5252 3.56681 20.4889 3.53711H20.4427H20.4196H20.4097H20.4031H20.38C20.3701 3.53711 20.38 3.53711 20.38 3.55691C20.38 3.57671 20.3602 3.55691 20.3602 3.55691V3.57341H20.3404H20.2975H20.2678C20.2546 3.57341 20.2678 3.57341 20.2678 3.59981C20.265 3.61619 20.265 3.63293 20.2678 3.64931C20.2712 3.66196 20.278 3.6734 20.2876 3.68231C20.2913 3.68495 20.2953 3.68715 20.2994 3.68891H20.314V3.6931C20.3173 3.69362 20.3206 3.69389 20.3239 3.69389C20.3369 3.69389 20.3496 3.68984 20.3602 3.68231H20.3965H20.4163L20.4361 3.71861L20.4592 3.74831H20.314V3.71531V3.6931C20.309 3.6923 20.3041 3.69089 20.2994 3.68891C20.2953 3.68715 20.2913 3.68495 20.2876 3.68231C20.278 3.6734 20.2712 3.66196 20.2678 3.64931C20.265 3.63293 20.265 3.61619 20.2678 3.59981C20.2678 3.57341 20.2546 3.57341 20.2678 3.57341H20.2975H20.3404H20.3602V3.55691C20.3602 3.55691 20.38 3.57671 20.38 3.55691C20.38 3.53711 20.3701 3.53711 20.38 3.53711H20.4031H20.4097H20.4196H20.4427H20.4889C20.5252 3.56681 20.5384 3.53711 20.5648 3.56681H20.5879C20.6079 3.57685 20.6267 3.58903 20.644 3.60311L20.6803 3.65921C20.6968 3.65921 20.7001 3.67571 20.7397 3.69551C20.7793 3.71531 20.8354 3.76481 20.8816 3.79121C20.9344 3.81431 20.9014 3.81431 20.8816 3.81431L20.8057 3.77471C20.7999 3.76597 20.7915 3.76109 20.7839 3.75836C20.7744 3.75491 20.7661 3.75491 20.7661 3.75491H20.7826Z" fill="url(#paint10_linear_774_2851)"/>
<path d="M19.3232 3.3001C19.3217 3.29471 19.3217 3.28899 19.3232 3.2836C19.3232 3.2836 19.3232 3.3067 19.3661 3.31H19.3991C19.3991 3.31 19.3991 3.2737 19.376 3.2671C19.3809 3.26165 19.3836 3.25461 19.3836 3.2473C19.3836 3.23999 19.3809 3.23295 19.376 3.2275C19.3845 3.22419 19.394 3.22419 19.4024 3.2275C19.4024 3.2275 19.4024 3.2275 19.4189 3.2275C19.4354 3.2275 19.442 3.2275 19.4618 3.2011C19.4816 3.1747 19.4618 3.2011 19.4816 3.2011C19.4764 3.19892 19.4708 3.1978 19.4651 3.1978C19.4595 3.1978 19.4539 3.19892 19.4486 3.2011H19.4255C19.4255 3.2011 19.4255 3.2011 19.4255 3.1846C19.4255 3.1846 19.4255 3.1846 19.4255 3.1648C19.4271 3.16892 19.4294 3.17269 19.4324 3.17592C19.4353 3.17914 19.4389 3.18175 19.4429 3.18358C19.4469 3.18542 19.4512 3.18646 19.4556 3.18663C19.46 3.18681 19.4643 3.18612 19.4684 3.1846C19.4726 3.18308 19.4763 3.18077 19.4796 3.17779C19.4828 3.17482 19.4854 3.17123 19.4872 3.16725C19.4891 3.16327 19.4901 3.15896 19.4903 3.15458C19.4905 3.15019 19.4898 3.14582 19.4882 3.1417C19.4882 3.1252 19.4882 3.1252 19.4882 3.1054C19.4882 3.0691 19.4882 3.0757 19.5146 3.0625C19.5146 3.0625 19.5146 3.0625 19.4981 3.0625C19.4981 3.0625 19.4981 3.0427 19.5278 3.0625C19.5278 3.0625 19.5278 3.0625 19.5509 3.0625C19.574 3.0625 19.5773 3.0625 19.5905 3.0625C19.5905 3.0625 19.6103 3.0625 19.6169 3.0625C19.604 3.05865 19.5903 3.05865 19.5773 3.0625C19.5773 3.0625 19.5179 3.0625 19.5113 3.0625C19.5113 3.0625 19.5113 3.0625 19.4882 3.0625C19.4882 3.0625 19.4882 3.0625 19.4684 3.0625C19.4684 3.0625 19.4684 3.0625 19.4486 3.0625C19.3859 3.0625 19.3694 3.0625 19.3562 3.0427C19.3487 3.04088 19.3407 3.04088 19.3331 3.0427C19.3265 3.03948 19.3191 3.03781 19.3117 3.03781C19.3043 3.03781 19.2969 3.03948 19.2902 3.0427H19.2572C19.1842 3.04289 19.1113 3.04952 19.0394 3.0625H19.013C18.9728 3.06466 18.933 3.0713 18.8942 3.0823C18.8942 3.0823 18.8942 3.0823 18.8744 3.0823C18.8546 3.0823 18.8744 3.0823 18.8546 3.0823H18.8381C18.8381 3.0823 18.815 3.0823 18.7985 3.0823C18.7985 3.0823 18.7721 3.0823 18.7028 3.1054C18.7028 3.1054 18.7028 3.1054 18.683 3.1054C18.6599 3.1054 18.6566 3.1054 18.6566 3.1054C18.6566 3.1054 18.6236 3.1054 18.6104 3.1054L18.5411 3.1252C18.4371 3.1568 18.3373 3.20113 18.2441 3.2572C18.2177 3.2902 18.1946 3.277 18.1583 3.3133C18.1393 3.32187 18.1216 3.33297 18.1055 3.3463C18.1055 3.3463 18.1055 3.3463 18.1055 3.3628H18.0824C18.0824 3.3628 18.0824 3.3628 18.0593 3.3628C18.0441 3.37249 18.0297 3.38353 18.0164 3.3958L17.9801 3.4321C17.9801 3.4321 17.9801 3.4321 17.9999 3.4321C17.9999 3.4321 17.9999 3.4321 18.0197 3.4321C18.0395 3.4321 18.0824 3.4057 18.0923 3.4024C18.1083 3.39517 18.1228 3.38511 18.1352 3.3727C18.1352 3.3727 18.1352 3.3727 18.1352 3.3925H18.1187L18.0824 3.4123C18.0593 3.4123 18.0461 3.4354 18.0395 3.4321C18.0251 3.43743 18.0117 3.44525 17.9999 3.4552H17.9768C17.9768 3.4552 17.9768 3.4552 17.9603 3.4552H17.9801C17.9865 3.45294 17.9935 3.45294 17.9999 3.4552C17.9795 3.44966 17.9582 3.44826 17.9372 3.45109C17.9162 3.45393 17.896 3.46094 17.8778 3.4717C17.8778 3.4717 17.8778 3.4717 17.9273 3.4519L17.9702 3.4321L18.0164 3.4123C18.0164 3.4123 18.0164 3.4123 18.0362 3.3958C18.0112 3.39556 17.9868 3.40369 17.9669 3.4189C17.9473 3.42698 17.9285 3.43692 17.9108 3.4486L17.8613 3.4684C17.891 3.4387 17.891 3.4486 17.9042 3.442C17.9174 3.4354 17.9471 3.442 17.9702 3.4057L18.0098 3.3892H18.0296C18.0296 3.3892 18.0494 3.3892 18.056 3.3892C18.056 3.3892 18.056 3.3892 18.0758 3.3892C18.0758 3.3892 18.0758 3.3892 18.056 3.3892C18.056 3.3694 18.0725 3.3892 18.0857 3.3661L18.1253 3.3364H18.1649C18.1908 3.35872 18.2244 3.36987 18.2584 3.36739C18.2925 3.36492 18.3241 3.34902 18.3464 3.3232C18.3688 3.29738 18.3799 3.26375 18.3774 3.22972C18.3749 3.19568 18.3591 3.16402 18.3332 3.1417C18.3596 3.1417 18.386 3.112 18.4124 3.1021C18.4124 3.1021 18.4322 3.1021 18.4388 3.1021C18.4388 3.1285 18.4388 3.1021 18.3926 3.1285L18.3398 3.1582C18.3398 3.1582 18.3398 3.1582 18.32 3.1582C18.32 3.1582 18.32 3.1582 18.3596 3.1582C18.3297 3.16685 18.3009 3.17904 18.2738 3.1945L18.2177 3.2242H18.254C18.2529 3.22964 18.2529 3.23526 18.254 3.2407C18.2837 3.2407 18.287 3.2407 18.2969 3.2407C18.3141 3.24648 18.3326 3.24648 18.3497 3.2407C18.3497 3.2407 18.3695 3.2407 18.3794 3.2407C18.3794 3.2407 18.3794 3.2407 18.4058 3.2407C18.4322 3.2407 18.4454 3.2407 18.4553 3.2407C18.4652 3.2407 18.4883 3.2407 18.4949 3.2572C18.4949 3.2572 18.5213 3.2572 18.5246 3.2803C18.5368 3.29529 18.5437 3.31382 18.5444 3.3331C18.5503 3.33694 18.5572 3.33898 18.5642 3.33898C18.5713 3.33898 18.5781 3.33694 18.584 3.3331C18.584 3.3166 18.584 3.3529 18.6104 3.3331H18.5807C18.5807 3.3331 18.5807 3.3331 18.5807 3.3496C18.5807 3.3496 18.6104 3.3496 18.6302 3.3496C18.6302 3.3661 18.6302 3.376 18.6137 3.3793C18.5972 3.3826 18.5807 3.3793 18.5675 3.4024C18.5543 3.4255 18.5675 3.4387 18.5675 3.4486C18.5675 3.4585 18.5972 3.4783 18.5972 3.5047C18.5972 3.5311 18.5972 3.5245 18.5972 3.541C18.5972 3.541 18.6137 3.541 18.6203 3.5608C18.6203 3.5608 18.6434 3.5905 18.6533 3.6037C18.6632 3.6169 18.6698 3.6037 18.716 3.6037C18.716 3.6037 18.7424 3.6037 18.7589 3.6037C18.7614 3.60515 18.7643 3.60591 18.7672 3.60591C18.7701 3.60591 18.7729 3.60515 18.7754 3.6037C18.7754 3.6037 18.7985 3.5707 18.7985 3.5509C18.7985 3.5311 18.8183 3.5311 18.8282 3.508C18.8282 3.508 18.8282 3.4882 18.8282 3.475C18.848 3.475 18.8579 3.4486 18.8876 3.4519C18.9173 3.4552 18.9371 3.4321 18.9602 3.4288C18.966 3.42703 18.9714 3.42405 18.9759 3.42007C18.9805 3.41609 18.9841 3.41119 18.9866 3.4057H19.0097C19.0448 3.41023 19.0803 3.41023 19.1153 3.4057C19.1326 3.41065 19.1509 3.41065 19.1681 3.4057C19.191 3.39352 19.2154 3.38463 19.2407 3.3793C19.2703 3.35508 19.2978 3.3286 19.3232 3.3001ZM17.9702 3.3694C17.9702 3.3694 17.9768 3.3463 17.9702 3.3529V3.3694ZM18.0032 3.2968C18.0032 3.2968 18.0032 3.2968 17.9867 3.2968H18.0032ZM19.2671 3.2836H19.3232C19.3073 3.27378 19.2891 3.26811 19.2704 3.2671L19.2671 3.2836ZM19.3496 3.2605C19.3496 3.2605 19.3232 3.2671 19.3232 3.2605H19.3496Z" fill="url(#paint11_linear_774_2851)"/>
<path d="M19.0596 6.0274C19.0596 5.9845 19.0266 6.0274 19.0068 5.9977C18.987 5.968 18.9837 5.968 18.921 5.9218C18.9174 5.92005 18.9135 5.91914 18.9095 5.91914C18.9055 5.91914 18.9015 5.92005 18.8979 5.9218C18.8849 5.92515 18.8713 5.92515 18.8583 5.9218H18.8352C18.8322 5.92006 18.8288 5.91914 18.8253 5.91914C18.8218 5.91914 18.8184 5.92006 18.8154 5.9218C18.7758 5.9218 18.7923 5.8888 18.7659 5.8822C18.7197 5.8558 18.7065 5.8657 18.6867 5.8459C18.6793 5.82658 18.6705 5.80784 18.6603 5.7898C18.6583 5.78271 18.6546 5.77626 18.6494 5.77106C18.6442 5.76586 18.6377 5.76208 18.6306 5.7601C18.6292 5.75468 18.6292 5.74901 18.6306 5.7436C18.6306 5.7436 18.6306 5.7436 18.6306 5.7205C18.6304 5.71076 18.6278 5.70122 18.6233 5.69263C18.6187 5.68404 18.6122 5.67663 18.6042 5.67099C18.5415 5.61819 18.5184 5.60499 18.4887 5.61819C18.459 5.63139 18.4095 5.56869 18.393 5.54559C18.3899 5.54413 18.3865 5.54336 18.3831 5.54336C18.3797 5.54336 18.3763 5.54413 18.3732 5.54559C18.3591 5.52485 18.3412 5.50695 18.3204 5.49279V5.46969C18.3204 5.46969 18.3204 5.46969 18.3204 5.48619C18.3204 5.50269 18.3204 5.48619 18.3006 5.48619V5.46639C18.3006 5.46639 18.2808 5.46639 18.2709 5.46639C18.2379 5.48949 18.2412 5.44329 18.195 5.46639C18.1488 5.48949 18.1719 5.46639 18.1653 5.46639C18.1587 5.46639 18.1653 5.44329 18.1389 5.44329C18.1375 5.43677 18.1375 5.43001 18.1389 5.42349C18.1389 5.42349 18.1389 5.42349 18.1389 5.44329C18.1389 5.44329 18.1389 5.41689 18.1389 5.41029C18.1389 5.40369 18.1389 5.41029 18.1158 5.41029C18.0663 5.47299 18.0234 5.43009 18.0168 5.48619V5.50269C18.0168 5.50269 17.997 5.52579 17.9871 5.53569C17.9772 5.54559 17.9871 5.53569 17.9574 5.51589C17.9277 5.49609 17.8782 5.55219 17.8485 5.51589C17.8188 5.47959 17.7924 5.46969 17.8023 5.42019C17.8057 5.39943 17.8057 5.37825 17.8023 5.35749C17.8023 5.34099 17.8023 5.31459 17.7792 5.31789C17.7685 5.31458 17.757 5.31458 17.7462 5.31789C17.7264 5.31789 17.7066 5.31789 17.6868 5.31789C17.667 5.31789 17.6868 5.31789 17.6868 5.29809C17.6868 5.27829 17.6868 5.25849 17.7033 5.23869C17.7198 5.21889 17.7033 5.21889 17.7033 5.21229C17.7033 5.20569 17.733 5.17269 17.7231 5.14299C17.7132 5.11329 17.7231 5.14299 17.7066 5.14299C17.6869 5.1399 17.6669 5.1399 17.6472 5.14299C17.5911 5.15949 17.6274 5.20899 17.5845 5.22219C17.5416 5.23539 17.5317 5.25189 17.5185 5.24529C17.5053 5.23869 17.4756 5.22549 17.469 5.19249C17.466 5.18574 17.4645 5.17843 17.4645 5.17104C17.4645 5.16365 17.466 5.15634 17.469 5.14959C17.469 5.12649 17.469 5.10009 17.469 5.08359C17.4645 5.07078 17.4645 5.0568 17.469 5.04399C17.4739 5.03486 17.4765 5.02465 17.4765 5.01429C17.4765 5.00392 17.4739 4.99372 17.469 4.98459C17.469 4.98459 17.469 4.98459 17.469 4.96149C17.469 4.93839 17.5119 4.93509 17.5449 4.89549H17.5812H17.6109C17.6109 4.89549 17.6472 4.89549 17.6604 4.89549C17.6604 4.89549 17.6604 4.89549 17.6604 4.87569H17.6934C17.6934 4.87569 17.6934 4.87569 17.7132 4.87569C17.7177 4.87308 17.7228 4.87171 17.7281 4.87171C17.7333 4.87171 17.7384 4.87308 17.7429 4.87569C17.7594 4.89549 17.7726 4.87569 17.7858 4.87569C17.7946 4.88184 17.8015 4.8904 17.8056 4.90034C17.8097 4.91029 17.8108 4.92121 17.8089 4.93179C17.8089 4.95489 17.8089 4.95819 17.832 5.00769C17.8551 5.05719 17.832 5.04729 17.8056 5.05059H17.8485C17.8485 5.05059 17.8485 5.05059 17.8485 5.03409C17.8534 5.02261 17.8559 5.01027 17.8559 4.99779C17.8559 4.98531 17.8534 4.97296 17.8485 4.96149C17.8446 4.94021 17.839 4.91925 17.832 4.89879C17.8302 4.89119 17.8302 4.88328 17.832 4.87569C17.8288 4.86957 17.8272 4.86278 17.8272 4.85589C17.8272 4.84899 17.8288 4.8422 17.832 4.83609C17.8388 4.82084 17.849 4.80731 17.8617 4.79649C17.8811 4.78417 17.897 4.76713 17.9079 4.74698C17.9121 4.75048 17.9173 4.75239 17.9228 4.75239C17.9282 4.75239 17.9334 4.75048 17.9376 4.74698C17.9376 4.74698 17.964 4.74698 17.9772 4.72058C17.9789 4.71757 17.9799 4.71416 17.9799 4.71068C17.9799 4.70721 17.9789 4.70379 17.9772 4.70078C17.9772 4.70078 17.9607 4.67768 17.9772 4.65458C17.9928 4.62376 18.0105 4.594 18.03 4.56548V4.54898C18.03 4.54898 18.063 4.54898 18.0762 4.52258C18.1092 4.52258 18.1224 4.52258 18.1257 4.52258C18.1257 4.52258 18.1257 4.47308 18.1257 4.46318C18.156 4.44972 18.1847 4.43313 18.2115 4.41368C18.2251 4.40397 18.2411 4.39825 18.2577 4.39718C18.2564 4.40101 18.2542 4.40449 18.2514 4.40735C18.2485 4.41021 18.245 4.41238 18.2412 4.41368C18.2382 4.41806 18.2366 4.42323 18.2366 4.42853C18.2366 4.43383 18.2382 4.439 18.2412 4.44338C18.2412 4.44338 18.2742 4.40708 18.2973 4.40708C18.3265 4.39495 18.3542 4.37944 18.3798 4.36088C18.3963 4.36088 18.3798 4.36088 18.3798 4.33118C18.3798 4.30148 18.3798 4.33118 18.3402 4.35758C18.335 4.36159 18.3286 4.36377 18.3221 4.36377C18.3155 4.36377 18.3091 4.36159 18.3039 4.35758C18.2986 4.35108 18.2956 4.34291 18.2956 4.33448C18.2956 4.32605 18.2986 4.31788 18.3039 4.31138C18.3039 4.31138 18.2742 4.31138 18.2643 4.31138C18.2761 4.3154 18.2888 4.3154 18.3006 4.31138C18.2632 4.31371 18.2275 4.32754 18.1983 4.35098C18.1983 4.35098 18.2478 4.32458 18.261 4.30478C18.2742 4.28498 18.2775 4.28168 18.2874 4.28168C18.3864 4.25198 18.4293 4.28168 18.4755 4.23878C18.493 4.2209 18.5166 4.21029 18.5415 4.20908C18.5415 4.20908 18.5184 4.24208 18.5052 4.25858C18.492 4.27508 18.4623 4.31468 18.4656 4.32788H18.4887C18.5052 4.32788 18.5217 4.32788 18.5349 4.32788C18.5481 4.32788 18.5349 4.35758 18.558 4.34768C18.5811 4.33778 18.5811 4.32788 18.5844 4.34768C18.5877 4.36748 18.6009 4.34768 18.6042 4.34768C18.6075 4.34768 18.624 4.34768 18.6339 4.32458C18.6339 4.32458 18.6339 4.30478 18.6339 4.29818C18.6314 4.28844 18.6314 4.27822 18.6339 4.26848C18.6339 4.24208 18.591 4.26848 18.5745 4.25198C18.5745 4.25198 18.5745 4.25198 18.5745 4.23218V4.21238C18.5745 4.21238 18.5745 4.16288 18.5547 4.15958C18.5506 4.15893 18.5467 4.15698 18.5438 4.15402C18.5408 4.15105 18.5389 4.14722 18.5382 4.14308C18.5382 4.11668 18.5118 4.14308 18.5052 4.14308C18.4986 4.14308 18.4722 4.14308 18.459 4.11998C18.4458 4.09688 18.459 4.11998 18.459 4.10018C18.459 4.10018 18.459 4.10018 18.4425 4.08368C18.426 4.06718 18.3336 3.71737 18.3336 3.70087C18.3336 3.70087 18.3336 3.71737 18.3138 3.72727C18.3089 3.73719 18.3021 3.74613 18.294 3.75367C18.2511 3.78667 18.2412 3.75367 18.2313 3.75367C18.2214 3.75367 18.2115 3.73387 18.2313 3.70417C18.2313 3.70417 18.195 3.70417 18.1917 3.70417C18.1884 3.70417 18.1686 3.70417 18.1587 3.68437H18.1389C18.1195 3.69025 18.0989 3.69025 18.0795 3.68437C18.0597 3.68437 18.0333 3.68437 18.0399 3.71407C18.0399 3.71407 18.0399 3.74047 18.0399 3.75697C18.0399 3.77347 18.0003 3.79657 18.0168 3.80317C18.0168 3.80317 18.0366 3.82627 18.0168 3.84608C17.998 3.87582 17.9703 3.8989 17.9376 3.91208C17.9178 3.91208 17.9376 3.93518 17.9376 3.94508C17.9359 3.95601 17.9359 3.96714 17.9376 3.97808C17.9376 3.97808 17.9376 3.99458 17.9376 3.99788C17.9376 4.00118 17.9376 3.99788 17.9211 3.99788C17.9046 3.99788 17.9211 3.99788 17.9013 3.99788C17.8815 3.99788 17.9013 3.99788 17.8848 3.99788V3.98138C17.8848 3.98138 17.8485 3.98138 17.8584 3.94838C17.8683 3.91538 17.8584 3.92198 17.8584 3.92528H17.8254C17.8023 3.92528 17.799 3.92528 17.7726 3.92528C17.7649 3.91988 17.7556 3.91699 17.7462 3.91699C17.7368 3.91699 17.7276 3.91988 17.7198 3.92528C17.7198 3.92528 17.7198 3.92528 17.6835 3.92528C17.6472 3.92528 17.6637 3.92528 17.6604 3.90548C17.6571 3.88568 17.6604 3.90548 17.6373 3.90548C17.6142 3.90548 17.6373 3.87248 17.6373 3.85598L17.6604 3.82957L17.6901 3.80317C17.6901 3.80317 17.7165 3.77677 17.7297 3.77347C17.7429 3.77017 17.7495 3.73717 17.7759 3.73057C17.7952 3.72114 17.813 3.70891 17.8287 3.69427C17.8287 3.69427 17.8287 3.69427 17.8287 3.67447H17.8452C17.847 3.67983 17.847 3.68561 17.8452 3.69097C17.8403 3.70725 17.8297 3.72126 17.8155 3.73057H17.8353C17.8617 3.73057 17.865 3.69757 17.8815 3.70417H17.9244C17.9244 3.70417 17.9244 3.70417 17.9013 3.70417C17.8782 3.70417 17.9013 3.68767 17.9013 3.70417C17.9013 3.72067 17.8815 3.70417 17.865 3.70417L17.8947 3.68107C17.9574 3.64147 17.8947 3.65467 17.9211 3.63157C17.9475 3.60847 17.9409 3.61177 17.9211 3.60187C17.9211 3.60187 17.9574 3.60187 17.9904 3.57217C17.9904 3.57217 17.9904 3.57217 17.9904 3.59197C17.9904 3.61177 17.9706 3.59197 17.9673 3.59197C17.9838 3.59197 17.9673 3.59197 17.9937 3.59197C18.0201 3.59197 17.9937 3.56887 18.0201 3.54577C18.0201 3.54577 18.0366 3.54577 18.0201 3.57547C18.0036 3.60517 18.0201 3.57547 18.0201 3.59527H18.0531C18.0531 3.59527 18.096 3.56887 18.096 3.59527L18.0762 3.61507C18.0762 3.61507 18.0465 3.64147 18.03 3.64477C18.0135 3.64807 18.03 3.66127 18.0036 3.66457C17.9907 3.66916 17.9793 3.67714 17.9706 3.68767C17.9706 3.68767 17.9937 3.68767 18.0069 3.68767C18.0222 3.67799 18.04 3.67286 18.0581 3.67286C18.0762 3.67286 18.0939 3.67799 18.1092 3.68767H18.129C18.129 3.68767 18.1455 3.68767 18.1521 3.68767H18.1686H18.2346C18.2249 3.68483 18.2146 3.68483 18.2049 3.68767C18.2049 3.68767 18.2346 3.68767 18.2511 3.68767C18.2676 3.68767 18.2511 3.68767 18.2709 3.68767C18.2709 3.67117 18.2478 3.67117 18.2709 3.64477C18.294 3.61837 18.3072 3.66787 18.3468 3.66457C18.3468 3.66457 18.3732 3.64147 18.3831 3.62827L18.3666 3.47317C18.3616 3.47027 18.3559 3.46875 18.3501 3.46875C18.3443 3.46875 18.3386 3.47027 18.3336 3.47317C18.3195 3.47631 18.3048 3.47631 18.2907 3.47317H18.2709C18.2709 3.47317 18.2709 3.47317 18.2511 3.47317C18.2475 3.47163 18.2435 3.47083 18.2396 3.47083C18.2356 3.47083 18.2317 3.47163 18.228 3.47317C18.2231 3.47643 18.2174 3.47818 18.2115 3.47818C18.2056 3.47818 18.1999 3.47643 18.195 3.47317C18.195 3.47317 18.195 3.47317 18.1686 3.47317C18.1686 3.47317 18.1422 3.47317 18.1158 3.47317C18.0894 3.47317 18.1158 3.47317 18.096 3.47317C18.096 3.47317 18.0729 3.47317 18.0498 3.47317L18.0168 3.48967C18.0168 3.48967 17.997 3.48967 17.9805 3.48967C17.964 3.48967 17.9574 3.48967 17.9475 3.50617C17.9286 3.5201 17.9119 3.53679 17.898 3.55567C17.898 3.55567 17.898 3.57217 17.898 3.57877C17.898 3.58537 17.898 3.57877 17.9211 3.57877C17.9442 3.57877 17.9376 3.57877 17.9508 3.57877V3.61177C17.9461 3.62187 17.9394 3.63086 17.931 3.63817V3.61507C17.931 3.61507 17.931 3.61507 17.9079 3.61507C17.9079 3.61507 17.9079 3.61507 17.9079 3.59527L17.9244 3.57877C17.9355 3.57582 17.9457 3.57015 17.9541 3.56227H17.9112L17.865 3.58537C17.8556 3.59255 17.8478 3.60153 17.8419 3.61177C17.8419 3.61177 17.8419 3.62827 17.8419 3.61177C17.8375 3.62204 17.8307 3.6311 17.8221 3.63817C17.8221 3.63817 17.8221 3.65797 17.8221 3.66127C17.8221 3.66127 17.8221 3.66127 17.799 3.66127L17.7726 3.68437H17.7924L17.7726 3.70417C17.7726 3.70417 17.7495 3.70417 17.7231 3.73057C17.707 3.7391 17.6905 3.74681 17.6736 3.75367H17.4756C17.4756 3.75367 17.4459 3.77017 17.4261 3.78337C17.4022 3.80091 17.3768 3.81636 17.3502 3.82957C17.3502 3.82957 17.3667 3.82957 17.3799 3.80317C17.3616 3.80801 17.3446 3.81705 17.3304 3.82957C17.0919 4.10217 16.9342 4.43588 16.875 4.79319C16.8948 4.85259 16.875 4.85589 16.8981 4.86249C16.9019 4.86379 16.9054 4.86595 16.9083 4.86881C16.9111 4.87168 16.9133 4.87516 16.9146 4.87899C16.9146 4.87899 16.9146 4.87899 16.8981 4.87899C16.8988 4.88487 16.9015 4.89035 16.9056 4.89454C16.9098 4.89873 16.9153 4.90139 16.9212 4.90209H16.9443C16.9674 4.91859 16.9443 4.93509 16.9443 4.94829C16.961 4.95636 16.974 4.97053 16.9806 4.98789V4.96809C16.9806 4.96809 16.9806 4.96809 16.9806 4.94499C16.9772 4.93312 16.9772 4.92055 16.9806 4.90869C16.9806 4.89219 16.9542 4.87899 16.9542 4.85589C16.9542 4.83609 16.9542 4.83279 16.9542 4.83279C16.9542 4.83279 16.9542 4.81629 16.9542 4.77999H16.9773C16.9773 4.77999 16.9773 4.77999 16.9773 4.79649C16.9773 4.79649 16.9773 4.81959 16.9773 4.83939C16.9773 4.83939 16.9773 4.83939 17.0004 4.85589C17.0004 4.85589 17.0004 4.87569 17.0235 4.88229C17.0466 4.88889 17.0235 4.90539 17.0235 4.91529H17.04V4.93179C17.0511 4.94641 17.061 4.96186 17.0697 4.97799C17.106 5.04069 17.0697 5.04729 17.0862 5.07699C17.1027 5.10669 17.1093 5.07699 17.1225 5.10669C17.1444 5.11569 17.1654 5.12674 17.1852 5.13969C17.2116 5.15619 17.2413 5.16609 17.2677 5.17929C17.2941 5.19249 17.3106 5.11329 17.3964 5.21889C17.4228 5.25189 17.4294 5.21889 17.4723 5.25849C17.4862 5.26327 17.5013 5.26327 17.5152 5.25849V5.27499C17.5212 5.28984 17.5302 5.30331 17.5416 5.31459C17.5713 5.34099 17.5416 5.36079 17.568 5.37399C17.5944 5.38719 17.6076 5.37399 17.6109 5.40369C17.6142 5.43339 17.6637 5.42349 17.6703 5.44329C17.6769 5.46309 17.6868 5.44329 17.6934 5.46309C17.7 5.48289 17.6934 5.46309 17.7099 5.46309C17.7099 5.46309 17.7099 5.44659 17.7297 5.42679C17.7297 5.42679 17.7297 5.42679 17.7462 5.44659C17.7627 5.46639 17.7726 5.49279 17.7792 5.51919C17.7775 5.53344 17.7775 5.54784 17.7792 5.56209C17.7792 5.57859 17.7792 5.59179 17.7792 5.60829C17.7792 5.60829 17.7792 5.63469 17.7594 5.63799C17.7396 5.64129 17.7594 5.69079 17.7198 5.69409C17.7232 5.71153 17.7232 5.72946 17.7198 5.7469C17.7181 5.76225 17.7181 5.77774 17.7198 5.7931C17.7198 5.7931 17.7198 5.8129 17.7462 5.8129C17.7404 5.81577 17.7352 5.81993 17.7312 5.82508C17.7272 5.83023 17.7244 5.83622 17.7231 5.8426C17.7231 5.8426 17.7231 5.8426 17.7231 5.8624C17.7231 5.8822 17.7231 5.8822 17.7231 5.8954C17.7231 5.9086 17.7528 5.9185 17.7627 5.9548C17.7778 5.97674 17.7911 5.99992 17.8023 6.0241C17.8518 6.1297 17.8716 6.133 17.8683 6.1627C17.8792 6.17397 17.8891 6.18611 17.898 6.199C17.9129 6.21225 17.9296 6.22335 17.9475 6.232C17.9937 6.2584 17.9904 6.2716 18.0135 6.2914C18.0112 6.30228 18.0112 6.31352 18.0135 6.3244C18.0135 6.397 18.0135 6.4135 18.0135 6.4366C18.0207 6.48142 18.0207 6.52709 18.0135 6.5719C18.0135 6.5719 18.0135 6.595 18.0135 6.6016C18.0135 6.6016 18.0135 6.62801 18.0135 6.64781C18.0182 6.67954 18.0182 6.71178 18.0135 6.74351C18.0115 6.74882 18.0115 6.75469 18.0135 6.76001C18.0135 6.76001 18.0135 6.78971 18.0135 6.79631C18.0135 6.80291 18.0135 6.79631 18.0135 6.81281C18.0283 6.83401 18.0353 6.85965 18.0333 6.88541C18.0363 6.90731 18.0363 6.92951 18.0333 6.95141C18.0333 6.95141 18.0531 6.97121 18.0531 6.95141C18.0548 6.94158 18.0548 6.93154 18.0531 6.92171C18.0544 6.92714 18.0544 6.93278 18.0531 6.93821C18.0511 6.94172 18.05 6.9457 18.05 6.94976C18.05 6.95381 18.0511 6.9578 18.0531 6.96131C18.0531 6.96131 18.0201 6.93821 18.0333 6.98111C18.036 6.98735 18.0374 6.9941 18.0374 7.00091C18.0374 7.00772 18.036 7.01446 18.0333 7.02071C18.0333 7.02071 18.0333 7.02071 18.0564 7.03721C18.0366 7.03721 18.0366 7.03721 18.0564 7.03721C18.0586 7.04921 18.0586 7.06151 18.0564 7.07351C18.0564 7.07351 18.0762 7.09001 18.0564 7.10321C18.0694 7.12669 18.0861 7.14787 18.1059 7.16591C18.1141 7.17853 18.1255 7.18878 18.1389 7.19561C18.1471 7.20527 18.1572 7.21313 18.1686 7.21871L18.2016 7.23851C18.2016 7.25831 18.2214 7.23851 18.2577 7.23851C18.2247 7.21541 18.2082 7.20221 18.2016 7.18241C18.195 7.16261 18.2016 7.15931 18.1719 7.13291C18.1422 7.10651 18.1884 7.13291 18.1719 7.09001C18.1554 7.04711 18.1884 7.09001 18.1983 7.06361C18.2034 7.05763 18.2062 7.05003 18.2062 7.04216C18.2062 7.03429 18.2034 7.02669 18.1983 7.02071H18.1719C18.1719 7.02071 18.1719 7.02071 18.1554 6.99431C18.1554 6.99431 18.1752 6.99431 18.1785 6.99431C18.1785 6.99431 18.1785 6.97451 18.1785 6.96461C18.1785 6.96461 18.1785 6.96461 18.2016 6.96461C18.2247 6.96461 18.2016 6.92501 18.2016 6.93161C18.2016 6.93821 18.2016 6.93161 18.1785 6.93161V6.90851C18.1785 6.90851 18.228 6.92501 18.2247 6.88541C18.2214 6.84581 18.2247 6.86231 18.2247 6.86561C18.2247 6.86891 18.2247 6.86561 18.2412 6.86561C18.2643 6.86561 18.2742 6.86561 18.2775 6.86561C18.284 6.86189 18.2895 6.85664 18.2935 6.85031C18.2976 6.84399 18.3 6.83678 18.3006 6.82931C18.2958 6.81541 18.2958 6.80031 18.3006 6.78641C18.3006 6.78641 18.3006 6.78641 18.327 6.78641C18.3534 6.78641 18.3798 6.75671 18.393 6.73691V6.70391L18.4095 6.68741C18.4095 6.68741 18.4095 6.66761 18.4095 6.65441L18.4359 6.62141C18.4656 6.58841 18.4359 6.5389 18.4359 6.5092C18.4453 6.49763 18.4564 6.48761 18.4689 6.4795C18.5052 6.4498 18.4986 6.4795 18.5151 6.4564C18.5316 6.4333 18.5151 6.4366 18.5448 6.4333C18.56 6.43671 18.5758 6.43671 18.591 6.4333C18.591 6.4333 18.6207 6.4333 18.6174 6.4003C18.6155 6.3916 18.6155 6.3826 18.6174 6.3739C18.6174 6.3739 18.6174 6.3739 18.6174 6.3508C18.6197 6.3444 18.6197 6.33741 18.6174 6.331C18.6174 6.331 18.6174 6.2914 18.6372 6.2782C18.657 6.265 18.6372 6.2782 18.6372 6.2584C18.6372 6.2386 18.6372 6.2089 18.6372 6.1825C18.6339 6.16062 18.6339 6.13838 18.6372 6.1165C18.6372 6.0967 18.6603 6.1165 18.6603 6.0835C18.6646 6.07178 18.6646 6.05892 18.6603 6.0472C18.6603 6.0472 18.6603 6.0472 18.6867 6.0109C18.6845 6.06035 18.7021 6.10864 18.7355 6.14516C18.7689 6.18167 18.8155 6.20341 18.8649 6.2056C18.9144 6.20779 18.9627 6.19024 18.9992 6.15682C19.0357 6.1234 19.0574 6.07685 19.0596 6.0274ZM17.8485 4.28168L17.8815 4.26518H17.9211C17.9165 4.2675 17.9114 4.26871 17.9063 4.26871C17.9011 4.26871 17.896 4.2675 17.8914 4.26518C17.865 4.26518 17.8419 4.26518 17.8419 4.26518L17.8485 4.28168ZM17.8485 4.31138C17.8485 4.31138 17.8188 4.33118 17.8056 4.34438C17.8056 4.34438 17.7858 4.36088 17.766 4.34438C17.7462 4.32788 17.766 4.34438 17.766 4.32788C17.7858 4.32788 17.766 4.30808 17.7957 4.30808C17.8254 4.30808 17.8485 4.30478 17.8518 4.32128L17.8485 4.31138ZM17.7759 4.21568C17.7759 4.21568 17.7759 4.21568 17.7759 4.24868C17.7742 4.25629 17.7742 4.26417 17.7759 4.27178C17.7759 4.27178 17.7759 4.29488 17.7561 4.29488C17.7363 4.29488 17.7561 4.26848 17.7561 4.27178C17.7561 4.27178 17.7561 4.24868 17.7561 4.23548C17.7632 4.23092 17.771 4.22757 17.7792 4.22558L17.7759 4.21568ZM17.7033 4.25858C17.699 4.25967 17.695 4.26171 17.6915 4.26457C17.6881 4.26743 17.6854 4.27102 17.6835 4.27508C17.6835 4.27508 17.6637 4.30808 17.6835 4.32458C17.6832 4.33348 17.6809 4.3422 17.6769 4.35017C17.673 4.35814 17.6673 4.36516 17.6604 4.37078C17.6604 4.37078 17.6373 4.37078 17.6406 4.37078C17.6414 4.34641 17.6482 4.3226 17.6604 4.30148C17.6612 4.29533 17.6633 4.28943 17.6668 4.28427C17.6702 4.27911 17.6748 4.27483 17.6802 4.27178L17.7198 4.25198L17.7033 4.25858ZM17.5647 4.23548C17.5647 4.21238 17.5977 4.20908 17.6241 4.18928C17.6426 4.17047 17.6671 4.15879 17.6934 4.15628C17.6934 4.15628 17.6934 4.17938 17.7165 4.17608C17.7182 4.18591 17.7182 4.19595 17.7165 4.20578C17.7165 4.20578 17.6934 4.20578 17.6835 4.20578C17.6736 4.20578 17.6538 4.20578 17.6406 4.20578C17.633 4.20427 17.6251 4.20427 17.6175 4.20578H17.5911L17.5647 4.23548ZM18.1851 3.53587C18.1851 3.51937 18.1851 3.51607 18.2049 3.53587C18.2247 3.55567 18.2049 3.53587 18.228 3.53587C18.2204 3.53747 18.2125 3.53747 18.2049 3.53587H18.1851ZM18.1851 3.58207C18.1851 3.58207 18.1917 3.57877 18.195 3.59197L18.1851 3.58207ZM18.0597 3.47317H18.0432C18.0432 3.47317 18.0498 3.47317 18.0597 3.47317ZM17.8617 3.63487H17.8419C17.8419 3.63487 17.8584 3.64807 17.8617 3.64807V3.63487Z" fill="url(#paint12_linear_774_2851)"/>
<path d="M17.5613 3.69632C17.5613 3.69632 17.5382 3.69632 17.5349 3.69632L17.558 3.66992C17.5428 3.67537 17.5292 3.68443 17.5184 3.69632L17.4986 3.71282C17.4986 3.71282 17.4986 3.71282 17.4986 3.73592C17.4915 3.73641 17.4845 3.73843 17.4783 3.74185C17.472 3.74527 17.4665 3.75 17.4623 3.75572L17.426 3.78542L17.3765 3.84812H17.4029L17.4392 3.82832L17.3633 3.88112C17.3633 3.88112 17.3633 3.88112 17.4161 3.85142L17.4821 3.80852H17.5019C17.5111 3.80392 17.519 3.79712 17.525 3.78872C17.5547 3.76562 17.5613 3.77222 17.5679 3.77222C17.5745 3.77222 17.624 3.74252 17.6273 3.73592H17.6471C17.6471 3.73592 17.5679 3.69632 17.5613 3.69632Z" fill="url(#paint13_linear_774_2851)"/>
<path d="M17.9008 5.0748C17.9008 5.0748 17.881 5.0748 17.8678 5.0748C17.8546 5.0748 17.8315 5.0748 17.815 5.0253H17.8678C17.8678 5.0055 17.8678 5.0055 17.8678 4.989C17.8678 4.989 17.8678 4.989 17.8447 4.989C17.8216 4.989 17.8447 4.989 17.8447 4.9626C17.8447 4.9626 17.8447 4.9263 17.8447 4.9428C17.8447 4.9593 17.8447 4.9428 17.8282 4.9428C17.8117 4.9428 17.8282 4.9428 17.8282 4.9593C17.8051 4.9593 17.8051 4.9593 17.8051 4.9593C17.8051 4.9593 17.8051 4.9593 17.8051 4.9428C17.8051 4.9428 17.8051 4.9197 17.8051 4.9131C17.8051 4.9131 17.7787 4.8933 17.7787 4.9131C17.7769 4.91611 17.776 4.91952 17.776 4.923C17.776 4.92647 17.7769 4.92989 17.7787 4.9329C17.7733 4.94064 17.7704 4.94986 17.7704 4.9593C17.7704 4.96874 17.7733 4.97795 17.7787 4.9857C17.7589 4.9857 17.7391 4.9857 17.7226 4.9857H17.6764C17.6764 4.9857 17.617 4.9857 17.6104 5.0154C17.6104 5.0154 17.6104 5.0154 17.6335 5.0154C17.6402 5.02166 17.649 5.02514 17.6582 5.02514C17.6674 5.02514 17.6762 5.02166 17.683 5.0154C17.683 5.0154 17.683 5.0154 17.7061 5.0154C17.7292 5.0154 17.7061 5.0154 17.7259 5.0154C17.7259 5.0451 17.7622 5.0418 17.7754 5.0715C17.785 5.07477 17.7954 5.07477 17.8051 5.0715C17.8098 5.07987 17.8166 5.08689 17.8248 5.09188C17.833 5.09687 17.8424 5.09966 17.852 5.1C17.8616 5.10033 17.8711 5.09818 17.8797 5.09377C17.8882 5.08936 17.8955 5.08283 17.9008 5.0748Z" fill="url(#paint14_linear_774_2851)"/>
<path d="M21.3243 6.11227C21.3243 6.11227 21.3243 6.08917 21.3243 6.07927C21.3268 6.07353 21.328 6.06736 21.328 6.06112C21.328 6.05488 21.3268 6.04871 21.3243 6.04297C21.3243 6.04297 21.3243 6.04297 21.3243 6.06277C21.3151 6.06923 21.3081 6.07848 21.3045 6.08917C21.2815 6.11932 21.2523 6.1441 21.2187 6.16177C21.2015 6.18443 21.1933 6.21263 21.1956 6.24097C21.1971 6.24749 21.1971 6.25425 21.1956 6.26077L21.1692 6.30037C21.1589 6.31004 21.152 6.32276 21.1494 6.33667C21.1494 6.35977 21.1296 6.39937 21.1494 6.39937C21.1692 6.39937 21.1824 6.39937 21.189 6.39937C21.199 6.38696 21.2078 6.37371 21.2154 6.35977C21.2319 6.33007 21.2517 6.30037 21.2649 6.27067C21.2781 6.24097 21.3012 6.21127 21.3144 6.18157C21.3168 6.17293 21.3168 6.16381 21.3144 6.15517C21.3159 6.14865 21.3159 6.14189 21.3144 6.13537L21.3243 6.11227Z" fill="url(#paint15_linear_774_2851)"/>
<path d="M19.7666 3.93546H19.7897C19.8227 3.93546 19.826 3.91566 19.8458 3.93546C19.8656 3.95526 19.8656 3.93546 19.8722 3.91566C19.8788 3.89586 19.8722 3.89916 19.8722 3.88926C19.8722 3.87936 19.9019 3.88926 19.8722 3.84636C19.8425 3.80346 19.8392 3.84636 19.8227 3.82656C19.8062 3.80676 19.7963 3.82656 19.7963 3.84636C19.7963 3.86616 19.7666 3.84636 19.7633 3.84636C19.761 3.85037 19.7598 3.85493 19.7598 3.85956C19.7598 3.8642 19.761 3.86875 19.7633 3.87276C19.7633 3.87276 19.7567 3.92886 19.7666 3.93546Z" fill="url(#paint16_linear_774_2851)"/>
<path d="M17.7041 3.5165H17.6843L17.6546 3.5429H17.6348H17.6645H17.681C17.681 3.5429 17.681 3.5429 17.7239 3.5198C17.7234 3.51321 17.7234 3.50659 17.7239 3.5H17.7041V3.5165Z" fill="url(#paint17_linear_774_2851)"/>
<path d="M17.9274 5.14431C17.9274 5.14431 17.9505 5.14431 17.9604 5.14431C17.9703 5.14431 17.9868 5.18061 17.9967 5.14431C18.0066 5.10801 18.0033 5.12121 18.0033 5.12121C18.0033 5.12121 18.0396 5.12121 18.0561 5.12121C18.0726 5.12121 18.0792 5.12121 18.0561 5.09811C18.033 5.07501 18.0099 5.05521 17.9802 5.06511C17.9505 5.07501 17.9538 5.06511 17.9373 5.06511C17.9373 5.06511 17.9373 5.06511 17.9373 5.09151H17.9043C17.9043 5.09151 17.9208 5.14761 17.9274 5.14431Z" fill="url(#paint18_linear_774_2851)"/>
<path d="M21.1045 3.84752C21.0847 3.82772 21.0649 3.80792 21.0715 3.80792L21.0352 3.76172L21.0649 3.78482L21.1111 3.82112L21.1045 3.84752Z" fill="url(#paint19_linear_774_2851)"/>
<path d="M17.476 3.66413L17.5222 3.63113L17.542 3.61133C17.5226 3.62464 17.5049 3.64014 17.4892 3.65753C17.4892 3.65753 17.4694 3.66743 17.476 3.66413Z" fill="url(#paint20_linear_774_2851)"/>
<path d="M17.8124 3.43849C17.7893 3.43849 17.786 3.45829 17.7893 3.43849C17.774 3.44106 17.7594 3.44667 17.7464 3.45499H17.7266C17.7794 3.47149 17.7926 3.44509 17.8124 3.43849Z" fill="url(#paint21_linear_774_2851)"/>
<path d="M20.7869 3.5231L20.8199 3.5528L20.8364 3.5693L20.8166 3.5495L20.7968 3.5297L20.7539 3.5L20.7869 3.5231Z" fill="url(#paint22_linear_774_2851)"/>
<path d="M20.9481 3.65713L20.9316 3.64062L20.9646 3.66703V3.68353H20.9811L20.9481 3.65713Z" fill="url(#paint23_linear_774_2851)"/>
<path d="M17.8314 4.86412C17.8314 4.86412 17.8545 4.86412 17.8479 4.84432C17.8413 4.82452 17.7918 4.81132 17.7951 4.84432C17.7984 4.87732 17.8182 4.83772 17.8314 4.86412Z" fill="url(#paint24_linear_774_2851)"/>
<path d="M17.6995 3.57422C17.6847 3.57882 17.6712 3.58672 17.6599 3.59732C17.6472 3.60229 17.6359 3.61021 17.6269 3.62042C17.6204 3.62225 17.6136 3.62225 17.6071 3.62042H17.584C17.584 3.62042 17.6137 3.62042 17.6269 3.62042C17.6401 3.62042 17.6269 3.62042 17.6533 3.62042C17.6533 3.62042 17.6533 3.62042 17.6731 3.59732L17.6995 3.57422Z" fill="url(#paint25_linear_774_2851)"/>
<path d="M20.9746 3.80166H20.9944C20.9897 3.79426 20.9827 3.7885 20.9746 3.78516V3.80166Z" fill="url(#paint26_linear_774_2851)"/>
<path d="M17.8711 3.74263C17.8711 3.74263 17.9008 3.74263 17.914 3.71293C17.9032 3.71027 17.8918 3.71027 17.881 3.71293C17.881 3.71293 17.8744 3.73933 17.8711 3.74263Z" fill="url(#paint27_linear_774_2851)"/>
<path d="M17.8164 5.12109C17.8225 5.12428 17.8293 5.12594 17.8362 5.12594C17.8431 5.12594 17.8499 5.12428 17.856 5.12109C17.856 5.12109 17.8395 5.12109 17.8164 5.12109Z" fill="url(#paint28_linear_774_2851)"/>
<path d="M18.2734 4.02826C18.2734 4.02826 18.2734 4.02826 18.2965 4.02826C18.3196 4.02826 18.3295 4.02826 18.3361 4.02826C18.3263 4.02379 18.3156 4.02148 18.3048 4.02148C18.294 4.02148 18.2833 4.02379 18.2734 4.02826Z" fill="url(#paint29_linear_774_2851)"/>
<path d="M19.0332 7.6242H19.0563C19.0563 7.6242 19.0563 7.6242 19.0761 7.6242C19.0699 7.61964 19.0624 7.61719 19.0547 7.61719C19.0469 7.61719 19.0394 7.61964 19.0332 7.6242Z" fill="url(#paint30_linear_774_2851)"/>
<path d="M20.1621 3.21875C20.1885 3.21875 20.1951 3.26165 20.2116 3.26495L20.2512 3.29135C20.2512 3.29135 20.2512 3.29135 20.271 3.29135C20.2908 3.29135 20.271 3.29135 20.3007 3.31445H20.3238C20.3238 3.31445 20.3436 3.33425 20.3469 3.31445H20.3766C20.3993 3.3295 20.4254 3.33858 20.4525 3.34085C20.4327 3.34085 20.4129 3.31775 20.3964 3.31115C20.3964 3.31115 20.3964 3.31115 20.37 3.31115L20.3271 3.28475C20.3271 3.28475 20.2941 3.25835 20.2809 3.25835C20.2809 3.25835 20.2809 3.25835 20.2611 3.25835C20.2611 3.25835 20.2611 3.25835 20.238 3.25835C20.2229 3.24525 20.2048 3.23617 20.1852 3.23195C20.1791 3.22521 20.171 3.22059 20.1621 3.21875Z" fill="url(#paint31_linear_774_2851)"/>
<path d="M17.8883 3.40234H17.8652C17.8652 3.40234 17.8652 3.41884 17.8883 3.40234Z" fill="url(#paint32_linear_774_2851)"/>
<path d="M17.5977 3.57537C17.5977 3.57537 17.5977 3.57537 17.6274 3.55887C17.6243 3.5574 17.6209 3.55664 17.6175 3.55664C17.614 3.55664 17.6106 3.5574 17.6076 3.55887L17.5977 3.57537Z" fill="url(#paint33_linear_774_2851)"/>
<path d="M18.1096 5.12268C18.1096 5.12268 18.1096 5.12268 18.1294 5.12268H18.1492C18.1492 5.12268 18.1492 5.12268 18.1492 5.10618C18.1492 5.08968 18.1063 5.12268 18.1096 5.12268Z" fill="url(#paint34_linear_774_2851)"/>
<path d="M19.8298 3.75574C19.8298 3.73264 19.8496 3.75574 19.8496 3.72274C19.8496 3.68974 19.8133 3.72274 19.8166 3.75244C19.8199 3.78214 19.8298 3.76564 19.8298 3.75574Z" fill="url(#paint35_linear_774_2851)"/>
<path d="M19.846 3.75819C19.846 3.75819 19.846 3.75819 19.846 3.77799C19.846 3.77799 19.8658 3.77799 19.8757 3.77799C19.8757 3.79779 19.8757 3.77799 19.9153 3.80109C19.9168 3.80983 19.9168 3.81875 19.9153 3.82749C19.8823 3.82749 19.8757 3.82749 19.8757 3.82749C19.8757 3.82749 19.8757 3.82749 19.8757 3.84729C19.8757 3.84729 19.8757 3.84729 19.8955 3.84729C19.9153 3.84729 19.8955 3.84729 19.8691 3.88359C19.881 3.8802 19.8936 3.8802 19.9054 3.88359H19.9252H19.9846C19.9846 3.88359 20.0209 3.88359 20.0374 3.88359C20.0539 3.88359 20.0572 3.88359 20.0671 3.88359C20.0671 3.88359 20.0671 3.88359 20.0671 3.85719C20.0671 3.83079 20.0671 3.83079 20.044 3.82419C20.0209 3.81759 20.0209 3.78129 19.9879 3.76809C19.9549 3.75489 19.9879 3.73839 19.9483 3.71859C19.9087 3.69879 19.9483 3.71859 19.9483 3.67899C19.9483 3.63939 19.9483 3.67899 19.9153 3.65919C19.9153 3.67569 19.8724 3.65919 19.8691 3.65919H19.8493C19.8493 3.65919 19.8394 3.75489 19.846 3.75819Z" fill="url(#paint36_linear_774_2851)"/>
<path d="M17.5587 3.61734C17.5257 3.64374 17.5587 3.61734 17.5257 3.61734L17.5026 3.64044C17.5026 3.64044 17.4762 3.66354 17.4729 3.66354L17.43 3.68994L17.4531 3.67014L17.4267 3.69324C17.4267 3.69324 17.4267 3.69324 17.4102 3.70974H17.43L17.4828 3.67014C17.5389 3.62394 17.5521 3.62724 17.5851 3.59424C17.6181 3.56124 17.5752 3.60414 17.5587 3.61734Z" fill="url(#paint37_linear_774_2851)"/>
<path d="M17.9465 3.73304C17.9465 3.73304 17.9729 3.70334 17.9465 3.70994C17.9444 3.71345 17.9434 3.71744 17.9434 3.72149C17.9434 3.72555 17.9444 3.72953 17.9465 3.73304Z" fill="url(#paint38_linear_774_2851)"/>
<path d="M19.6995 4.71875C19.6903 4.73171 19.6836 4.74625 19.6797 4.76165C19.7028 4.76165 19.6995 4.73525 19.7094 4.72535L19.6995 4.71875Z" fill="url(#paint39_linear_774_2851)"/>
<path d="M17.582 3.6128H17.6051C17.6051 3.6128 17.5952 3.5963 17.582 3.6128Z" fill="url(#paint40_linear_774_2851)"/>
<path d="M18.3106 3.67019V3.65039C18.3106 3.65039 18.2974 3.67349 18.3106 3.67019Z" fill="url(#paint41_linear_774_2851)"/>
<path d="M19.3242 2.92725H19.3704C19.3704 2.92725 19.3572 2.92395 19.3242 2.92725Z" fill="url(#paint42_linear_774_2851)"/>
<path d="M19.5549 3.51778H19.5747H19.5978H19.6242C19.6242 3.51778 19.6242 3.51778 19.6242 3.49798L19.5912 3.47158C19.5747 3.47158 19.5681 3.47158 19.5417 3.47158H19.512C19.512 3.47158 19.4955 3.47158 19.4889 3.47158C19.4823 3.47158 19.4889 3.47158 19.4724 3.47158C19.4559 3.47158 19.4724 3.47158 19.4526 3.47158C19.4328 3.47158 19.4526 3.45178 19.3965 3.47158C19.3965 3.47158 19.3965 3.47158 19.413 3.47158C19.4295 3.47158 19.4394 3.47158 19.4394 3.47158C19.4394 3.47158 19.4394 3.47158 19.4064 3.47158C19.3734 3.47158 19.4361 3.47158 19.446 3.47158C19.4988 3.47158 19.4922 3.49138 19.5186 3.47158C19.5275 3.47465 19.5372 3.4747 19.5461 3.47172C19.5551 3.46874 19.5628 3.46289 19.5681 3.45508L19.5549 3.51778ZM19.5153 3.50788C19.5156 3.50569 19.5156 3.50347 19.5153 3.50128V3.50788Z" fill="url(#paint43_linear_774_2851)"/>
<path d="M17.6308 3.53239L17.6737 3.51919V3.51259C17.6737 3.51259 17.6737 3.51259 17.7034 3.49609C17.7034 3.49609 17.6803 3.49609 17.6737 3.51259L17.6374 3.53899C17.6374 3.53899 17.6242 3.53569 17.6308 3.53239Z" fill="url(#paint44_linear_774_2851)"/>
<path d="M20.3145 4.336C20.3112 4.32637 20.3112 4.31593 20.3145 4.3063C20.317 4.29881 20.317 4.2907 20.3145 4.2832C20.3145 4.2832 20.2881 4.2832 20.3145 4.3129C20.3158 4.32055 20.3158 4.32836 20.3145 4.336C20.3145 4.336 20.3145 4.3954 20.3343 4.3954C20.3541 4.3954 20.3541 4.3624 20.3541 4.3558C20.3497 4.34945 20.3437 4.34431 20.3368 4.34085C20.3299 4.33739 20.3222 4.33572 20.3145 4.336Z" fill="url(#paint45_linear_774_2851)"/>
<path d="M20.7285 4.56445C20.7285 4.56445 20.7285 4.56445 20.7516 4.56445C20.7747 4.56445 20.7813 4.56445 20.7945 4.56445C20.7945 4.56445 20.745 4.57105 20.7285 4.56445Z" fill="url(#paint46_linear_774_2851)"/>
<path d="M20.9512 4.61099C20.9512 4.61099 20.9776 4.61099 20.9743 4.58789C20.9743 4.58789 20.9743 4.61099 20.9512 4.61099Z" fill="url(#paint47_linear_774_2851)"/>
<path d="M20.1465 4.37159C20.1465 4.37159 20.1696 4.37159 20.1663 4.37159C20.163 4.37159 20.1465 4.36169 20.1465 4.37159Z" fill="url(#paint48_linear_774_2851)"/>
<g opacity="0.8">
<path style="mix-blend-mode:multiply" opacity="0.5" d="M19.2036 16.1929C22.2145 16.1929 24.6553 15.6211 24.6553 14.9158C24.6553 14.2105 22.2145 13.6387 19.2036 13.6387C16.1927 13.6387 13.752 14.2105 13.752 14.9158C13.752 15.6211 16.1927 16.1929 19.2036 16.1929Z" fill="url(#paint49_radial_774_2851)"/>
<path style="mix-blend-mode:multiply" opacity="0.5" d="M19.2035 15.6743C20.9933 15.6743 22.4442 15.3344 22.4442 14.9153C22.4442 14.4961 20.9933 14.1562 19.2035 14.1562C17.4138 14.1562 15.9629 14.4961 15.9629 14.9153C15.9629 15.3344 17.4138 15.6743 19.2035 15.6743Z" fill="url(#paint50_radial_774_2851)"/>
<path style="mix-blend-mode:multiply" opacity="0.5" d="M19.2029 15.2587C20.0139 15.2587 20.6714 15.105 20.6714 14.9155C20.6714 14.7259 20.0139 14.5723 19.2029 14.5723C18.3919 14.5723 17.7344 14.7259 17.7344 14.9155C17.7344 15.105 18.3919 15.2587 19.2029 15.2587Z" fill="url(#paint51_radial_774_2851)"/>
</g>
</g>
<defs>
<linearGradient id="paint0_linear_774_2851" x1="19.2067" y1="2.17787" x2="19.2067" y2="13.2594" gradientUnits="userSpaceOnUse">
<stop stop-color="#EE2E37"/>
<stop offset="1" stop-color="#B72025"/>
</linearGradient>
<linearGradient id="paint1_linear_774_2851" x1="19.2039" y1="1.05519" x2="19.2039" y2="4.46082" gradientUnits="userSpaceOnUse">
<stop stop-color="white"/>
<stop offset="1" stop-color="#010101"/>
</linearGradient>
<linearGradient id="paint2_linear_774_2851" x1="19.2051" y1="1.94121" x2="19.2051" y2="7.37307" gradientUnits="userSpaceOnUse">
<stop stop-color="#A22226"/>
<stop offset="1" stop-color="#C1282D"/>
</linearGradient>
<linearGradient id="paint3_linear_774_2851" x1="19.2766" y1="8.78144" x2="19.2766" y2="13.5962" gradientUnits="userSpaceOnUse">
<stop stop-color="#E43B41"/>
<stop offset="1" stop-color="#B72025"/>
</linearGradient>
<linearGradient id="paint4_linear_774_2851" x1="19.2049" y1="13.6625" x2="19.2049" y2="9.74207" gradientUnits="userSpaceOnUse">
<stop stop-color="white"/>
<stop offset="1" stop-color="#010101"/>
</linearGradient>
<linearGradient id="paint5_linear_774_2851" x1="20.2746" y1="2.95668" x2="20.4594" y2="2.50788" gradientUnits="userSpaceOnUse">
<stop stop-color="#A22226"/>
<stop offset="1" stop-color="#C1282D"/>
</linearGradient>
<linearGradient id="paint6_linear_774_2851" x1="17.2684" y1="3.5016" x2="17.0341" y2="3.3003" gradientUnits="userSpaceOnUse">
<stop stop-color="#A22226"/>
<stop offset="1" stop-color="#C1282D"/>
</linearGradient>
<linearGradient id="paint7_linear_774_2851" x1="20.2746" y1="7.71646" x2="20.4594" y2="8.16196" gradientUnits="userSpaceOnUse">
<stop stop-color="#A22226"/>
<stop offset="1" stop-color="#C1282D"/>
</linearGradient>
<linearGradient id="paint8_linear_774_2851" x1="17.2684" y1="7.11946" x2="17.0341" y2="7.32077" gradientUnits="userSpaceOnUse">
<stop stop-color="#A22226"/>
<stop offset="1" stop-color="#C1282D"/>
</linearGradient>
<linearGradient id="paint9_linear_774_2851" x1="19.2061" y1="0.670302" x2="19.2061" y2="1.78241" gradientUnits="userSpaceOnUse">
<stop stop-color="white"/>
<stop offset="1" stop-color="#010101"/>
</linearGradient>
<linearGradient id="paint10_linear_774_2851" x1="20.5945" y1="2.6461" x2="20.5945" y2="8.37826" gradientUnits="userSpaceOnUse">
<stop stop-color="#E9E8E8"/>
<stop offset="0.44" stop-color="#B8B7B7"/>
<stop offset="1" stop-color="#999696"/>
</linearGradient>
<linearGradient id="paint11_linear_774_2851" x1="18.6665" y1="2.45529" x2="18.6665" y2="8.12145" gradientUnits="userSpaceOnUse">
<stop stop-color="#E9E8E8"/>
<stop offset="0.44" stop-color="#B8B7B7"/>
<stop offset="1" stop-color="#999696"/>
</linearGradient>
<linearGradient id="paint12_linear_774_2851" x1="17.9739" y1="2.63826" x2="17.9739" y2="8.39352" gradientUnits="userSpaceOnUse">
<stop stop-color="#E9E8E8"/>
<stop offset="0.44" stop-color="#B8B7B7"/>
<stop offset="1" stop-color="#999696"/>
</linearGradient>
<linearGradient id="paint13_linear_774_2851" x1="17.4326" y1="2.67331" x2="17.4326" y2="10.0984" gradientUnits="userSpaceOnUse">
<stop stop-color="#E9E8E8"/>
<stop offset="0.44" stop-color="#B8B7B7"/>
<stop offset="1" stop-color="#999696"/>
</linearGradient>
<linearGradient id="paint14_linear_774_2851" x1="17.7787" y1="2.42157" x2="17.7787" y2="8.57614" gradientUnits="userSpaceOnUse">
<stop stop-color="#E9E8E8"/>
<stop offset="0.44" stop-color="#B8B7B7"/>
<stop offset="1" stop-color="#999696"/>
</linearGradient>
<linearGradient id="paint15_linear_774_2851" x1="21.2121" y1="2.87493" x2="21.2121" y2="8.06259" gradientUnits="userSpaceOnUse">
<stop stop-color="#E9E8E8"/>
<stop offset="0.44" stop-color="#B8B7B7"/>
<stop offset="1" stop-color="#999696"/>
</linearGradient>
<linearGradient id="paint16_linear_774_2851" x1="19.8194" y1="2.44385" x2="19.8194" y2="8.28491" gradientUnits="userSpaceOnUse">
<stop stop-color="#E9E8E8"/>
<stop offset="0.44" stop-color="#B8B7B7"/>
<stop offset="1" stop-color="#999696"/>
</linearGradient>
<linearGradient id="paint17_linear_774_2851" x1="17.6711" y1="2.51989" x2="17.6711" y2="10.9449" gradientUnits="userSpaceOnUse">
<stop stop-color="#E9E8E8"/>
<stop offset="0.44" stop-color="#B8B7B7"/>
<stop offset="1" stop-color="#999696"/>
</linearGradient>
<linearGradient id="paint18_linear_774_2851" x1="17.9934" y1="2.33599" x2="17.9934" y2="8.68195" gradientUnits="userSpaceOnUse">
<stop stop-color="#E9E8E8"/>
<stop offset="0.44" stop-color="#B8B7B7"/>
<stop offset="1" stop-color="#999696"/>
</linearGradient>
<linearGradient id="paint19_linear_774_2851" x1="21.0583" y1="3.26671" x2="21.0583" y2="7.19046" gradientUnits="userSpaceOnUse">
<stop stop-color="#E9E8E8"/>
<stop offset="0.44" stop-color="#B8B7B7"/>
<stop offset="1" stop-color="#999696"/>
</linearGradient>
<linearGradient id="paint20_linear_774_2851" x1="17.5156" y1="2.64442" x2="17.5156" y2="11.6568" gradientUnits="userSpaceOnUse">
<stop stop-color="#E9E8E8"/>
<stop offset="0.44" stop-color="#B8B7B7"/>
<stop offset="1" stop-color="#999696"/>
</linearGradient>
<linearGradient id="paint21_linear_774_2851" x1="17.7893" y1="2.85438" x2="17.7893" y2="8.24665" gradientUnits="userSpaceOnUse">
<stop stop-color="#E9E8E8"/>
<stop offset="0.44" stop-color="#B8B7B7"/>
<stop offset="1" stop-color="#999696"/>
</linearGradient>
<linearGradient id="paint22_linear_774_2851" x1="20.81" y1="2.33509" x2="20.81" y2="14.9445" gradientUnits="userSpaceOnUse">
<stop stop-color="#E9E8E8"/>
<stop offset="0.44" stop-color="#B8B7B7"/>
<stop offset="1" stop-color="#999696"/>
</linearGradient>
<linearGradient id="paint23_linear_774_2851" x1="20.9184" y1="2.90472" x2="20.9184" y2="10.6334" gradientUnits="userSpaceOnUse">
<stop stop-color="#E9E8E8"/>
<stop offset="0.44" stop-color="#B8B7B7"/>
<stop offset="1" stop-color="#999696"/>
</linearGradient>
<linearGradient id="paint24_linear_774_2851" x1="17.8215" y1="2.53759" x2="17.8215" y2="8.39517" gradientUnits="userSpaceOnUse">
<stop stop-color="#E9E8E8"/>
<stop offset="0.44" stop-color="#B8B7B7"/>
<stop offset="1" stop-color="#999696"/>
</linearGradient>
<linearGradient id="paint25_linear_774_2851" x1="17.65" y1="2.81521" x2="17.65" y2="8.47145" gradientUnits="userSpaceOnUse">
<stop stop-color="#E9E8E8"/>
<stop offset="0.44" stop-color="#B8B7B7"/>
<stop offset="1" stop-color="#999696"/>
</linearGradient>
<linearGradient id="paint26_linear_774_2851" x1="21.0043" y1="2.88424" x2="21.0043" y2="8.68573" gradientUnits="userSpaceOnUse">
<stop stop-color="#E9E8E8"/>
<stop offset="0.44" stop-color="#B8B7B7"/>
<stop offset="1" stop-color="#999696"/>
</linearGradient>
<linearGradient id="paint27_linear_774_2851" x1="17.8909" y1="2.39951" x2="17.8909" y2="9.2405" gradientUnits="userSpaceOnUse">
<stop stop-color="#E9E8E8"/>
<stop offset="0.44" stop-color="#B8B7B7"/>
<stop offset="1" stop-color="#999696"/>
</linearGradient>
<linearGradient id="paint28_linear_774_2851" x1="17.8296" y1="2.3755" x2="17.8296" y2="8.63559" gradientUnits="userSpaceOnUse">
<stop stop-color="#E9E8E8"/>
<stop offset="0.44" stop-color="#B8B7B7"/>
<stop offset="1" stop-color="#999696"/>
</linearGradient>
<linearGradient id="paint29_linear_774_2851" x1="18.2965" y1="2.76435" x2="18.2965" y2="7.523" gradientUnits="userSpaceOnUse">
<stop stop-color="#E9E8E8"/>
<stop offset="0.44" stop-color="#B8B7B7"/>
<stop offset="1" stop-color="#999696"/>
</linearGradient>
<linearGradient id="paint30_linear_774_2851" x1="19.0563" y1="2.95454" x2="19.0563" y2="8.50203" gradientUnits="userSpaceOnUse">
<stop stop-color="#E9E8E8"/>
<stop offset="0.44" stop-color="#B8B7B7"/>
<stop offset="1" stop-color="#999696"/>
</linearGradient>
<linearGradient id="paint31_linear_774_2851" x1="20.2809" y1="2.43994" x2="20.2809" y2="10.1059" gradientUnits="userSpaceOnUse">
<stop stop-color="#E9E8E8"/>
<stop offset="0.44" stop-color="#B8B7B7"/>
<stop offset="1" stop-color="#999696"/>
</linearGradient>
<linearGradient id="paint32_linear_774_2851" x1="17.8784" y1="2.59714" x2="17.8784" y2="9.74171" gradientUnits="userSpaceOnUse">
<stop stop-color="#E9E8E8"/>
<stop offset="0.44" stop-color="#B8B7B7"/>
<stop offset="1" stop-color="#999696"/>
</linearGradient>
<linearGradient id="paint33_linear_774_2851" x1="17.6109" y1="3.17276" x2="17.6109" y2="6.66424" gradientUnits="userSpaceOnUse">
<stop stop-color="#E9E8E8"/>
<stop offset="0.44" stop-color="#B8B7B7"/>
<stop offset="1" stop-color="#999696"/>
</linearGradient>
<linearGradient id="paint34_linear_774_2851" x1="18.1327" y1="2.25164" x2="18.1327" y2="8.78573" gradientUnits="userSpaceOnUse">
<stop stop-color="#E9E8E8"/>
<stop offset="0.44" stop-color="#B8B7B7"/>
<stop offset="1" stop-color="#999696"/>
</linearGradient>
<linearGradient id="paint35_linear_774_2851" x1="19.8331" y1="2.51163" x2="19.8331" y2="8.05238" gradientUnits="userSpaceOnUse">
<stop stop-color="#E9E8E8"/>
<stop offset="0.44" stop-color="#B8B7B7"/>
<stop offset="1" stop-color="#999696"/>
</linearGradient>
<linearGradient id="paint36_linear_774_2851" x1="19.9582" y1="2.46788" x2="19.9582" y2="8.24624" gradientUnits="userSpaceOnUse">
<stop stop-color="#E9E8E8"/>
<stop offset="0.44" stop-color="#B8B7B7"/>
<stop offset="1" stop-color="#999696"/>
</linearGradient>
<linearGradient id="paint37_linear_774_2851" x1="17.4762" y1="2.29073" x2="17.4762" y2="13.6462" gradientUnits="userSpaceOnUse">
<stop stop-color="#E9E8E8"/>
<stop offset="0.44" stop-color="#B8B7B7"/>
<stop offset="1" stop-color="#999696"/>
</linearGradient>
<linearGradient id="paint38_linear_774_2851" x1="17.9564" y1="2.62753" x2="17.9564" y2="8.18807" gradientUnits="userSpaceOnUse">
<stop stop-color="#E9E8E8"/>
<stop offset="0.44" stop-color="#B8B7B7"/>
<stop offset="1" stop-color="#999696"/>
</linearGradient>
<linearGradient id="paint39_linear_774_2851" x1="19.6962" y1="2.23382" x2="19.6962" y2="8.7679" gradientUnits="userSpaceOnUse">
<stop stop-color="#E9E8E8"/>
<stop offset="0.44" stop-color="#B8B7B7"/>
<stop offset="1" stop-color="#999696"/>
</linearGradient>
<linearGradient id="paint40_linear_774_2851" x1="17.5952" y1="2.75479" x2="17.5952" y2="9.55947" gradientUnits="userSpaceOnUse">
<stop stop-color="#E9E8E8"/>
<stop offset="0.44" stop-color="#B8B7B7"/>
<stop offset="1" stop-color="#999696"/>
</linearGradient>
<linearGradient id="paint41_linear_774_2851" x1="18.3073" y1="2.55477" x2="18.3073" y2="8.06587" gradientUnits="userSpaceOnUse">
<stop stop-color="#E9E8E8"/>
<stop offset="0.44" stop-color="#B8B7B7"/>
<stop offset="1" stop-color="#999696"/>
</linearGradient>
<linearGradient id="paint42_linear_774_2851" x1="19.344" y1="2.43554" x2="19.344" y2="8.36571" gradientUnits="userSpaceOnUse">
<stop stop-color="#E9E8E8"/>
<stop offset="0.44" stop-color="#B8B7B7"/>
<stop offset="1" stop-color="#999696"/>
</linearGradient>
<linearGradient id="paint43_linear_774_2851" x1="19.4988" y1="2.40566" x2="19.4988" y2="8.29954" gradientUnits="userSpaceOnUse">
<stop stop-color="#E9E8E8"/>
<stop offset="0.44" stop-color="#B8B7B7"/>
<stop offset="1" stop-color="#999696"/>
</linearGradient>
<linearGradient id="paint44_linear_774_2851" x1="17.677" y1="2.71398" x2="17.677" y2="10.1556" gradientUnits="userSpaceOnUse">
<stop stop-color="#E9E8E8"/>
<stop offset="0.44" stop-color="#B8B7B7"/>
<stop offset="1" stop-color="#999696"/>
</linearGradient>
<linearGradient id="paint45_linear_774_2851" x1="20.3178" y1="2.46488" x2="20.3178" y2="8.43135" gradientUnits="userSpaceOnUse">
<stop stop-color="#E9E8E8"/>
<stop offset="0.44" stop-color="#B8B7B7"/>
<stop offset="1" stop-color="#999696"/>
</linearGradient>
<linearGradient id="paint46_linear_774_2851" x1="20.7549" y1="2.25113" x2="20.7549" y2="8.97" gradientUnits="userSpaceOnUse">
<stop stop-color="#E9E8E8"/>
<stop offset="0.44" stop-color="#B8B7B7"/>
<stop offset="1" stop-color="#999696"/>
</linearGradient>
<linearGradient id="paint47_linear_774_2851" x1="20.971" y1="2.99068" x2="20.971" y2="7.66351" gradientUnits="userSpaceOnUse">
<stop stop-color="#E9E8E8"/>
<stop offset="0.44" stop-color="#B8B7B7"/>
<stop offset="1" stop-color="#999696"/>
</linearGradient>
<linearGradient id="paint48_linear_774_2851" x1="20.1564" y1="2.35857" x2="20.1564" y2="8.60223" gradientUnits="userSpaceOnUse">
<stop stop-color="#E9E8E8"/>
<stop offset="0.44" stop-color="#B8B7B7"/>
<stop offset="1" stop-color="#999696"/>
</linearGradient>
<radialGradient id="paint49_radial_774_2851" cx="0" cy="0" r="1" gradientUnits="userSpaceOnUse" gradientTransform="translate(19.2036 16.7021) scale(5.45166 1.25388)">
<stop stop-color="#4C1517"/>
<stop offset="0.02" stop-color="#592628"/>
<stop offset="0.08" stop-color="#7B5355"/>
<stop offset="0.14" stop-color="#9B7C7D"/>
<stop offset="0.21" stop-color="#B6A0A0"/>
<stop offset="0.29" stop-color="#CDBDBE"/>
<stop offset="0.37" stop-color="#DFD6D6"/>
<stop offset="0.46" stop-color="#EEE8E8"/>
<stop offset="0.57" stop-color="#F8F5F5"/>
<stop offset="0.71" stop-color="#FDFDFD"/>
<stop offset="1" stop-color="white"/>
</radialGradient>
<radialGradient id="paint50_radial_774_2851" cx="0" cy="0" r="1" gradientUnits="userSpaceOnUse" gradientTransform="translate(19.2035 16.7016) scale(3.24063 0.745346)">
<stop stop-color="#4C1517"/>
<stop offset="0.02" stop-color="#592628"/>
<stop offset="0.08" stop-color="#7B5355"/>
<stop offset="0.14" stop-color="#9B7C7D"/>
<stop offset="0.21" stop-color="#B6A0A0"/>
<stop offset="0.29" stop-color="#CDBDBE"/>
<stop offset="0.37" stop-color="#DFD6D6"/>
<stop offset="0.46" stop-color="#EEE8E8"/>
<stop offset="0.57" stop-color="#F8F5F5"/>
<stop offset="0.71" stop-color="#FDFDFD"/>
<stop offset="1" stop-color="white"/>
</radialGradient>
<radialGradient id="paint51_radial_774_2851" cx="0" cy="0" r="1" gradientUnits="userSpaceOnUse" gradientTransform="translate(19.2029 16.7018) scale(1.46852 0.337759)">
<stop stop-color="#4C1517"/>
<stop offset="0.02" stop-color="#592628"/>
<stop offset="0.08" stop-color="#7B5355"/>
<stop offset="0.14" stop-color="#9B7C7D"/>
<stop offset="0.21" stop-color="#B6A0A0"/>
<stop offset="0.29" stop-color="#CDBDBE"/>
<stop offset="0.37" stop-color="#DFD6D6"/>
<stop offset="0.46" stop-color="#EEE8E8"/>
<stop offset="0.57" stop-color="#F8F5F5"/>
<stop offset="0.71" stop-color="#FDFDFD"/>
<stop offset="1" stop-color="white"/>
</radialGradient>
<clipPath id="clip0_774_2851">
<rect width="91.51" height="74" fill="white" transform="translate(0.183594 0.5)"/>
</clipPath>
</defs>
</svg>
